<svg viewBox="0 0 423 286" fill="none" xmlns="http://www.w3.org/2000/svg">
  <path d="M28.69 137.4H4.37v89.35h24.32V137.4Z" fill="#CFDFE5"/>
  <path d="M144.97 190.84H0v35.91h145.18l-.21-35.91Z" fill="#CFDFE5"/>
  <path d="m119.85 180.98-37.73-10.27v56.04h37.73v-45.77Z" fill="#CFDFE5"/>
  <path d="M84.01 122.48 56 112.59v114.16h28.01V122.48ZM55.84 80.84H18.82v145.91h37.02V80.84ZM422.73 140.87H399.2v86.44h23.51l.02-86.44ZM366.42 151.95h-23.37v75.36h23.37v-75.36Z" fill="#CFDFE5"/>
  <path d="M422.27 192.56h-79.4v34.74h79.4v-34.74Z" fill="#CFDFE5"/>
  <path d="m416.05 183.03-24.88-9.94v54.22h24.88v-44.28Z" fill="#CFDFE5"/>
  <path d="m411.32 126.44-27.09-9.57v110.44h27.09V126.44ZM378.76 86.15h-18.53V227.3h18.53V86.15ZM87.51 140.87h23.53v86.44h-23.5l-.03-86.44ZM167.2 151.95h-23.37v75.36h23.37v-75.36Z" fill="#CFDFE5"/>
  <path d="M167.37 192.56h-79.4v34.74h79.4v-34.74Z" fill="#CFDFE5"/>
  <path d="m94.19 183.03 24.88-9.94v54.22H94.19v-44.28Z" fill="#CFDFE5"/>
  <path d="m98.92 126.44 27.09-9.57v110.44H98.92V126.44ZM150.01 86.15h-18.53V227.3h18.53V86.15Z" fill="#CFDFE5"/>
  <path d="M205.73 49.21V34.56h-5.68v14.65h5.68ZM312.52 49.22V34.57h-5.7v14.65h5.7Z" fill="#AAB8C1"/>
  <path d="M232.27 64.63v185.79h119.56V64.63H232.27Zm102.2 130.88h-84.79v-87.63h84.79v87.63ZM232.27 64.63v185.79h-67.63V64.63h67.63Zm-57.8 130.88h48v-87.63h-48v87.63Z" fill="#E3F5FF"/>
  <path d="M351.97 46.88H164.59v5.75h187.38v-5.75Z" fill="#AAB8C1"/>
  <path d="M351.97 52.45H164.59v13.08h187.38V52.45Z" fill="#E3F5FF"/>
  <path d="M194.03 202.39h-15c-.501 0-.982-.199-1.336-.554a1.887 1.887 0 0 1 0-2.672 1.887 1.887 0 0 1 1.336-.554h15a1.89 1.89 0 0 1 0 3.78ZM333.05 0H181.53a8.32 8.32 0 0 0-8.32 8.32v19.13a8.32 8.32 0 0 0 8.32 8.32h151.52a8.32 8.32 0 0 0 8.32-8.32V8.32A8.32 8.32 0 0 0 333.05 0Z" fill="#AAB8C1"/>
  <path d="M207.43 16.17a4.996 4.996 0 0 0 1.84-4.26c0-4-3.35-6-7-6h-7c-.24 0-.34.1-.34.33v23c0 .24.1.34.34.34h9.25c4.37 0 7.11-2.91 7.11-6.9a6.68 6.68 0 0 0-4.2-6.51Zm-8.95-6.93h4a3.082 3.082 0 0 1 3.256 3.075 3.08 3.08 0 0 1-3.256 3.075h-4V9.24Zm5.67 16.91h-5.67v-7.37h5.67c2.37 0 4 1.48 4 3.65-.01 2.57-1.63 3.72-4 3.72Zm12.83-20.29-2.64.43a.351.351 0 0 0-.31.38v22.52c0 .24.11.34.34.34h2.64c.24 0 .34-.1.34-.34v-23a.28.28 0 0 0-.37-.33Zm10.52 6.35c-3.65 0-5.92 1.9-6.83 4.33-.1.27.06.38.27.41l2.74.44c.2 0 .3 0 .4-.24a3.521 3.521 0 0 1 3.42-1.89c2.37 0 3.62 1.38 3.62 3.48v.61a14.25 14.25 0 0 0-4.5-.71c-3.79 0-6.9 2-6.9 5.72 0 3.58 2.94 5.51 6.12 5.51a6.922 6.922 0 0 0 5.28-1.93v1.25c0 .24.1.34.34.34h2.63c.24 0 .34-.1.34-.34V18.51c0-3.93-2.7-6.3-6.93-6.3Zm-1.18 14.48c-2 0-3.08-1-3.08-2.47 0-1.72 1.59-2.54 3.55-2.54 1.473-.01 2.938.23 4.33.71 0 2.78-2.2 4.3-4.8 4.3Zm22.95-10.52a5.005 5.005 0 0 0 1.79-4.26c0-4-3.35-6-7-6h-6.95c-.24 0-.34.1-.34.33v23c0 .24.1.34.34.34h9.25c4.36 0 7.1-2.91 7.1-6.9a6.68 6.68 0 0 0-4.19-6.51Zm-9-6.93h4a3.082 3.082 0 0 1 3.256 3.075 3.08 3.08 0 0 1-3.256 3.075h-4V9.24Zm5.67 16.91h-5.67v-7.37h5.67c2.36 0 4 1.48 4 3.65.03 2.57-1.6 3.72-3.96 3.72h-.04Zm12.82-20.29-2.63.43a.351.351 0 0 0-.31.38v22.52c0 .24.1.34.34.34h2.64c.24 0 .34-.1.34-.34v-23a.302.302 0 0 0-.011-.137.293.293 0 0 0-.329-.193h-.04Zm10.53 6.35c-3.66 0-5.92 1.9-6.84 4.33-.1.27.07.38.28.41l2.73.44c.21 0 .31 0 .41-.24a3.521 3.521 0 0 1 3.42-1.89 3.265 3.265 0 0 1 2.628.889 3.266 3.266 0 0 1 .992 2.591v.61a14.3 14.3 0 0 0-4.5-.71c-3.79 0-6.9 2-6.9 5.72 0 3.58 2.94 5.51 6.12 5.51a6.933 6.933 0 0 0 5.28-1.93v1.25c0 .24.1.34.33.34h2.64c.24 0 .34-.1.34-.34V18.51c.05-3.93-2.67-6.3-6.89-6.3h-.04Zm-1.19 14.48c-2 0-3.07-1-3.07-2.47 0-1.72 1.58-2.54 3.55-2.54 1.473-.01 2.938.23 4.33.71.04 2.78-2.16 4.3-4.77 4.3h-.04ZM288.76 8.9c3.32 0 5.48 1.56 6.46 5a.401.401 0 0 0 .41.34h2.74c.27 0 .37-.07.37-.34-.64-5.17-4.67-8.35-10-8.35s-10.41 3.79-10.41 12.17c0 8.38 5.07 12.18 10.41 12.18s9.34-3.18 10-8.36c0-.27-.1-.33-.37-.33h-2.7a.397.397 0 0 0-.4.3c-1 3.42-3.14 5-6.46 5-3.48 0-6.76-2.78-6.76-8.8 0-6.02 3.27-8.81 6.75-8.81h-.04Zm19.74 3.31c-3.65 0-5.92 1.9-6.83 4.33-.1.27.06.38.27.41l2.74.44c.2 0 .3 0 .4-.24a3.521 3.521 0 0 1 3.42-1.89c2.37 0 3.62 1.38 3.62 3.48v.61a14.25 14.25 0 0 0-4.5-.71c-3.79 0-6.9 2-6.9 5.72 0 3.58 2.94 5.51 6.12 5.51a6.922 6.922 0 0 0 5.28-1.93v1.25c0 .24.1.34.34.34h2.63c.24 0 .34-.1.34-.34V18.51c.04-3.93-2.66-6.3-6.89-6.3h-.04Zm-1.18 14.48c-2 0-3.08-1-3.08-2.47 0-1.72 1.59-2.54 3.55-2.54 1.473-.01 2.938.23 4.33.71.04 2.78-2.16 4.3-4.76 4.3h-.04Zm19.53-14.37a7.13 7.13 0 0 0-1.26-.11 6.004 6.004 0 0 0-4.46 2v-1.32c0-.24-.1-.34-.34-.34h-2.64c-.23 0-.34.1-.34.34v16.3c0 .24.11.34.34.34h2.64c.24 0 .34-.1.34-.34v-8.82a4.555 4.555 0 0 1 1.614-3.814 4.552 4.552 0 0 1 4.036-.926c.23 0 .37-.07.37-.3v-2.64a.33.33 0 0 0-.26-.37h-.04Z" fill="#fff"/>
  <path d="M197.35 51.59h-20.83v42.97h20.83V51.59ZM238.65 51.59h-20.83v43.37h20.83V51.59Z" fill="#FF595A"/>
  <path d="M218 51.59h-20.83v43.17H218V51.59ZM259.3 51.59h-20.83v43.57h20.83V51.59Z" fill="#005C66"/>
  <path d="M279.95 51.59h-20.83v43.78h20.83V51.59ZM321.26 51.59h-20.83v44.18h20.83V51.59Z" fill="#FF595A"/>
  <path d="M300.61 51.59h-20.83v43.98h20.83V51.59Z" fill="#005C66"/>
  <path d="M341.73 96.1V51.59h6.25l14.58 42.51-20.83 2Z" fill="#FF595A"/>
  <path d="M341.91 51.59h-20.83v44.38h20.83V51.59ZM155.87 93.26l15.12-41.67h5.73l-.2 41.8-20.65-.13Z" fill="#005C66"/>
  <path d="M197.35 93.39c0 4.18-4.67 7.56-10.42 7.56s-10.41-3.38-10.41-7.56M238.65 93.64c0 4.18-4.66 7.57-10.41 7.57s-10.42-3.39-10.42-7.57M279.95 93.9c0 4.17-4.66 7.56-10.41 7.56s-10.41-3.39-10.41-7.56M321.27 94.15c0 4.17-4.66 7.56-10.42 7.56s-10.41-3.39-10.41-7.56M362.56 94.4c0 4.18-4.66 7.56-10.41 7.56s-10.41-3.38-10.41-7.56" fill="#D1434B"/>
  <path d="M176.69 93.27c0 4.17-4.66 7.56-10.41 7.56s-10.41-3.39-10.41-7.56M218 93.51c0 4.17-4.66 7.56-10.42 7.56s-10.41-3.38-10.41-7.56M259.27 93.77c0 4.18-4.66 7.56-10.41 7.56s-10.41-3.38-10.41-7.56M300.61 94.02c0 4.18-4.67 7.56-10.42 7.56s-10.41-3.38-10.41-7.56M341.91 94.28c0 4.17-4.66 7.56-10.41 7.56s-10.42-3.39-10.42-7.56" fill="#054752"/>
  <path d="M290.98 173.91c12.835 0 23.24-10.405 23.24-23.24 0-12.835-10.405-23.24-23.24-23.24-12.835 0-23.24 10.405-23.24 23.24 0 12.835 10.405 23.24 23.24 23.24Z" fill="#E3F5FF"/>
  <path d="m258.04 161.55 67.16-.13-3.14-.66-59.34-.1-4.68.89Z" fill="#8E415F" style="mix-blend-mode:multiply" opacity=".18"/>
  <path d="M316.27 150.24v-7.27h-.17c0-.13 8.2-.06 8.93-.05v-.34a1.426 1.426 0 0 0-.2-.7 2.648 2.648 0 0 0-2.37-1.2l-14.21.07h-7.18l-21.91.11h-19.89a1.357 1.357 0 0 0-1.24 1.37V157a1.349 1.349 0 0 0 1.14 1.51l5.74.83h58.36s1.48 0 1.77-1c.053-.253.079-.511.08-.77v-2.44c-3.3-.22-5.42-4.25-8.85-4.89Zm-56.33.21v-7.37h1.6c.069.011.14.011.21 0h6.76c.07.01.14.01.21 0h10.55c.069.011.14.011.21 0h15.86a.67.67 0 0 0 .2 0h17.53v7.37h-53.13Zm61.88-2.53a1.449 1.449 0 0 0 1.45-1.41v-1.4a1.448 1.448 0 0 0-1.43-1.45l-.02 4.26Z" fill="#FF595A"/>
  <path opacity=".45" d="M296.05 142.05v.29a.71.71 0 0 1-.5.67.67.67 0 0 1-.2 0h-15.86a.672.672 0 0 1-.21 0 .71.71 0 0 1-.5-.67v-.29a.71.71 0 0 1 .71-.71h15.86a.715.715 0 0 1 .7.71ZM269.27 142.05v.29a.708.708 0 0 1-.49.67c-.07.01-.14.01-.21 0h-6.76a.672.672 0 0 1-.21 0 .707.707 0 0 1-.5-.67v-.29a.71.71 0 0 1 .71-.71h6.76a.692.692 0 0 1 .499.209.707.707 0 0 1 .201.501Z" fill="#fff"/>
  <path d="M279.15 140.11h-7.18v.87h7.18v-.87ZM268.14 140.98h-9v-.88a1.055 1.055 0 0 1 .286-.735c.186-.2.442-.32.714-.335h6.13l1.87 1.95Z" fill="#FF595A"/>
  <path d="M267 140.51h-6.68v-.43a.532.532 0 0 1 .53-.53h5.22l.93.96Z" fill="#054752"/>
  <path d="M308.24 140.11h-7.18v.87h7.18v-.87Z" fill="#FF595A"/>
  <path d="M261.58 143.01h7.18c-.07.01-.14.01-.21 0h-6.76a.672.672 0 0 1-.21 0ZM279.27 143.01h16.27a.67.67 0 0 1-.2 0h-15.85a.677.677 0 0 1-.22 0Z" fill="#fff"/>
  <path d="M304.95 159.01v-2.6a2.4 2.4 0 0 1 2.41-2.41h2.19a2.41 2.41 0 0 1 2.41 2.41v2.6h-7.01Z" fill="#044752" style="mix-blend-mode:multiply" opacity=".45"/>
  <path d="M308.45 161a3.03 3.03 0 1 0-.001-6.061 3.03 3.03 0 0 0 .001 6.061Z" fill="#054752"/>
  <path opacity=".45" d="M308.45 160.19a2.22 2.22 0 1 0 0-4.44 2.22 2.22 0 0 0 0 4.44Z" fill="#044752"/>
  <path d="M308.45 160.19a2.22 2.22 0 1 0 0-4.44 2.22 2.22 0 0 0 0 4.44Z" fill="#044752" style="mix-blend-mode:multiply" opacity=".45"/>
  <path opacity=".86" d="M308.45 159.76a1.79 1.79 0 1 0 .001-3.579 1.79 1.79 0 0 0-.001 3.579Z" fill="#fff"/>
  <path d="M308.45 158.82a.85.85 0 1 0 0-1.7.85.85 0 0 0 0 1.7Z" fill="#044752"/>
  <path d="M285.01 156.8h-1.18v.49h1.18v-.49ZM299.64 156.8h-1.18v.49h1.18v-.49ZM322.02 156.8h-1.18v.49h1.18v-.49ZM323.97 155.82c-.002.36.038.719.12 1.07a1.214 1.214 0 0 0 1.08.34v-1.41h-1.2Z" fill="#054752"/>
  <path d="M323.27 145.01v1.33a1.44 1.44 0 0 1-1.43 1.43v-4.19a1.44 1.44 0 0 1 1.43 1.43Z" fill="#fff"/>
  <path d="M323.27 145.11v1.4a1.448 1.448 0 0 1-1.43 1.45v-4.26a1.451 1.451 0 0 1 1.43 1.41Z" fill="#FF595A"/>
  <path d="M258.01 152.77a5.255 5.255 0 0 1 2.2-2.32h8.47v1.28a5.337 5.337 0 0 0-2.941 3.165 5.33 5.33 0 0 0 .371 4.305l-.1.08h-1l-5.84-.77a1.89 1.89 0 0 1-.43-.13l-.4-.28a1.489 1.489 0 0 1-.33-.76v-4.57Z" fill="#054752"/>
  <path d="M275.4 159.31a11.68 11.68 0 0 0 1.33-5.66 26.47 26.47 0 0 0-.15-3.16h-3.85v1.18a5.363 5.363 0 0 0-4 .1v.34c-.05 2.56-.59 5.23-2.27 6.86l-.3.27v.08l9.24-.01Z" fill="#fff"/>
  <path d="M265.82 154.79a5.315 5.315 0 0 1 2.89-3v.34c-.05 2.56-.59 5.23-2.27 6.86l-.3.27a5.325 5.325 0 0 1-.32-4.47Z" fill="#36BCEE"/>
  <path d="M258.41 150.27h-.09a.46.46 0 0 0-.46.46v4.48c0 .254.206.46.46.46h.09a.46.46 0 0 0 .46-.46v-4.48a.46.46 0 0 0-.46-.46Z" fill="#054752"/>
  <path d="M267.1 159.01v-2.6a2.41 2.41 0 0 1 2.41-2.41h2.2a2.408 2.408 0 0 1 1.701.706 2.402 2.402 0 0 1 .699 1.704v2.6h-7.01Z" fill="#044752" style="mix-blend-mode:multiply" opacity=".45"/>
  <path d="M270.6 161a3.03 3.03 0 1 0-.001-6.061A3.03 3.03 0 0 0 270.6 161Z" fill="#054752"/>
  <path opacity=".45" d="M270.6 160.19a2.22 2.22 0 1 0 0-4.44 2.22 2.22 0 0 0 0 4.44Z" fill="#044752"/>
  <path d="M270.6 160.19a2.22 2.22 0 1 0 0-4.44 2.22 2.22 0 0 0 0 4.44Z" fill="#044752" style="mix-blend-mode:multiply" opacity=".45"/>
  <path opacity=".86" d="M270.6 159.76a1.79 1.79 0 1 0 .001-3.579 1.79 1.79 0 0 0-.001 3.579Z" fill="#fff"/>
  <path d="M270.6 158.82a.85.85 0 1 0-.001-1.701.85.85 0 0 0 .001 1.701Z" fill="#044752"/>
  <path d="M233.39 107.35v128.97M380.05 250.23H123.3" stroke="#AAB8C1" stroke-miterlimit="10"/>
  <path opacity=".18" d="M92.38 282.18c26.979 0 48.85-3.407 48.85-7.61s-21.871-7.61-48.85-7.61c-26.98 0-48.85 3.407-48.85 7.61s21.87 7.61 48.85 7.61Z" fill="#8E405F"/>
  <path d="M111.07 232.3c-.63-7-1.17-12.55-1.17-12.55l9.62-1.38s4.47 27 5.69 33.75c1.34 7.34 2.41 10.94 2.57 14.33l-4.62.61c-2.12-8.74-11.21-24.87-12.09-34.76Z" fill="#044752"/>
  <path d="M121.37 265.08a54.098 54.098 0 0 1 2.13 5.63c.19.87.7 3.28 1.1 5.32.445.137.924.109 1.35-.08a12.685 12.685 0 0 0-.08-1.35c1.11.59 1.65 1.73 4 2 4 .48 7.47-1.83 5.81-3-1.66-1.17-6.55-3.32-6.76-3.77-.12-.26-.41-3.06-.71-6.28-.44-4.65-4.71-1.73-6.84 1.52" fill="#063E44"/>
  <path d="M109.82 178.26c6.38 10.44 7.26 27 10 42.27 1.92 10.63-5 4.48-9.93-.78-13.13-14-16.74-26.57-17.63-32.3-.89-5.73 14.52-14.14 17.55-9.19M76.27 228.88c4.33-4.89 9.32-4.36 9.32-4.36l5.87 6.42s-15.61 14.57-19.72 19.37c-4.47 5.2-6.41 8.09-8.81 10.2l-3.72-2.93c5-6.62 7.29-17.62 17.07-28.69" fill="#044752"/>
  <path d="M59.41 255.13a44.565 44.565 0 0 1-2.67 4.81c-.51.64-1.93 2.41-3.16 3.89.225.405.576.725 1 .91a9.253 9.253 0 0 0 1-.84c.34 1.13-.12 2.18 1.34 4 2.44 3.09 6.65 4.25 6.34 2.39-.31-1.86-2.18-6.6-2-7 .11-.24 2-2.08 4.15-4.17 3.14-3-2.06-4.37-6-4" fill="#063E44"/>
  <path d="M98.37 181.35c3.7 11.66-2.42 33.27-6.1 48-1.07 4.24-7.43 3.75-7.43-3.45 0-26-8.49-28.37-5-43.49 1.29-5.66 16.81-6.59 18.57-1.06" fill="#044752"/>
  <path d="m90.46 154.63 15.25.58a6.654 6.654 0 0 0 5.09-2.11c.17-.15 1.25 11.84-26.53 7-.15 0-1.43-10.46-1.43-10.46s1.34 5 7.62 5" fill="#004753" style="mix-blend-mode:multiply" opacity=".5"/>
  <path d="M78.76 137.26c2-3 3.88-4.68 4.41-4.89 2.56-1.42 12.54-3.38 12.54-3.38s2.68-.21 3.63-.17v.47l4.53-.09s8.07 3.36 11.51 4.15l6.77 3.43s-6.76 9.59-9 17.49c-2.44 8.46.62 32.14 2.74 40.36-19.21 6.62-39.25-1.33-39.25-1.33 0-14.24 9.17-28.69 6.11-41.72l-3-7.88a4.591 4.591 0 0 1-.94-6.42" fill="#FF595A"/>
  <path d="m116.88 122.51-6.94 15.05s9.3 2.56 9.88 2.8c.07 0 2.88-5.34 6-15.16.25-.69-6.48-2.16-8.94-2.69Z" fill="#AE8157"/>
  <path d="M116.27 125.51s.42-5.16.87-7.27c.3-1.42 1.61-10.26.8-16.18a12.573 12.573 0 0 0-.39-1.4 7.997 7.997 0 0 1-.59-1.21 8.323 8.323 0 0 0-.61-1.6 1 1 0 0 1 1.43.56c.24.5.35 1 .66.92.31-.08.13-.52 0-1.48-.14-.78-.36-2-.44-3.06-.09-.66.7-.83.89-.42.3.72.55 2.57.74 2.87.06.11.2 0 .21-.07 0-.91-1.09-3-.19-3.27a.46.46 0 0 1 .31 0c.167.142.283.335.33.55 0 .08.05.15.07.23.23.82.42 1.64.6 2a.122.122 0 0 0 .043.062.121.121 0 0 0 .144 0 .122.122 0 0 0 .043-.062 4.122 4.122 0 0 0-.2-1.16c-.19-.83-.41-1.84 0-2 .41-.16.53.28.71.85.3 1 .49 2.35.56 2.4.07.05.21 0 .18-.09 0-.36-.14-1.3-.19-1.94 0-.33.36-.55.52-.4.303.892.54 1.804.71 2.73.41 1.64.09 3.45.44 5 .07.39 2 21 2 23" fill="#AE8157"/>
  <path d="M121.19 129.19a4.72 4.72 0 1 0 0-9.44 4.72 4.72 0 0 0 0 9.44Z" fill="#AE8157"/>
  <path d="M103.44 136.24c4.28-1.18 8.56-7.53 8.56-7.53l12.27 4.72s-5.61 9.3-8 13.28c-4.16 2.6-14-3.09-12.83-10.47Z" fill="#FF595A"/>
  <path d="M94.41 123.58s-4.31 7-14.37 4.33c-9-2.38-13.6-16-1.82-20.6 11.78-4.6 25.46 8.34 16.19 16.27Z" fill="#573A22"/>
  <path d="m103.36 119.19-8.8.64-.59 11.89 10.32.71-.93-13.24Z" fill="#A0734E"/>
  <path d="m95.27 128.88-7.36 1.84s-.81 2.89 11 2.89 8.5-3.18 8.5-3.18l-3.81-1.55h-8.33Z" fill="#A0734E"/>
  <path d="M95.53 122.27c.25.08.3 5.1 8.46 6.06l-.64-8.39-7.82 2.33Z" fill="#AE8157" style="mix-blend-mode:multiply" opacity=".65"/>
  <path d="M100.91 123.51h-3.56a5.75 5.75 0 0 1-5.74-5.73v-7.14c0-2.92.38-6.12 3.31-6.12l6 .8a5.338 5.338 0 0 1 5.32 5.32v7.55a5.331 5.331 0 0 1-5.33 5.32Z" fill="#AE8157"/>
  <path d="M93.96 112.51c.46-.6 2.73-.87 3.33 0h-3.33ZM100.79 112.88c.9-.87 3-.8 3.46 0h-3.46Z" fill="#000"/>
  <path d="M95.95 115.09a.58.58 0 1 0 0-1.16.58.58 0 0 0 0 1.16ZM102.57 115.08a.58.58 0 1 0 0-1.16.58.58 0 0 0 0 1.16Z" fill="#004753" style="mix-blend-mode:multiply"/>
  <path d="M101.46 115.51c.09 3.31-3.21 2.12-3.21 2.12l1.51-.65c0-.13-.19-4.06-.2-4-.01.06 1.83.01 1.9 2.53Z" fill="#AE8157" style="mix-blend-mode:multiply" opacity=".65"/>
  <path d="M96.88 118.78h4.94a2.6 2.6 0 0 1-2.44 1.63 2.786 2.786 0 0 1-2.5-1.63Z" fill="#fff"/>
  <path d="M91.13 112.94h-.02a1.11 1.11 0 0 0-1.11 1.11v1.55c0 .613.497 1.11 1.11 1.11h.02a1.11 1.11 0 0 0 1.11-1.11v-1.55a1.11 1.11 0 0 0-1.11-1.11ZM106.32 112.94h-.02a1.11 1.11 0 0 0-1.11 1.11v1.55c0 .613.497 1.11 1.11 1.11h.02a1.11 1.11 0 0 0 1.11-1.11v-1.55a1.11 1.11 0 0 0-1.11-1.11Z" fill="#AE8157"/>
  <path d="M93.27 104.93s5 7.41 13.17 7.62c1.83.05 1.53-13.94-13.17-7.62Z" fill="#573A22"/>
  <path d="M94.27 104.51s.36 6.39-.94 7.61c-1.3 1.22-1.84.74-1.84.74s-3.53-6.6 2.78-8.35Z" fill="#573A22"/>
  <path d="M91.75 114.22a1.157 1.157 0 0 0-1 .95.74.74 0 0 0 .91.78M106.18 114.3c.172.228.292.491.35.77a.61.61 0 0 1-.4.67" fill="#AE8157" style="mix-blend-mode:multiply"/>
  <path d="m96.84 146.88-16.12-13.15s-1.55 8.87-1.92 9.3c0 .06 8.57 10.59 15 10.91.66.05 1.91-5.16 3.04-7.06Z" fill="#AE8157"/>
  <path d="M85.71 131.31c-4.13.74-8.73 3.07-8.38 9.5.44 8.26 8.55 12.25 8.55 12.25l5-13-5.17-8.75Z" fill="#FF595A"/>
  <path d="M91.12 150.15s.49-5.15 1-7.26c.32-1.42 1.74-10.24 1-16.17a11.652 11.652 0 0 0-.38-1.41 7.566 7.566 0 0 1-.56-1.21 8.398 8.398 0 0 0-.6-1.6 1.01 1.01 0 0 1 .843-.045.998.998 0 0 1 .577.615c.24.51.34 1 .66.93.32-.07.13-.52 0-1.48-.13-.79-.34-2-.41-3.07-.08-.66.72-.81.9-.41.29.73.52 2.58.71 2.88 0 .12.2 0 .21-.06 0-.92-1-3-.15-3.28a.464.464 0 0 1 .31.05c.164.144.276.337.32.55 0 .08 0 .16.07.23.155.696.345 1.383.57 2.06a.132.132 0 0 0 .12.08.132.132 0 0 0 .12-.08 4.183 4.183 0 0 0-.2-1.17c-.18-.84-.38-1.84 0-2 .38-.16.53.28.7.86.29 1 .46 2.35.53 2.4.07.05.21 0 .18-.09 0-.36-.13-1.29-.17-1.94 0-.33.37-.54.53-.39.286.894.513 1.806.68 2.73.363 2.634.447 5.299.25 7.95 0 2.81 0 15.2-.3 20.07" fill="#2D1E11" style="mix-blend-mode:multiply" opacity=".19"/>
  <path d="M88.91 150.15s.49-5.15 1-7.26c.31-1.42 1.74-10.24 1-16.17a13.821 13.821 0 0 0-.38-1.41 7.588 7.588 0 0 1-.57-1.21 8.459 8.459 0 0 0-.59-1.6 1.01 1.01 0 0 1 .843-.045.998.998 0 0 1 .577.615c.24.51.34 1 .65.93.31-.07.13-.52 0-1.48-.12-.79-.33-2-.4-3.07-.08-.66.72-.81.9-.41.29.73.52 2.58.7 2.88.06.12.21 0 .22-.06 0-.92-1.06-3-.16-3.28a.481.481 0 0 1 .32.05c.164.144.276.337.32.55l.06.23c.22.82.41 1.65.58 2.06a.117.117 0 0 0 .043.062c.021.015.046.024.072.024.026 0 .051-.009.072-.024a.118.118 0 0 0 .043-.062 4.403 4.403 0 0 0-.19-1.17c-.18-.84-.38-1.84 0-2 .38-.16.54.28.7.86.3 1 .47 2.35.53 2.4.06.05.21 0 .19-.09 0-.36-.13-1.29-.17-1.94 0-.33.37-.54.53-.39.287.893.51 1.806.67 2.73.39 1.66.06 3.46.39 5 .06.39 1.77 21 1.75 23.07" fill="#AE8157"/>
  <path d="M93.85 153.94a4.72 4.72 0 1 0 0-9.44 4.72 4.72 0 0 0 0 9.44Z" fill="#AE8157"/>
  <path d="M70.37 269.02a7.509 7.509 0 0 1-7.38 7.49l-24 .25a7.315 7.315 0 0 1-5.224-2.105 7.308 7.308 0 0 1-2.176-5.195v-37.39a7.47 7.47 0 0 1 7.38-7.46l24-.27a7.309 7.309 0 0 1 7.39 7.29l.01 37.39ZM41.7 283.05h-.14a2.997 2.997 0 0 1-2.772-1.852 2.999 2.999 0 1 1 5.772-1.148 2.998 2.998 0 0 1-2.86 3Zm-.17-3.68a.728.728 0 0 0-.69.72.72.72 0 1 0 .72-.72h-.03ZM64.35 283.07h-.15a3.003 3.003 0 0 1-2.482-2.955 3.002 3.002 0 0 1 2.482-2.955 2.931 2.931 0 0 1 2.09.86 3.001 3.001 0 0 1-2 5.05h.06Zm-.18-3.67a.713.713 0 0 0-.469 1.219.72.72 0 0 0 1.23-.509.721.721 0 0 0-.72-.71h-.04Z" fill="#004753"/>
  <path d="m70.455 229.473-38.719 2.185.084 1.487 38.719-2.185-.084-1.487Z" fill="#fff"/>
  <path d="M31.55 269.3a7.3 7.3 0 0 0 7.4 7.3l24-.26a7.477 7.477 0 0 0 7.38-7.47l-.1-4.29-38.66-3.27-.02 7.99Z" fill="#A33E60" style="mix-blend-mode:multiply" opacity=".2"/>
  <path opacity=".18" d="M50.85 285.37c12.034 0 21.79-1.724 21.79-3.85 0-2.126-9.756-3.85-21.79-3.85-12.034 0-21.79 1.724-21.79 3.85 0 2.126 9.756 3.85 21.79 3.85Z" fill="#8E405F"/>
  <path d="M56.88 200.95H45.41a1.73 1.73 0 0 0-1.73 1.73v23.79c0 .955.775 1.73 1.73 1.73h11.47a1.73 1.73 0 0 0 1.73-1.73v-23.79a1.73 1.73 0 0 0-1.73-1.73Z" stroke="#004753" stroke-width="2" stroke-miterlimit="10"/>
  <path d="M241.69 241.16c0 .5 2.76 17 4.82 17.35 2.06.35 18.93.22 22.08.22 3 0 20 .08 22.07-.22 2.24-.33 4.83-16.83 4.83-17.35 0-1-21-2.47-27.25-2.47s-26.55 1.48-26.55 2.47Z" fill="#CFDFE5"/>
  <path d="M243.06 241.16c0 .88 20 1.58 25.53 1.58 5.53 0 25.52-.7 25.52-1.58 0-.88-20-1.57-25.52-1.57s-25.53.7-25.53 1.57Z" fill="#AAB8C1"/>
  <path d="M273.88 218.09s-8-.8-5.39 22.21" stroke="#054752" stroke-width="2" stroke-miterlimit="10" stroke-linecap="round"/>
  <path d="M268.27 232.42c-1-3.1-.29-4.46-7.1-8M268.2 235.84s4.53-7.14 8.33-9.5" stroke="#044752" stroke-width="1.53" stroke-miterlimit="10"/>
  <path d="M275.5 226.89s-1.57 5.62 6.32 8c7.89 2.38 12.08.86 12.08.86a17.752 17.752 0 0 0-8.72-9.94c-6.93-3.6-9.68 1.06-9.68 1.06" fill="#7FBF55"/>
  <path d="M274.96 223.98a6.998 6.998 0 0 1 7.19-5c6 0 8.11 2.39 8.11 2.39a17.568 17.568 0 0 1-9.48 6c-5.86 1.2-5.82-3.36-5.82-3.36" fill="#9AED66"/>
  <path d="M265.85 229.51s1.42 5.66-6.52 7.87c-7.94 2.21-12.1.56-12.1.56a17.768 17.768 0 0 1 9-9.72c7-3.43 9.66 1.29 9.66 1.29" fill="#7FBF55"/>
  <path d="M261.18 220.29s-5.7-1.24-4.15-9.34c1.55-8.1 4.88-11.09 4.88-11.09a17.778 17.778 0 0 1 4.73 12.35c-.05 7.81-5.46 8.08-5.46 8.08Z" fill="#9AED66"/>
  <path d="M262.54 224.25s-3.78 4.44-10.18-.76-7.47-9.54-7.47-9.54a17.81 17.81 0 0 1 13.12 1.67c6.86 3.74 4.53 8.63 4.53 8.63Z" fill="#7FBF55"/>
  <path d="M273.62 218.68s-4.31-3.93 1.1-10.16 9.78-7.14 9.78-7.14a17.731 17.731 0 0 1-2.11 13c-4 6.73-8.77 4.25-8.77 4.25" fill="#C3F3A6"/>
  <path d="M331.16 241.91c0 .49-2.71 16.64-4.72 17a37.805 37.805 0 0 1-6.4.22 42.097 42.097 0 0 1-6.4-.22c-2.18-.32-4.71-16.44-4.71-17 0-1 5.31-2.42 11.45-2.42s10.78 1.45 10.78 2.42Z" fill="#CFDFE5"/>
  <path d="M329.81 241.91c0 .85-4.37 1.54-9.77 1.54-5.4 0-9.76-.69-9.76-1.54 0-.85 4.37-1.54 9.76-1.54s9.77.69 9.77 1.54Z" fill="#AAB8C1"/>
  <path d="M314.87 206.95s7.82-.78 5.26 21.7a101.441 101.441 0 0 0-.24 13" stroke="#054752" stroke-width="2" stroke-miterlimit="10" stroke-linecap="round"/>
  <path d="M320.38 220.95c1-3 .29-4.36 6.94-7.78M320.42 224.29s-4.43-7-8.14-9.28" stroke="#044752" stroke-width="1.08" stroke-miterlimit="10"/>
  <path d="M313.27 215.51s1.53 5.49-6.18 7.84c-7.71 2.35-11.81.83-11.81.83a17.402 17.402 0 0 1 8.52-9.71c6.78-3.52 9.47 1 9.47 1" fill="#7FBF55"/>
  <path d="M313.82 212.71a6.843 6.843 0 0 0-7-4.9c-5.87 0-7.92 2.33-7.92 2.33a17.215 17.215 0 0 0 9.27 5.85c5.73 1.17 5.69-3.28 5.69-3.28" fill="#9AED66"/>
  <path d="M322.72 218.12s-1.4 5.53 6.37 7.69 11.82.55 11.82.55a17.342 17.342 0 0 0-8.75-9.51c-6.86-3.35-9.44 1.27-9.44 1.27Z" fill="#7FBF55"/>
  <path d="M327.27 209.1s5.57-1.21 4.05-9.13c-1.52-7.92-4.76-10.83-4.76-10.83a17.343 17.343 0 0 0-4.62 12.06c.05 7.63 5.33 7.9 5.33 7.9Z" fill="#9AED66"/>
  <path d="M325.95 212.97s3.7 4.33 9.95-.75c6.25-5.08 7.3-9.32 7.3-9.32a17.35 17.35 0 0 0-12.82 1.61c-6.7 3.65-4.43 8.43-4.43 8.43" fill="#7FBF55"/>
  <path d="M315.12 207.51s4.21-3.84-1.07-9.93-9.56-7-9.56-7a17.367 17.367 0 0 0 2.06 12.75c3.87 6.58 8.57 4.15 8.57 4.15" fill="#C3F3A6"/>
</svg>
