<svg xmlns="http://www.w3.org/2000/svg" xmlns:xlink="http://www.w3.org/1999/xlink" viewBox="0 0 460 320"><defs><style>.cls-1,.cls-35{fill:none;}.cls-2{fill:#054752;}.cls-3,.cls-43,.cls-63,.cls-66{fill:#fff;}.cls-4{isolation:isolate;}.cls-5{clip-path:url(#clip-path);}.cls-6{fill:#669198;}.cls-7{fill:#2ed1ff;opacity:0.33;}.cls-8{clip-path:url(#clip-path-2);}.cls-9{fill:#004753;}.cls-10{fill:#aab8c1;}.cls-11{fill:#8e415f;opacity:0.18;}.cls-11,.cls-13,.cls-18,.cls-23,.cls-24,.cls-34,.cls-39,.cls-49,.cls-51,.cls-52,.cls-53,.cls-54,.cls-64{mix-blend-mode:multiply;}.cls-12{fill:#f9decc;}.cls-13,.cls-34,.cls-37{opacity:0.25;}.cls-14,.cls-29,.cls-34,.cls-39,.cls-46{fill:#8f4261;}.cls-15{fill:#1c1c1c;}.cls-16{clip-path:url(#clip-path-3);}.cls-17{fill:#9aed66;}.cls-18,.cls-23,.cls-31,.cls-36,.cls-46{opacity:0.1;}.cls-19,.cls-23,.cls-36{fill:#5f003c;}.cls-20{fill:#f0880f;}.cls-21,.cls-29{opacity:0.28;}.cls-22,.cls-24{fill:#005156;}.cls-25{fill:#034753;}.cls-26{fill:#cfcdce;}.cls-27{fill:#f2f1f2;}.cls-28{fill:#b4b3b3;}.cls-30{fill:#d09c60;}.cls-32{fill:#014753;}.cls-33{fill:#e8baae;}.cls-35{stroke:#034753;stroke-width:0.93px;}.cls-35,.cls-43{stroke-miterlimit:10;}.cls-37{fill:#1a5a6c;}.cls-38{fill:#032428;}.cls-39{opacity:0.27;}.cls-40{fill:#f8cec4;}.cls-41{clip-path:url(#clip-path-4);}.cls-42{fill:#fbceb4;}.cls-43{stroke:#f8cec4;stroke-width:0.31px;}.cls-44{fill:#042528;}.cls-45{clip-path:url(#clip-path-5);}.cls-47{fill:#af865e;}.cls-48,.cls-52{fill:#facca3;}.cls-50,.cls-54{fill:#cb9d6e;}.cls-52{opacity:0.67;}.cls-53{fill:#ecd6ae;}.cls-55{fill:url(#Horizontal_line_3);}.cls-56,.cls-59,.cls-60{opacity:0.2;}.cls-57,.cls-59{fill:#8f4160;}.cls-58{fill:#e9ca91;}.cls-60{fill:#914260;}.cls-61{fill:#ff595a;}.cls-62{fill:#032327;}.cls-63,.cls-64,.cls-65{opacity:0.45;}.cls-64,.cls-65,.cls-67{fill:#044752;}.cls-66{opacity:0.86;}.cls-68{fill:#36bcee;}</style><clipPath id="clip-path"><rect class="cls-1" x="521.91" width="460" height="320"/></clipPath><clipPath id="clip-path-2"><rect class="cls-1" width="460" height="320"/></clipPath><clipPath id="clip-path-3"><path class="cls-1" d="M260.07,213.75c-.17-.26-3.56-10.88.24-13.29,2.66-1.69,8.69-4.58,8.69-4.58s8.34-.34,11.37,2.09,2.76,7.78,5.19,9.08,3.38.6,3.38.6l-.7,6.16-4.67.65.12,5.23-22,.35C261.91,220,260.07,213.75,260.07,213.75Z"/></clipPath><clipPath id="clip-path-4"><path class="cls-1" d="M191.61,214l-.8,4-31,.87-.31.31,1.26-18.64s1.83-6.77,6.27-7.82a16,16,0,0,1,3.34-.26c.92,0,1.87.05,2.76.12,1.08.07,2.06.17,2.77.24L177,193a10.12,10.12,0,0,1,5.55,3,13.47,13.47,0,0,1,2.11,2.69C188,204.22,191.61,214,191.61,214Z"/></clipPath><clipPath id="clip-path-5"><path class="cls-1" d="M346.44,218.05h-8.06l-19.46,1.14-1.15.13s-1.81-2.42-4.19-5.16c-2.66-3.08-5.68-14.39-1.65-18.78.21-.22.35-.48.54-.71a7.64,7.64,0,0,1,1.62-1.49h0a5.16,5.16,0,0,1,.68-.42l.29-.14a2,2,0,0,0,.31-.12l.39-.13a13.87,13.87,0,0,1,2.07-.47c.43-.08.87-.14,1.33-.2.28,0,.57-.07.86-.09l1.46-.12.87-.06.37,0h0c1.11-.07,2.08-.09,2.83-.1l.15.08a1.83,1.83,0,0,1,.47,0,27.63,27.63,0,0,1,5.94,2.85,4.63,4.63,0,0,1,1.12,1.06,13.22,13.22,0,0,1,.65,1.37c.24.44,1.7,4,2.43,5.84,1.17,2.91-.21,3.95.07,6.28,0,.18-.71,0-.51.2,1.47,1.47.45,3.91.58,5.08.09.81.14,1.29.14,1.29l2,.54Z"/></clipPath><pattern id="Horizontal_line_3" data-name="Horizontal line 3" width="50" height="50" patternTransform="translate(560.24 -774.82) scale(0.61)" patternUnits="userSpaceOnUse" viewBox="0 0 50 50"><rect class="cls-1" width="50" height="50"/><rect class="cls-2" width="50" height="6.27"/><rect class="cls-3" y="6.27" width="50" height="6.27"/><rect class="cls-2" y="12.53" width="50" height="6.27"/><rect class="cls-3" y="18.8" width="50" height="6.27"/><rect class="cls-2" y="25.06" width="50" height="6.27"/><rect class="cls-3" y="31.33" width="50" height="6.27"/><rect class="cls-2" y="37.59" width="50" height="6.27"/><rect class="cls-3" y="43.73" width="50" height="6.27"/></pattern></defs><g class="cls-4"><g id="Calque_1" data-name="Calque 1"><g class="cls-5"><polygon class="cls-6" points="420.15 250.16 497.42 131.53 544.04 193.58 624.24 71.15 719.77 250.16 420.15 250.16"/></g><rect class="cls-3" width="460" height="320"/><rect class="cls-7" width="460" height="236.85"/><g class="cls-8"><polygon class="cls-6" points="-101.76 250.16 -24.49 131.53 22.13 193.58 102.33 71.15 197.86 250.16 -101.76 250.16"/><path class="cls-6" d="M217.72,250.65s33.06-42.05,68.44-44.13,53.63,39.75,81.84,39.75S492.85,85.6,568.45,85.6s124.38,93.45,147.73,115.51S754.1,154.9,792,154.9s95.25,95.75,95.25,95.75Z"/><line class="cls-2" x1="413.26" y1="172.25" x2="413.26" y2="250.98"/><path class="cls-9" d="M414.28,172.25c-.11,3.28-.17,6.56-.21,9.84s-.13,6.56-.13,9.84c-.05,6.56,0,13.12,0,19.68s.12,13.12.25,19.69c.08,3.28.06,6.56.22,9.84a44.74,44.74,0,0,0,1.53,9.84h-5.36a44.13,44.13,0,0,0,1.52-9.84c.17-3.28.15-6.56.23-9.84.13-6.57.19-13.13.25-19.69s.05-13.12,0-19.68c0-3.28-.09-6.56-.13-9.84s-.1-6.56-.21-9.84Z"/><path class="cls-2" d="M401.75,184.73c0,15.41,0,29.25,10.59,29.25,10.92,0,12-13.84,10.92-29.25-1.08-16.24-5.45-34-10.92-34S401.75,168.47,401.75,184.73Z"/><line class="cls-2" x1="226.86" y1="158.31" x2="226.86" y2="252.51"/><path class="cls-9" d="M228.08,158.31c-.47,15.7-.47,31.4-.4,47.1.07,7.85.14,15.7.3,23.55l.1,5.88c0,2,0,3.93.17,5.89a53.41,53.41,0,0,0,1.82,11.78h-6.41a53.41,53.41,0,0,0,1.82-11.78c.12-2,.13-3.92.17-5.89l.1-5.88c.16-7.85.23-15.7.3-23.55.07-15.7.07-31.4-.4-47.1Z"/><path class="cls-2" d="M213.09,173.24c0,18.45,0,35,12.67,35,13.07,0,14.3-16.55,13.07-35-1.29-19.43-6.52-40.67-13.07-40.67S213.09,153.79,213.09,173.24Z"/><path class="cls-2" d="M453,139.32c-.34,9.37-.46,18.74-.54,28.11s-.05,18.74,0,28.11.19,18.74.4,28.1l.14,7c.05,2.34.06,4.69.22,7a57.14,57.14,0,0,0,2.47,14.05H447a56.65,56.65,0,0,0,2.46-14.05c.16-2.34.18-4.69.23-7l.14-7c.21-9.36.3-18.73.4-28.1s.08-18.74,0-28.11-.21-18.74-.54-28.11Z"/><path class="cls-2" d="M430.16,157.14c0,22,0,41.78,19.46,41.78,20.07,0,22-19.76,20.07-41.78-2-23.19-10-48.54-20.07-48.54S430.16,133.92,430.16,157.14Z"/><path class="cls-3" d="M141,84.44v-.1c0-3-3.18-5.5-7.11-5.5s-7.09,2.45-7.1,5.48a5.06,5.06,0,0,0-.68,0c-2.16,0-3.91,1.36-3.91,3v.11h0c-1.76,0-3.19,1.1-3.19,2.47,0,1.19-13.83,2.19-12.38,2.42v0H159c3,0-15.24-1.9-15.24-4.25A4.19,4.19,0,0,0,141,84.44Z"/><path class="cls-3" d="M255.22,59v-.16c0-4.75-5-8.59-11.09-8.59s-11.07,3.82-11.1,8.55a9,9,0,0,0-1.05-.07c-3.38,0-6.11,2.12-6.11,4.73v.17h-.07c-2.76,0-5,1.73-5,3.86,0,1.86-21.58,3.41-19.32,3.78v.08h81.74c4.73,0-23.79-3-23.79-6.63C259.44,62.32,257.74,60.19,255.22,59Z"/><polygon class="cls-10" points="347.22 123.36 348.41 250.99 343.78 250.99 344.97 123.36 347.22 123.36"/><path class="cls-10" d="M344.88,124.35c-.56,1-1.17,1.85-1.78,2.74s-1.25,1.77-1.89,2.63c-1.29,1.74-2.62,3.42-4,5.08-2.73,3.31-5.61,6.48-8.58,9.56s-6.07,6-9.31,8.88c-1.62,1.41-3.28,2.79-5,4.12l-1.29,1c-.44.32-.87.65-1.32,1-.88.63-1.78,1.26-2.72,1.84a.32.32,0,0,1-.44-.1.33.33,0,0,1,0-.32c.53-1,1.11-1.9,1.7-2.82.29-.46.59-.91.89-1.37l.92-1.34c1.23-1.78,2.52-3.51,3.84-5.2,2.65-3.4,5.45-6.64,8.36-9.78s5.93-6.18,9.09-9.09c1.58-1.45,3.19-2.88,4.85-4.26.83-.69,1.67-1.37,2.52-2s1.73-1.31,2.64-1.93a1.07,1.07,0,0,1,1.51,1.43Z"/><path class="cls-10" d="M343.82,118.78c-.61-.92-1.16-1.85-1.69-2.79s-1.05-1.9-1.55-2.85c-1-1.91-1.94-3.85-2.84-5.8-1.79-3.9-3.4-7.86-4.88-11.88s-2.82-8.1-4-12.25c-.56-2.07-1.09-4.16-1.55-6.28L327,75.34c-.1-.54-.21-1.07-.3-1.61-.19-1.07-.36-2.15-.48-3.25a.32.32,0,0,1,.28-.35.31.31,0,0,1,.29.13c.65.9,1.24,1.82,1.81,2.75.29.46.56.93.84,1.4l.82,1.41c1.06,1.88,2.06,3.8,3,5.73,1.91,3.85,3.61,7.79,5.17,11.77s3,8,4.24,12.13c.62,2.06,1.21,4.13,1.73,6.22.26,1,.51,2.1.73,3.16s.43,2.12.59,3.21a1.06,1.06,0,0,1-1.94.74Z"/><path class="cls-10" d="M349,120.81c1.09-.13,2.17-.22,3.25-.28s2.16-.1,3.24-.13q3.22-.08,6.45,0c4.29.11,8.56.42,12.82.87s8.51,1.06,12.73,1.87c2.11.41,4.22.86,6.32,1.39l1.57.41c.53.15,1.05.29,1.57.45,1.05.3,2.1.63,3.13,1a.31.31,0,0,1,.19.41.32.32,0,0,1-.24.2c-1.1.18-2.18.3-3.27.4-.54.06-1.08.09-1.62.14l-1.63.1c-2.16.13-4.32.17-6.47.17-4.3,0-8.58-.2-12.85-.57s-8.52-.86-12.76-1.56c-2.11-.35-4.23-.74-6.33-1.2-1.06-.23-2.11-.47-3.16-.74s-2.1-.55-3.14-.89a1.07,1.07,0,0,1-.69-1.34A1.08,1.08,0,0,1,349,120.81Z"/><circle class="cls-10" cx="346.1" cy="121.23" r="2.96"/></g><rect class="cls-3" x="44.7" y="165.89" width="378.44" height="70.26"/><polygon class="cls-11" points="36.86 273.35 424.16 272.59 406.03 268.81 63.87 268.22 36.86 273.35"/><path class="cls-12" d="M303,209.14c.11-.1,0-.32-.26-.27-.45.08-1.11.23-1.36.29-.08,0-.08-.06-.06-.1s1-.29,1.71-.56c.41-.16.71-.3.63-.5-.12-.35-2.13.52-2.21.42s-.05-.1,0-.14c.3-.15.89-.33,1.47-.55s.63-.3.61-.49c-.15-.52-1.65.34-2.3.4-.07,0-.11-.07,0-.12s1.52-.45,2-.7c.3-.15.21-.61-.24-.5-.76.14-1.61.39-2.17.54s-1,.25-1,.14.31-.29.67-.47.61-.58.46-.92a6.78,6.78,0,0,1-1.15.52,7.76,7.76,0,0,0-.87.46c-.64.28-3.87.61-4.11.73,0,0,.74,3,.89,3.73,0,0,1.48-.3,1.93-.44,1.1-.34,2.23-.4,3.4-.79C301.71,209.6,302.6,209.36,303,209.14Z"/><path class="cls-12" d="M281.46,208.31l.63,5.05s.75.33,4.74-.23c7.25-1,10.5-2.54,10.5-2.54l-.54-3.41Z"/><g class="cls-13"><path class="cls-14" d="M303,209.14c.11-.1,0-.32-.26-.27-.45.08-1.11.23-1.36.29-.08,0-.08-.06-.06-.1s1-.29,1.71-.56c.41-.16.71-.3.63-.5-.12-.35-2.13.52-2.21.42s-.05-.1,0-.14c.3-.15.89-.33,1.47-.55s.63-.3.61-.49c-.15-.52-1.65.34-2.3.4-.07,0-.11-.07,0-.12s1.52-.45,2-.7c.3-.15.21-.61-.24-.5-.76.14-1.61.39-2.17.54s-1,.25-1,.14.31-.29.67-.47.61-.58.46-.92a6.78,6.78,0,0,1-1.15.52,7.76,7.76,0,0,0-.87.46c-.64.28-3.87.61-4.11.73,0,0,.74,3,.89,3.73,0,0,1.48-.3,1.93-.44,1.1-.34,2.23-.4,3.4-.79C301.71,209.6,302.6,209.36,303,209.14Z"/><path class="cls-14" d="M281.46,208.31l.63,5.05s.75.33,4.74-.23c7.25-1,10.5-2.54,10.5-2.54l-.54-3.41Z"/></g><path class="cls-15" d="M297.34,211.76a1.41,1.41,0,0,0,1.55,1.69l2.47-1.07A2.57,2.57,0,0,0,303,210l1.16-8.77c.17-1.27-.32-1.52-1.72-1.16l-1.73.66c-1.53.54-2,1-2.21,2.3Z"/><g class="cls-13"><path class="cls-14" d="M276.33,212.9s-3,2.56-7.67,0-1.27-9.37-1.27-9.37Z"/></g><path class="cls-3" d="M283.76,214.46h-.1l.11,5.23-1.51,0-20.44.32c.17,0-1.67-6.29-1.67-6.29-.17-.25-3.56-10.88.25-13.28.69-.45,1.62-1,2.62-1.52,1.24-.66,2.57-1.34,3.67-1.89,1.38-.69,2.39-1.17,2.39-1.17h.1a36.76,36.76,0,0,1,4.91.18,23.32,23.32,0,0,1,2.62.39,9.41,9.41,0,0,1,3.74,1.51,1,1,0,0,1,.15.14h0c2.86,2.48,2.64,7.67,5,8.94s3.38.61,3.38.61l-.69,6.15Z"/><g class="cls-16"><path class="cls-17" d="M260,199.63c-.86,0-1.39,0-1.5,0l0-1.18c.16,0,16.14.47,26-4.48L285,195C276.58,199.24,264.22,199.63,260,199.63Z"/><path class="cls-17" d="M257.61,204.09l-.06-1.18.79,0c6.34-.31,19.54-1,28.55-5.57l.53,1c-9.23,4.74-22.6,5.39-29,5.71Z"/><path class="cls-17" d="M256.72,208.57l-.06-1.18c9.39-.47,23-1.69,32.62-6.75l.55,1C280,206.85,266.22,208.09,256.72,208.57Z"/><path class="cls-17" d="M255.83,213l-.06-1.17c16.47-.83,27.21-3.19,35.91-7.88l.56,1C283.38,209.8,272.49,212.2,255.83,213Z"/><path class="cls-17" d="M254.94,217.52l-.06-1.17c23.38-1.18,31.58-4.78,39.2-9l.57,1C286.9,212.67,278.57,216.33,254.94,217.52Z"/><path class="cls-17" d="M254.05,222l-.06-1.17c27.39-1.39,34.51-5.52,41.4-9.52l1.09-.63.58,1-1.08.63C289,216.4,281.72,220.6,254.05,222Z"/><path class="cls-17" d="M253.16,226.48l-.06-1.17c30.7-1.55,37.82-6.17,43.54-9.87.75-.49,1.48-1,2.23-1.41l.61,1c-.75.44-1.46.91-2.2,1.38C291.44,220.21,284.17,224.91,253.16,226.48Z"/></g><g class="cls-18"><path class="cls-19" d="M267.21,204.66s3.5,8.76,9.79,8.63c5.15-.11,11.78-.63,11.78-.63l.11-2.84-12.22-.2Z"/></g><path class="cls-12" d="M302.58,212c.13-.14,0-.38-.31-.31-.54.14-1.3.37-1.6.46-.09,0-.1-.07-.07-.12s1.17-.42,2-.78c.48-.22.83-.41.72-.65s-2.49.79-2.59.68-.06-.12,0-.17c.34-.2,1-.46,1.7-.75s.72-.4.69-.64c-.21-.59-1.93.53-2.69.67-.08,0-.14-.09,0-.15s1.76-.65,2.36-1c.35-.2.22-.74-.31-.57-.89.24-1.88.58-2.53.81-.8.26-1.16.37-1.21.24s.35-.35.77-.6.69-.73.49-1.11a9.28,9.28,0,0,1-1.33.69,9.11,9.11,0,0,0-1,.61c-.75.38-4.54,1-4.82,1.18,0,0,1.05,3.45,1.27,4.29,0,0,1.73-.46,2.25-.66,1.28-.5,2.61-.65,4-1.2C301.05,212.68,302.09,212.32,302.58,212Z"/><path class="cls-12" d="M277.18,213.1l.91,5.51s.91.32,5.58-.64c8.51-1.75,12.26-3.79,12.26-3.79l-1.09-4.11Z"/><path class="cls-20" d="M275.49,178c3.22-.47,6.94-1.28,6.94,2,0,6.05-2,9.21-5.24,9.67a5.88,5.88,0,0,1-1.7-11.64Z"/><g class="cls-21"><path class="cls-14" d="M281.16,183.33s-1.05-.15-1.13,2.17c0,1.41.52,2.27,1.31,2.05S283.06,183.26,281.16,183.33Z"/></g><path class="cls-2" d="M281.05,187.73h0a.94.94,0,0,1-.68-.31,2.63,2.63,0,0,1-.53-1.92c.08-2.15,1-2.32,1.24-2.32h.08c.68,0,1.11.47,1.23,1.32.16,1.17-.34,3-1.06,3.19A.86.86,0,0,1,281.05,187.73Zm0-4.26c-.15,0-.88.1-.94,2a2.39,2.39,0,0,0,.44,1.71.67.67,0,0,0,.47.22h0a.76.76,0,0,0,.21,0c.45-.13,1-1.72.84-2.87-.07-.49-.29-1.07-.94-1.07h-.08Z"/><path class="cls-12" d="M280.06,187.28a6.15,6.15,0,0,1-.12,1.21c0,.22-.06.48-.11.79,0,0,0,.05,0,.08a3,3,0,0,1-1.47,2.24h0a8,8,0,0,1-1.56.57l-.07,0-2.88,1.09-.13.05-2.11.8,1.21-8,1.61-2.85c3.56-4.07,6.44-1.17,6.44-1.17l.61,4.64Z"/><path class="cls-3" d="M280,188.77c-.06.3-.13.64-.22,1a.56.56,0,0,0,0,.12c-.48-.05-1.84-.27-2.06-1.26C277.63,188.65,279.29,188.74,280,188.77Z"/><path class="cls-22" d="M278.53,185.24a.46.46,0,0,0,.31.13.93.93,0,0,0,.82-.33.65.65,0,0,0-.47-.12C278.88,184.94,278.6,185,278.53,185.24Z"/><path class="cls-12" d="M277,189.4c-.11.76-.17,1.55-.21,2.31h0c0,.15,0,.3,0,.45v.05c0,.89-.07,1.72-.08,2.42s0,1.49,0,1.83v.13a1,1,0,0,1,0,.13s0,.07-.84.52a6.37,6.37,0,0,1-.77.36,7.47,7.47,0,0,1-3.53.2,6,6,0,0,1-2.67-.89l.27-1a45.86,45.86,0,0,1,3.86-9.83,6.57,6.57,0,0,1,1.54.2C275.81,186.58,277.29,187.37,277,189.4Z"/><g class="cls-18"><path class="cls-19" d="M282.46,180l-8.83,2.84-1.2,3.15.66.25s7.68-2,8.55-3Z"/></g><g class="cls-21"><path class="cls-14" d="M279.74,186.73c-.2.2.33.55.33.55l1.38-.54S280.17,186.3,279.74,186.73Z"/></g><path class="cls-2" d="M279,187.73h0a.94.94,0,0,1-.69-.31,2.69,2.69,0,0,1-.53-1.92c.08-2.15,1-2.32,1.24-2.32h.08c.68,0,1.11.47,1.23,1.32.16,1.17-.34,3-1.06,3.19A.84.84,0,0,1,279,187.73Zm0-4.26c-.14,0-.87.1-.94,2a2.39,2.39,0,0,0,.44,1.71.67.67,0,0,0,.48.22h0l.2,0c.45-.13,1-1.72.84-2.87-.07-.49-.29-1.07-.94-1.07H279Z"/><path class="cls-20" d="M275.62,176.14a.26.26,0,0,1,0,.15,5.47,5.47,0,0,1-.31,1.55c-.07.17-.13.34-.21.5a4.16,4.16,0,0,1-.24.47,5.77,5.77,0,0,1-1.36,1.55.44.44,0,0,1-.11.09,5.58,5.58,0,0,1-1.84.92,6.11,6.11,0,0,1-.85.18l-.37,0h-.62a5.91,5.91,0,0,1-1.2-.21h0a5.35,5.35,0,0,1-1.72-.82,5.61,5.61,0,0,1-2.37-4.48c0-.14,0-.28,0-.42v0a5.16,5.16,0,0,1,.13-.89,5.63,5.63,0,0,1,1.11-2.29,5.3,5.3,0,0,1,1.27-1.14,5.6,5.6,0,0,1,8.68,4.85Z"/><path class="cls-20" d="M276.35,182.41s0,.31-.09.75c-.15,1.08-.43,3-.52,3.28a3.84,3.84,0,0,1-3.32,2.78,6.4,6.4,0,0,1-.76,0,4,4,0,0,1-.83-.18,3.07,3.07,0,0,1-.5-.2,3.86,3.86,0,0,1-2.12-3.08v0a10,10,0,0,1-.09-2.83,6.12,6.12,0,0,1,.4-1.52h0a5.89,5.89,0,0,1,.94-1.57l0,0a3.2,3.2,0,0,1,1.48,0l.12,0c.48.07,1,.17,1.56.3l.87.23C274.94,180.82,276.24,181.5,276.35,182.41Z"/><path class="cls-20" d="M282.4,179a2.7,2.7,0,0,1-2,3.23L274,183.69a2.7,2.7,0,0,1-3.23-2h0a2.7,2.7,0,0,1,2-3.23l6.42-1.47a2.7,2.7,0,0,1,3.23,2Z"/><g class="cls-21"><path class="cls-23" d="M271.74,183.22a15,15,0,0,1-.91,5.81,3.07,3.07,0,0,1-.5-.2,3.86,3.86,0,0,1-2.12-3.08v0a10,10,0,0,1-.09-2.83,6.12,6.12,0,0,1,.4-1.52h0a5.35,5.35,0,0,1-1.72-.82,5.61,5.61,0,0,1-2.37-4.48c0-.14,0-.28,0-.42v0a5.16,5.16,0,0,1,.13-.89c2.14.67,5.15,2.13,6.46,5a.39.39,0,0,1,.05.14,6.29,6.29,0,0,1,.48,1.54c0,.12,0,.24.06.36A13.05,13.05,0,0,1,271.74,183.22Z"/></g><g class="cls-21"><path class="cls-23" d="M280.6,198.12c-.75,0-4.33.16-5.34-.43l-.15-.08-.15-.1a2,2,0,0,1-.54-.65,3.66,3.66,0,0,1-.33-.78,9.93,9.93,0,0,1-.39-2.7c0-.22,0-.37,0-.44v0h0l3-.68.06,0h0c0,.88-.07,1.73-.08,2.42h0c0,.84,0,1.49,0,1.83a9.41,9.41,0,0,1,3.74,1.51A1,1,0,0,1,280.6,198.12Z"/></g><g class="cls-18"><path class="cls-19" d="M276.81,192.18h0c-.06.89-.09,1.75-.09,2.45h0a3.74,3.74,0,0,1-2.84-1.35,1,1,0,0,1-.15-.37s0,0,0,0c-.07-.73,1.69-1,3.11-1.16h0c.66-.06,1.22-.09,1.52-.11A7.18,7.18,0,0,1,276.81,192.18Z"/></g><path class="cls-2" d="M244.39,219.84l-.26,1.21-.1.55-.28,1.46-.37,1.9-1.14-.14-.18,0-.55-.07L204.24,220l.08-.34.07-15.51s-.15-5.84,2-9.18a2.69,2.69,0,0,1,.76-.74,11.38,11.38,0,0,1,4.8-1.42,46.54,46.54,0,0,1,5.49-.26c1.15,0,2.38.08,3.49.15,1.38.09,2.62.21,3.51.32s1.35.15,1.35.15a12.76,12.76,0,0,1,7,3.76,17.16,17.16,0,0,1,2.68,3.41C239.76,207.4,244.39,219.84,244.39,219.84Z"/><path class="cls-3" d="M216.63,192.2l7.31,26s9.59,1.15,9.59.64-5.76-16.94-5.76-16.94l-3.72-8.47-8.1-1.06"/><path class="cls-12" d="M225.08,187.35l-.05.32,0,.13-.14.68v.09l-.81,4.73v.22l.09.38a4.94,4.94,0,0,1-2.56.86H221c-3.16.07-5.73.49-5.73.18l0-.89c0-.06-.05-.8,0-.88.19-1.64,2.21-6.08,2.62-7.85.05-.28.68-.24.68-.24l4.16,1.45.15.06.6.21Z"/><path class="cls-12" d="M227.3,179.58l0,1.54a20.33,20.33,0,0,1-.1,2.8,3.88,3.88,0,0,0,0,.48c-.07,1.71.33,3.68-2.13,4.08a.34.34,0,0,1-.15.09,2.6,2.6,0,0,1-.74.26,4.52,4.52,0,0,1-.63.08,3.47,3.47,0,0,1-.44,0l-.16,0v-.21l-.12-2.2-.11-1.94-.42-7.23.73-.05.94,0,1.16-.07c.83,0,1.36,0,1.69.64C227.47,178.13,227.3,179.58,227.3,179.58Z"/><path class="cls-12" d="M217.52,179.46l.28,2.21c.22,2.16.88,7,4,7.28a5.4,5.4,0,0,0,1.23,0l-.66-11.57-.73,0-.93.07-1.16.07a2.09,2.09,0,0,0-1.85,1.21,2,2,0,0,0-.18.66Z"/><path class="cls-23" d="M227.34,180l0,1.55a23,23,0,0,1-.14,2.8,3.7,3.7,0,0,1-1.8-.47s1.25-.22,1.39-.53c0-.07-.43-3.1-.43-3.1A1.59,1.59,0,0,1,227.34,180Z"/><path class="cls-12" d="M218.79,181.23c0,.12-.78,6.8-.78,6.8l2.75,0s.52-4.35.48-4.5S218.79,181.23,218.79,181.23Z"/><path class="cls-12" d="M218.19,189.35c0-.28-1.17-9.46,1.14-11.64,5.2-4.92,7.76.85,7.76.85Z"/><path class="cls-12" d="M220.17,182.64a1,1,0,0,1-1,1h0a1,1,0,0,1-1-1v-1.5a1,1,0,0,1,1-1h0a1,1,0,0,1,1,1Z"/><path class="cls-2" d="M227.29,184c-.07,1.71.23,4.12-2.23,4.52a5.5,5.5,0,0,1-3.42-.72,9.83,9.83,0,0,1-2.06-2.45l.79-1.59h4.3Z"/><path class="cls-2" d="M224.35,180.73s-.51-.54-1.59-.06a.61.61,0,0,0,.56.45A1.12,1.12,0,0,0,224.35,180.73Z"/><path class="cls-2" d="M227.64,180.9a.34.34,0,0,1-.34.34c-.18,0-.53-.28-.53-.38s.35-.3.53-.3A.34.34,0,0,1,227.64,180.9Z"/><path class="cls-3" d="M223.43,184.47l3.17,0s.19,1.07-1.56.94S223.43,184.47,223.43,184.47Z"/><path class="cls-23" d="M226,197.69a4,4,0,0,1-2.65-.29,3.32,3.32,0,0,1-2.21-2.63,7.22,7.22,0,0,1-.28-1.63,17.77,17.77,0,0,1,.66-5.5.94.94,0,0,0,.18.12,5.85,5.85,0,0,0,3.28.75l0,.06-.84,4.8,0,.09h0v.07a11.18,11.18,0,0,0,1.07,2.46C225.52,196.8,225.54,196.86,226,197.69Z"/><path class="cls-23" d="M224.93,179.21l-7.36.61,0-.41s0-.57.25-.74S224.65,178.92,224.93,179.21Z"/><path class="cls-24" d="M213.67,203.41s1.5,20.88,10.26,18.78C225.14,221.9,213.67,203.41,213.67,203.41Z"/><path class="cls-25" d="M214.49,192.61s1.58-2.24,1.58-2.16,2,6.4,2.1,7c0,.15-2.7-2-2.7-2Z"/><path class="cls-25" d="M225.76,193.2l-1.25-2.41a8.24,8.24,0,0,0-.49,2.66,12.4,12.4,0,0,0,1.35,2.94,5.59,5.59,0,0,0,1-.58C226.35,195.73,225.76,193.2,225.76,193.2Z"/><polygon class="cls-26" points="233.87 204.25 247.9 197.88 247.9 206.7 248.06 219.91 234.4 212.77 233.87 204.25"/><polygon class="cls-27" points="233.13 204.18 250.89 199.77 250.89 226.21 233.45 230.61 233.13 204.18"/><polygon class="cls-28" points="235.36 206.64 235.19 214.64 248.36 210.28 248.36 203.02 235.36 206.64"/><polygon class="cls-28" points="233.98 219.1 234.08 224.72 246.75 221.38 246.44 216.13 233.98 219.1"/><polygon class="cls-28" points="235.36 216.37 235.19 218.49 242.54 216.17 242.48 214.22 235.36 216.37"/><path class="cls-2" d="M205.36,206.45c-.34.51-3.38,15,2.21,16,6,1,27,1.19,27,1.19l-.85-6.12-18.65-3.6"/><path class="cls-2" d="M225.65,172.8c-.48-1.5-1.84-2.27-3-.68-.39-1.52-2.32-2.34-3.43.22-.74,1.72-1.14,4.51-1.8,5.77l9.64.11C226.77,177,226.07,174.1,225.65,172.8Z"/><path class="cls-2" d="M230.38,178.16a1.05,1.05,0,0,1-1.06,1.06H215.57a1.06,1.06,0,0,1-1.06-1.06h0a1.07,1.07,0,0,1,1.06-1.06h13.75a1.06,1.06,0,0,1,1.06,1.06Z"/><path class="cls-2" d="M140.81,195.88a6.08,6.08,0,0,1-7.27,4.6c-3.28-.74-7.06-5.74-6.32-9s5.71-3.6,9-2.86A6.09,6.09,0,0,1,140.81,195.88Z"/><path class="cls-2" d="M121.57,172.79a11.09,11.09,0,0,1,12,8.07c2.84,9.49-3.83,11.32-8.68,12a8.86,8.86,0,0,1-10-7.5C114.2,180.54,114.91,173.58,121.57,172.79Z"/><path class="cls-29" d="M125.37,181.65s.09,3.43.06,3.49c-.16.28-1.42.32-1.42.32s1.63,1.24,2.94.32S128.88,181.07,125.37,181.65Z"/><path class="cls-25" d="M121.37,182.72a.7.7,0,0,0,.41.26,1.33,1.33,0,0,0,1.27-.24.88.88,0,0,0-.64-.31C122,182.38,121.53,182.45,121.37,182.72Z"/><path class="cls-25" d="M126.16,182.86a1.21,1.21,0,0,0,.44.27,1.35,1.35,0,0,0,1.25-.25,1.1,1.1,0,0,0-.82-.32A1.15,1.15,0,0,0,126.16,182.86Z"/><path class="cls-25" d="M140.12,219.39a.73.73,0,0,1,.09.08h-7l0-.07,0-.25-.37-5.22Z"/><path class="cls-25" d="M137.57,220.27l.09.09h-7.12l0-.08,0-.26-.37-5.31Z"/><path class="cls-3" d="M139.32,203.85c-.71-1.75-2.13-5.26-2.37-5.68a12.54,12.54,0,0,0-.62-1.34,4.28,4.28,0,0,0-1.1-1c-1.75-1.23-7.47-3.14-8.41-3.42a1.68,1.68,0,0,0-.45-.05l-.15-.16c-.73,0-1.67,0-2.75,0h0c-.12,0-.25.15-.36.16-.28,0-.56.17-.85.2l-1.42.11-.84.09-1.3.2a13.33,13.33,0,0,0-2,.46l-.38.13-.3.13a2.49,2.49,0,0,0-.28.15c-.24.13-.46.45-.67.45h0c-.59,0-1.11.86-1.57,1.41-.19.23-.36.42-.53.66-2,2.93-1.21,11.56-1.21,11.56l2.71,8.95a6.66,6.66,0,0,1,4,.81c1.17.7,2.36,1.4,3.48,2.19a9,9,0,0,1,.75.6l16.15-3s.66-3.86.64-4C139.22,211.06,140.46,206.68,139.32,203.85Z"/><path class="cls-30" d="M126.75,187l-.46,1.43.13,4.48-.08.45s-.57,1.18-2.52.9a5.28,5.28,0,0,1-3.25-1.61c-.09,0,.6-3.31.93-5.77,0-.24.1-.46.13-.62.09-.33.14-.54.14-.54h0l1.62.56.9.31,1.7.61Z"/><path class="cls-30" d="M126.93,185.59V192a2.14,2.14,0,0,1-.08.44,2.33,2.33,0,0,1-1.69,1.81,2.27,2.27,0,0,1-.65.09,2.72,2.72,0,0,1-.49-.05,2.37,2.37,0,0,1-1.83-1.78,2.3,2.3,0,0,1-.1-.51v-6.38a2.4,2.4,0,0,1,2.24-2.39l.14-.07h0c.13,0,.25.07.37.08a2.46,2.46,0,0,1,1.14.54A2.36,2.36,0,0,1,126.93,185.59Z"/><g class="cls-18"><path class="cls-19" d="M135.23,195.81c-.82.53-4.9.4-7.43.42a3.84,3.84,0,0,1-3.79-2,5.21,5.21,0,0,1-.54-1.87,9.12,9.12,0,0,1,.09-2.7l1-1.68,2.42-.22V192a2.14,2.14,0,0,1-.08.44C127.79,192.68,133.48,194.57,135.23,195.81Z"/></g><path class="cls-2" d="M131.63,180.85a7.16,7.16,0,1,1-7.16-7.15A7.16,7.16,0,0,1,131.63,180.85Z"/><path class="cls-30" d="M128.42,181l-.13,1.84c-.08,1.79-.47,5.83-3,6.19a5.28,5.28,0,0,1-1.09,0v-9.38h2.49a1.62,1.62,0,0,1,1.57.82,1.08,1.08,0,0,1,.18.49Z"/><path class="cls-30" d="M120.34,181l.12,1.84c.08,1.79.26,5.83,2.82,6.19a5.4,5.4,0,0,0,.88,0v-9.38H122.1a1.62,1.62,0,0,0-1.57.82,1.08,1.08,0,0,0-.18.49Z"/><path class="cls-30" d="M128.4,181l-.15,1.19-4.09-.82v-1.68h2.47a1.63,1.63,0,0,1,1.58.82,1.36,1.36,0,0,1,.18.5Z"/><g class="cls-18"><path class="cls-19" d="M130.19,180.47s-.17,1.71-.39,3c-.6,3.35-2.21,3.56-2.21,3.56l0-.26a14,14,0,0,0,.65-3.91v-.28l.06-.35,0,0-4-.82-4-.83s7.67-2,7.79-2S130.19,180.47,130.19,180.47Z"/></g><polygon class="cls-2" points="130.91 180.93 119.32 180.66 119.32 177.6 129.3 177.6 130.91 180.93"/><polygon class="cls-30" points="136.13 203.97 138.96 203.79 143.68 214.32 139.24 214.63 136.13 203.97"/><g class="cls-31"><path class="cls-19" d="M125.43,181.82s-.09,2.76-.07,2.83a14.48,14.48,0,0,0-1.45.54l1.74.21s.95-3.23.95-3.3Z"/></g><path class="cls-32" d="M121.71,183s.51-.95,1.69,0"/><path class="cls-32" d="M127.54,183s-.51-.95-1.69,0"/><path class="cls-3" d="M123.89,186.23a11,11,0,0,1,1.75-.22s0,.53-.4.63S124,186.57,123.89,186.23Z"/><path class="cls-30" d="M119.12,205.24s1,8.79,1.11,8.81,1.26,6.23-2.1,5.69c-2.68-.42-6.31-9.15-6.23-11.86C112,204.06,119.12,205.24,119.12,205.24Z"/><path class="cls-33" d="M143.06,222.18c.16-.07.09-.34-.18-.37-.53-.06-1.29-.11-1.6-.13-.09,0-.07-.08,0-.13s1.2,0,2.05,0c.5,0,.88-.09.86-.35,0-.41-2.51-.12-2.56-.25s0-.13.08-.14c.38-.07,1.08-.08,1.79-.12s.79-.12.84-.34c0-.61-1.93-.17-2.66-.3-.07,0-.1-.12,0-.14.29-.09,1.81,0,2.47-.11.37,0,.44-.59-.1-.61-.88-.09-1.89-.11-2.56-.12s-1.17-.05-1.17-.18.43-.21.89-.3c.62-.09.87-.43.81-.84a8.45,8.45,0,0,1-1.42.18,9.08,9.08,0,0,0-1.11.22c-.8.1-4.44-.59-4.75-.54,0,0-.18,3.48-.27,4.32,0,0,1.72.16,2.25.15,1.33,0,2.58.28,4,.25A18.35,18.35,0,0,0,143.06,222.18Z"/><path class="cls-33" d="M119.75,214.28l-1.9,5.32s1.61,1,6.15,1.64c8.27,1.27,12.34.67,12.34.67l.56-3.87Z"/><path class="cls-34" d="M79,210.42s-3.34,2.87-8.59,0S69,199.93,69,199.93Z"/><path class="cls-17" d="M92.25,213.67l-5.07-1.44.13,5.86-1.7,0-22.9.37c.19,0-1.86-7-1.86-7-.2-.29-4-12.84.25-15.53.83-.52,1.68-1,2.52-1.42,1.59-.8,3.14-1.44,4.36-1.91s2-.75,2.36-.92l.5-.24s2-.08,4.52.1a31.63,31.63,0,0,1,3.37.42,11.25,11.25,0,0,1,4.86,1.81A6.56,6.56,0,0,1,85.3,196C86.89,199.12,92.25,213.67,92.25,213.67Z"/><path class="cls-23" d="M68.87,201.49a20.23,20.23,0,0,0,8.64,9.12c3.87,2,8.53,4.21,8.53,4.21l-2.5-9.16L75,202.84Z"/><path class="cls-33" d="M79.87,185.48l-.05.33,0,.14-.14.7v.1l-.89,5,0,.1h0v.07l-.07.47a4.12,4.12,0,0,1-2.43.8h-.58c-3.31.07-5.34-1-5.34-1.28v-.06a2.15,2.15,0,0,1,0-.23c.19-1.71,1.64-6.44,2.07-8.29,0-.29.71-.26.71-.26l4.34,1.52.16.06.63.22Z"/><line class="cls-35" x1="73.21" y1="178.06" x2="80.51" y2="176.43"/><path class="cls-33" d="M82.19,177.36l0,1.62a20.81,20.81,0,0,1-.11,2.92c0,.16,0,.33,0,.49-.07,1.79.35,3.84-2.22,4.26a.44.44,0,0,1-.15.1,2.52,2.52,0,0,1-.77.27l-.66.09-.47,0-.16,0v-.23l-.13-2.29-.12-2-.44-7.55.77-.05,1,0,1.21-.07c.87,0,1.42,0,1.77.67C82.37,175.85,82.19,177.36,82.19,177.36Z"/><path class="cls-33" d="M72,177.23l.29,2.32c.23,2.25.92,7.34,4.19,7.6a6.67,6.67,0,0,0,1.29,0l-.69-12.08-.77,0-1,.07-1.21.07a2.17,2.17,0,0,0-1.93,1.26,2.09,2.09,0,0,0-.19.69Z"/><path class="cls-36" d="M82.22,177.37l0,1.62a21.53,21.53,0,0,1-.15,2.92,3.83,3.83,0,0,1-1.87-.49s1.3-.23,1.45-.56c0-.06-.45-3.23-.45-3.23A1.6,1.6,0,0,1,82.22,177.37Z"/><path class="cls-33" d="M73.31,179.09c0,.12-.82,7.1-.82,7.1l2.87,0s.55-4.54.51-4.7S73.31,179.09,73.31,179.09Z"/><path class="cls-33" d="M72.68,187.56c0-.29-1.23-9.87,1.19-12.15,5.43-5.14,8.1.89,8.1.89Z"/><path class="cls-33" d="M73.54,176.93c0-.27,6.59-4,8.46-1,.08.14.29.66.16.76-.49.33-2.31,0-2.31,0Z"/><path class="cls-33" d="M74.13,179.81s-.2-1.19-1-.79c-.55.27-.46,1-.46,1.81s.64,1.66,1,1.46S74.13,179.81,74.13,179.81Z"/><path class="cls-2" d="M72.26,181.45s1.47-5.68,5.4-6.45a13.66,13.66,0,0,1,5.9-.17s3.77-5-1.78-5.94-10.19.41-10.32,6.74C71.36,180.39,72.26,181.45,72.26,181.45Z"/><path class="cls-2" d="M81.52,173.67A3.67,3.67,0,1,1,77.85,170,3.67,3.67,0,0,1,81.52,173.67Z"/><path class="cls-2" d="M87.37,173.45a4,4,0,0,1-4,4h0a4,4,0,0,1-4-4h0a4,4,0,0,1,4-4h0a4,4,0,0,1,4,4Z"/><path class="cls-2" d="M73.71,175.61s-.32,6.57-.35,6.66c-.22.72-1,1-1.15.83-1-1.58-.79-8-.79-8Z"/><path class="cls-33" d="M74.75,180.55a1.1,1.1,0,0,1-1.1,1.1h0a1.09,1.09,0,0,1-1.09-1.1V179a1.09,1.09,0,0,1,1.09-1.09h0a1.09,1.09,0,0,1,1.1,1.09Z"/><path class="cls-37" d="M82.13,181.94c-.08,1.78.24,4.29-2.33,4.71a5.69,5.69,0,0,1-3.57-.75,10,10,0,0,1-2.15-2.55l.83-1.66h4.48Z"/><path class="cls-2" d="M79.11,178.69s-.52-.55-1.63-.06a.62.62,0,0,0,.58.45A1.12,1.12,0,0,0,79.11,178.69Z"/><path class="cls-22" d="M82.48,178.86a.35.35,0,0,1-.35.35c-.19,0-.55-.28-.55-.38s.36-.32.55-.32A.35.35,0,0,1,82.48,178.86Z"/><path class="cls-3" d="M78.16,182.51l3.25,0s.2,1.1-1.59,1S78.16,182.51,78.16,182.51Z"/><path class="cls-23" d="M85.35,196a23.38,23.38,0,0,1-6.09.25,3.82,3.82,0,0,1-3.56-3,8.6,8.6,0,0,1-.29-1.71,18.9,18.9,0,0,1,.69-5.74l.19.12a6.12,6.12,0,0,0,3.42.79v.06l-.88,5,0,.1h0v.07a11.26,11.26,0,0,1,4.85,1.81A6.56,6.56,0,0,1,85.35,196Z"/><polygon class="cls-3" points="70.88 189.03 76.21 192.58 77.26 196.12 68.69 192.16 70.88 189.03"/><polygon class="cls-3" points="79.09 190.35 79.81 192.22 78.92 194.73 77.6 192.51 79.09 190.35"/><path class="cls-38" d="M182.25,178.86c.17,5.88-2.79,9.18-8.66,9.69s-13.11-5.38-13.63-11.24a10.65,10.65,0,0,1,9.69-11.54C175.51,165.25,182,171.56,182.25,178.86Z"/><path class="cls-39" d="M195.58,197.74c-.34.11-11.2,7.74-10.31,11.55s6.1,3.31,8.79.64"/><polygon class="cls-40" points="188.82 200.37 191.1 197.19 190.32 195.98 188.48 196.55 188.08 200.54 188.82 200.37"/><path class="cls-3" d="M191.49,214.08l1,3-1.84,1.06-.9-.12H159.72l.16-4,.77-13.3a16.24,16.24,0,0,1,3-5.74,7.51,7.51,0,0,1,1.7-1.43,5.25,5.25,0,0,1,1-.47,3.49,3.49,0,0,1,.49-.16h0a9.62,9.62,0,0,1,1.62-.22h0c.54,0,1.12,0,1.71,0l1.27,0h.12l1.07.06.3,0c1.09.07,2.06.16,2.77.24l1.06.12a6.62,6.62,0,0,1,1.22.29A11,11,0,0,1,182.4,196a13.34,13.34,0,0,1,2.11,2.7C187.84,204.27,191.49,214.08,191.49,214.08Z"/><g class="cls-41"><rect class="cls-19" x="171.38" y="192.94" width="2.72" height="1.06" transform="translate(-51.11 62.47) rotate(-17.9)"/><polygon class="cls-19" points="171.77 198.93 170.93 198.3 172.56 196.12 173.41 196.76 171.77 198.93"/><polygon class="cls-19" points="166.33 196.57 167.25 196.05 168.57 198.43 167.65 198.94 166.33 196.57"/><rect class="cls-19" x="169.55" y="200" width="1.05" height="2.72" transform="translate(-80.62 282.75) rotate(-67.8)"/><rect class="cls-19" x="165.66" y="203.57" width="2.72" height="1.06" transform="translate(-41.09 42.1) rotate(-12.81)"/><rect class="cls-19" x="162.07" y="200.5" width="2.72" height="1.05" transform="translate(-65.4 322.51) rotate(-78.85)"/><rect class="cls-19" x="168.44" y="183.93" width="2.72" height="1.05" transform="translate(-48.87 61.82) rotate(-18.08)"/><rect class="cls-19" x="167.87" y="187.99" width="2.72" height="1.05" transform="matrix(0.6, -0.8, 0.8, 0.6, -83.13, 210.64)"/><rect class="cls-19" x="163.99" y="187.12" width="1.05" height="2.72" transform="translate(-71.05 104.22) rotate(-29.2)"/><rect class="cls-19" x="166.61" y="190.99" width="1.05" height="2.72" transform="translate(-74.02 274.67) rotate(-67.86)"/><rect class="cls-19" x="162.72" y="194.56" width="2.72" height="1.05" transform="translate(-39.42 41.57) rotate(-12.9)"/><rect class="cls-19" x="159.14" y="191.49" width="2.72" height="1.05" transform="translate(-58.64 312.88) rotate(-78.99)"/><rect class="cls-19" x="174.42" y="202.28" width="2.72" height="1.05" transform="translate(-54.22 64.51) rotate(-18.06)"/><polygon class="cls-19" points="174.82 208.28 173.97 207.64 175.61 205.47 176.45 206.1 174.82 208.28"/><polygon class="cls-19" points="169.37 205.91 170.29 205.4 171.62 207.78 170.7 208.29 169.37 205.91"/><rect class="cls-19" x="172.59" y="209.35" width="1.05" height="2.72" transform="translate(-87.36 291.46) rotate(-67.82)"/><rect class="cls-19" x="168.7" y="212.92" width="2.72" height="1.06" transform="translate(-43.26 43.23) rotate(-12.87)"/><rect class="cls-19" x="165.12" y="209.85" width="2.72" height="1.05" transform="translate(-71.91 333.44) rotate(-78.95)"/><rect class="cls-19" x="177.28" y="211.04" width="2.72" height="1.05" transform="translate(-56.39 65.16) rotate(-17.9)"/><polygon class="cls-19" points="177.67 217.04 176.83 216.41 178.46 214.23 179.3 214.86 177.67 217.04"/><rect class="cls-19" x="172.82" y="214.24" width="1.05" height="2.72" transform="translate(-83.14 111.93) rotate(-29.19)"/><rect class="cls-19" x="175.45" y="218.11" width="1.05" height="2.72" transform="translate(-93.57 299.96) rotate(-67.9)"/><rect class="cls-19" x="171.55" y="221.68" width="2.72" height="1.05" transform="translate(-45.36 44.36) rotate(-12.94)"/><rect class="cls-19" x="167.97" y="218.61" width="2.72" height="1.05" transform="translate(-78.27 343.18) rotate(-78.92)"/><polygon class="cls-19" points="158.5 198.66 158.18 197.65 160.77 196.81 161.09 197.81 158.5 198.66"/><polygon class="cls-19" points="158.67 203.2 157.83 202.57 159.46 200.39 160.31 201.02 158.67 203.2"/><rect class="cls-19" x="153.82" y="200.4" width="1.05" height="2.72" transform="translate(-78.67 100.6) rotate(-29.12)"/><polygon class="cls-19" points="155.51 205.6 155.91 204.63 158.43 205.66 158.03 206.63 155.51 205.6"/><polygon class="cls-19" points="152.71 209.19 152.47 208.16 155.12 207.55 155.36 208.58 152.71 209.19"/><rect class="cls-19" x="148.97" y="204.77" width="2.72" height="1.05" transform="translate(-79.59 314.29) rotate(-79.15)"/><rect class="cls-19" x="155.34" y="188.19" width="2.72" height="1.05" transform="translate(-50.53 57.48) rotate(-17.95)"/><polygon class="cls-19" points="155.73 194.19 154.89 193.56 156.53 191.38 157.37 192.01 155.73 194.19"/><rect class="cls-19" x="150.89" y="191.39" width="1.05" height="2.72" transform="translate(-74.74 98.24) rotate(-29.17)"/><rect class="cls-19" x="153.51" y="195.26" width="1.05" height="2.72" transform="translate(-86.11 265.28) rotate(-67.88)"/><rect class="cls-19" x="149.62" y="198.83" width="2.72" height="1.06" transform="translate(-40.39 38.37) rotate(-12.79)"/><rect class="cls-19" x="146.04" y="195.76" width="2.72" height="1.05" transform="translate(-73.43 303.46) rotate(-78.98)"/><polygon class="cls-19" points="161.55 208 161.22 207 163.81 206.16 164.14 207.16 161.55 208"/><rect class="cls-19" x="160.75" y="210.61" width="2.72" height="1.05" transform="translate(-104.08 213.2) rotate(-52.93)"/><polygon class="cls-19" points="156.27 210.18 157.19 209.67 158.51 212.04 157.6 212.56 156.27 210.18"/><rect class="cls-19" x="159.49" y="213.62" width="1.05" height="2.72" transform="translate(-99.34 282.45) rotate(-67.92)"/><polygon class="cls-19" points="155.75 218.53 155.52 217.5 158.17 216.89 158.4 217.93 155.75 218.53"/><rect class="cls-19" x="152.02" y="214.12" width="2.72" height="1.05" transform="translate(-86.6 324.21) rotate(-78.99)"/><rect class="cls-19" x="164.17" y="215.32" width="2.72" height="1.05" transform="translate(-58.82 62.04) rotate(-18.08)"/><rect class="cls-19" x="163.6" y="219.37" width="2.72" height="1.05" transform="translate(-109.93 219.17) rotate(-52.97)"/><rect class="cls-19" x="159.72" y="218.51" width="1.05" height="2.72" transform="translate(-86.68 105.64) rotate(-29.09)"/><rect class="cls-19" x="162.34" y="222.38" width="1.05" height="2.72" transform="translate(-105.77 290.2) rotate(-67.84)"/><polygon class="cls-19" points="158.6 227.29 158.37 226.26 161.02 225.65 161.26 226.68 158.6 227.29"/><rect class="cls-19" x="154.87" y="222.88" width="2.72" height="1.05" transform="translate(-93.21 333.38) rotate(-78.83)"/><rect class="cls-19" x="183.82" y="215.32" width="2.72" height="1.05" transform="translate(-79.8 112.55) rotate(-28.07)"/><rect class="cls-19" x="183.67" y="211.23" width="2.72" height="1.05" transform="translate(-87.36 281.59) rotate(-63.23)"/><rect class="cls-19" x="189.15" y="209.6" width="1.05" height="2.72" transform="translate(-90.63 167.24) rotate(-39.18)"/><rect class="cls-19" x="185.9" y="206.25" width="1.05" height="2.72" transform="translate(-55.7 346.3) rotate(-77.88)"/><rect class="cls-19" x="187.59" y="203.86" width="2.72" height="1.05" transform="translate(-64.53 89.39) rotate(-22.84)"/><polygon class="cls-19" points="193.51 208.16 192.46 208.13 192.51 205.41 193.56 205.44 193.51 208.16"/><polygon class="cls-19" points="190.59 223.11 191.09 224.03 188.69 225.32 188.2 224.39 190.59 223.11"/><rect class="cls-19" x="188.13" y="219.59" width="2.72" height="1.05" transform="translate(-92.59 289.29) rotate(-63.05)"/><polygon class="cls-19" points="195.41 220.05 194.59 220.71 192.88 218.6 193.69 217.94 195.41 220.05"/><rect class="cls-19" x="190.36" y="214.61" width="1.05" height="2.72" transform="translate(-60.29 357.36) rotate(-77.9)"/><rect class="cls-19" x="192.06" y="212.22" width="2.72" height="1.06" transform="translate(-67.57 92.1) rotate(-22.91)"/><rect class="cls-19" x="196.12" y="214.62" width="2.72" height="1.05" transform="translate(-21.57 408.3) rotate(-88.86)"/><rect class="cls-19" x="179.2" y="206.65" width="2.72" height="1.05" transform="translate(-76.33 109.54) rotate(-28.12)"/><rect class="cls-19" x="179.05" y="202.55" width="2.72" height="1.05" transform="translate(-82.3 272.18) rotate(-63.12)"/><rect class="cls-19" x="184.53" y="200.93" width="1.05" height="2.72" transform="translate(-86.24 162.69) rotate(-39.24)"/><rect class="cls-19" x="181.27" y="197.58" width="1.05" height="2.72" transform="translate(-50.99 334.72) rotate(-77.83)"/><rect class="cls-19" x="182.97" y="195.19" width="2.72" height="1.05" transform="translate(-61.78 87.49) rotate(-22.98)"/><rect class="cls-19" x="187.03" y="197.58" width="2.72" height="1.05" transform="translate(-13.06 382.92) rotate(-88.98)"/><polygon class="cls-19" points="177.17 197.94 177.66 198.87 175.27 200.16 174.77 199.22 177.17 197.94"/><polygon class="cls-19" points="176.21 193.5 177.15 193.97 175.92 196.4 174.99 195.93 176.21 193.5"/><rect class="cls-19" x="180.19" y="192.8" width="1.05" height="2.72" transform="translate(-82.07 158.09) rotate(-39.24)"/><rect class="cls-19" x="176.93" y="189.45" width="1.05" height="2.72" transform="translate(-46.56 323.91) rotate(-77.79)"/><rect class="cls-19" x="178.63" y="187.06" width="2.72" height="1.05" transform="translate(-58.87 84.97) rotate(-22.94)"/><rect class="cls-19" x="182.69" y="189.46" width="2.72" height="1.05" transform="translate(-8.85 370.98) rotate(-89.09)"/><rect class="cls-19" x="195.96" y="208.84" width="2.72" height="1.05" transform="translate(-75.5 118.04) rotate(-28.19)"/><polygon class="cls-19" points="197.32 203.82 198.26 204.29 197.03 206.72 196.09 206.25 197.32 203.82"/><rect class="cls-19" x="201.29" y="203.12" width="1.05" height="2.72" transform="translate(-83.89 174.27) rotate(-39.34)"/><rect class="cls-19" x="198.04" y="199.77" width="1.05" height="2.72" transform="translate(-39.66 353.21) rotate(-77.92)"/><rect class="cls-19" x="199.73" y="197.38" width="2.72" height="1.05" transform="translate(-61.12 93.76) rotate(-22.88)"/><polygon class="cls-19" points="211.02 201.67 209.97 201.65 210.01 198.93 211.06 198.95 211.02 201.67"/><rect class="cls-19" x="200.43" y="217.2" width="2.72" height="1.05" transform="translate(-78.75 120.66) rotate(-28.09)"/><polygon class="cls-19" points="201.78 212.18 202.72 212.66 201.49 215.09 200.55 214.61 201.78 212.18"/><rect class="cls-19" x="211.12" y="211.48" width="1.05" height="2.72" transform="translate(-86.9 181.7) rotate(-39.21)"/><polygon class="cls-19" points="209.83 209.26 204.25 210.29 201.59 209.72 201.81 208.69 209.83 209.26"/><polygon class="cls-19" points="211.96 205.25 212.37 206.22 209.87 207.28 204.1 206.31 211.96 205.25"/><rect class="cls-19" x="213.62" y="208.14" width="2.72" height="1.05" transform="translate(2.51 419.89) rotate(-88.98)"/><polygon class="cls-19" points="193.65 199.6 194.15 200.52 191.75 201.8 191.25 200.87 193.65 199.6"/><polygon class="cls-19" points="192.69 195.15 193.63 195.62 192.4 198.05 191.46 197.57 192.69 195.15"/><rect class="cls-19" x="196.67" y="194.45" width="1.05" height="2.72" transform="translate(-79.39 168.8) rotate(-39.22)"/><polygon class="cls-19" points="195.38 192.23 195.16 193.26 192.5 192.69 192.72 191.66 195.38 192.23"/><rect class="cls-19" x="195.11" y="188.71" width="2.72" height="1.05" transform="translate(-57.97 90.9) rotate(-22.8)"/><polygon class="cls-19" points="201.03 193 199.98 192.98 200.02 190.26 201.07 190.28 201.03 193"/><rect class="cls-19" x="187" y="192.04" width="2.72" height="1.05" transform="translate(-68.53 111.53) rotate(-28.13)"/><rect class="cls-19" x="186.85" y="187.94" width="2.72" height="1.05" transform="translate(-64.94 271.29) rotate(-63.16)"/><rect class="cls-19" x="192.33" y="186.32" width="1.05" height="2.72" transform="translate(-75.22 164.2) rotate(-39.21)"/><rect class="cls-19" x="189.07" y="182.97" width="1.05" height="2.72" transform="translate(-30.47 330.94) rotate(-77.86)"/><rect class="cls-19" x="190.77" y="180.58" width="2.72" height="1.05" transform="translate(-55.02 88.2) rotate(-22.71)"/><polygon class="cls-19" points="196.69 184.87 195.64 184.85 195.68 182.13 196.74 182.15 196.69 184.87"/></g><path class="cls-42" d="M176.24,188.54l0,.23v0l-.78,4.39-.07.4a3,3,0,0,1-2.46.56,20.06,20.06,0,0,1-3.5-1.56,32.47,32.47,0,0,1,.71-3.57,11.47,11.47,0,0,1,.79-2.25l.08-.16.35.22,1.2.41.11,0,.12,0,.21.06.59.21,1.5.54.2.07.11,0Z"/><polygon class="cls-43" points="195.83 196.21 188.47 194.74 185.25 206.35 193.5 206.84 195.83 196.21"/><polygon class="cls-19" points="187.07 196.2 194.95 197.02 192.63 210.13 183.79 210.65 187.07 196.2"/><path class="cls-23" d="M168.33,200.22s1.18,16.47,8.09,14.82C177.38,214.81,168.33,200.22,168.33,200.22Z"/><path class="cls-42" d="M192.56,203.71c.06-.16-.16-.3-.37-.15-.38.3-.94.74-1.14.93s-.11,0-.11-.08.82-.74,1.35-1.33c.32-.34.54-.61.36-.77s-1.76,1.51-1.88,1.45-.09-.08,0-.15c.21-.28.68-.73,1.13-1.21s.46-.58.34-.75c-.38-.42-1.39,1.1-2,1.47-.06,0-.14,0-.08-.11s1.21-1.13,1.59-1.62c.22-.28-.08-.68-.46-.35-.64.49-1.33,1.12-1.79,1.54s-.82.7-.9.61.16-.41.41-.76.31-.84,0-1.07a9,9,0,0,1-.84,1,8,8,0,0,0-.61.84c-.47.58-3.36,2.41-3.53,2.64,0,0,2.07,2.46,2.55,3.08,0,0,1.26-1,1.61-1.32.88-.85,1.92-1.44,2.84-2.36C191.53,204.76,192.26,204.1,192.56,203.71Z"/><path class="cls-42" d="M171.89,213.13l2.9,4.44s.86,0,4.36-2.45c6.36-4.38,8.71-7.36,8.71-7.36l-2.07-2.95Z"/><polygon class="cls-19" points="194.91 196.96 192.6 210.13 193.56 208.89 195.81 196.24 194.91 196.96"/><path class="cls-23" d="M176.5,193.1l-1-.12.78-4.39.71-.26c-.72-.54-1.28-.7-1.86-.4a1.64,1.64,0,0,0-.26.17,4.27,4.27,0,0,0-.81.89,6.73,6.73,0,0,0-1.19,3.55,1.48,1.48,0,0,0,0,.21,5,5,0,0,0,.11,1.19c.5,2.31,2.69,3.55,5.18,4a3.08,3.08,0,0,0,3.67-2A9.7,9.7,0,0,0,176.5,193.1Z"/><path class="cls-38" d="M181.91,180.23a7.52,7.52,0,0,1-7.52,7.52c-4.15,0-8.51-3.8-8.76-7.95-.35-6.16,4.54-7.89,8.67-7.59C180.18,172.64,181.91,176.08,181.91,180.23Z"/><path class="cls-42" d="M179,181.4l-.12,1.69c-.07,1.64-.36,5.37-2.72,5.7a5.31,5.31,0,0,1-.94,0V180h2.15a1.58,1.58,0,0,1,1.45.84,1.36,1.36,0,0,1,.17.49Z"/><path class="cls-42" d="M171.59,181.4l.11,1.69c.07,1.64.36,5.37,2.73,5.7a5.2,5.2,0,0,0,.93,0V180h-2.15a1.59,1.59,0,0,0-1.45.84,1.35,1.35,0,0,0-.16.49Z"/><path class="cls-23" d="M177.39,182.77s.24,2.33.22,2.37c-.11.23-1.07.36-1.07.36s1.31.86,2.28.09c.54-.43,1.25-2.44.87-3.18C179.39,181.84,178.17,182.38,177.39,182.77Z"/><path class="cls-38" d="M179.36,180.72a50.35,50.35,0,0,0-5.64.17h-.12c-1.38.11-2.44,7.31-2.44,7.31a4.43,4.43,0,0,1-1.92-.9,4.23,4.23,0,0,1-1.42-3.66,13.87,13.87,0,0,1,.9-4.45,10.44,10.44,0,0,1,1-2.06s6.19-.3,9,.76C180.33,178.48,179.37,180.72,179.36,180.72Z"/><path class="cls-42" d="M172.37,182.75,171,188.32l1.67.47s1.08-.62,1.08-.8-.43-3.65-.5-3.8Z"/><path class="cls-3" d="M177.79,186.21l-2.23.18a1.36,1.36,0,0,0,1.38.37C177.52,186.68,177.65,186.53,177.79,186.21Z"/><path class="cls-44" d="M174.9,184.09c.31,0,.75-.21.74-.52l-1.46.16C174.19,184,174.59,184.1,174.9,184.09Z"/><path class="cls-44" d="M177.7,183.47c0,.28.37.33.65.32s.66-.19.65-.46Z"/><g class="cls-45"><path class="cls-3" d="M346.44,218.77h-8.06l-20.22,2.59-3.91-1.61-2.2-8.18s-3.88-8.58-.78-14.54c.14-.26,1-1.41,1.2-1.64a7.38,7.38,0,0,1,1.62-1.49h0a5.16,5.16,0,0,1,.68-.42l.29-.14.31-.12.39-.13a13.87,13.87,0,0,1,2.07-.47c.43-.08.87-.14,1.33-.21l.86-.09,1.46-.12.87-.05c.12,0,.25,0,.37,0h0c1.11-.06,2.08-.09,2.83-.1l.15.09a2.43,2.43,0,0,1,.47,0,27.28,27.28,0,0,1,5.94,2.86,4.43,4.43,0,0,1,1.12,1.05,14.44,14.44,0,0,1,.65,1.38c.24.43,1.7,4,2.43,5.84,1.17,2.9-.78,3.59-.5,5.92,0,.19,0,.37.06.55.25,2.07.45,3.91.58,5.08.09.81.14,1.3.14,1.3l2,.53Z"/><path class="cls-46" d="M319.2,201.54a22.8,22.8,0,0,1-.48,4.17c-1.15,5.54-.19,14.21,7.13,12.44C327,217.89,319.2,201.54,319.2,201.54Z"/><path class="cls-40" d="M345.84,220.12c.15-.09,0-.37-.24-.36-.54,0-1.33.05-1.64.08-.09,0-.08-.08,0-.13s1.22-.14,2.08-.31c.51-.11.89-.2.83-.47s-2.57.2-2.64.08,0-.14.07-.16c.37-.11,1.09-.21,1.81-.35s.79-.22.81-.45c-.08-.62-2,.07-2.75,0-.07,0-.11-.11,0-.15.28-.12,1.84-.23,2.5-.42.37-.1.37-.66-.19-.61-.9,0-1.94.14-2.62.2s-1.19.1-1.21,0,.41-.27.87-.41c.62-.18.83-.55.71-1a8.74,8.74,0,0,1-1.42.36,10.3,10.3,0,0,0-1.11.37c-.8.2-4.6-.05-4.9,0,0,0,.25,3.57.27,4.44,0,0,1.78,0,2.32-.13,1.34-.19,2.67,0,4.1-.26C344.22,220.4,345.3,220.29,345.84,220.12Z"/><path class="cls-40" d="M321.06,215.05l-.3,5.9s.8.53,5.52.65c8.6.23,12.67-.9,12.67-.9l.07-4Z"/><path class="cls-47" d="M318.71,206.36s3,8.9,3.11,8.89-1,5.83-1,5.83-8.49-6.36-9-10.38S318.71,206.36,318.71,206.36Z"/></g><path class="cls-47" d="M326.14,186.58l-.48,1.47.13,4.6-.08.47s-.58,1.21-2.58.91a5.42,5.42,0,0,1-3.35-1.64c-.08,0,.63-3.4,1-5.94,0-.24.11-.47.13-.64.1-.33.15-.55.15-.55v0l1.67.57.92.32,1.75.63Z"/><path class="cls-47" d="M326.25,185.14v6.55a2.15,2.15,0,0,1,0,.45,2.37,2.37,0,0,1-1.73,1.86,2,2,0,0,1-.65.1,2.22,2.22,0,0,1-.51-.06,2.37,2.37,0,0,1-1.83-1.83,2.24,2.24,0,0,1-.06-.52v-6.55a2.37,2.37,0,0,1,2.26-2.4.22.22,0,0,1,.11,0h0c.14,0,.27,0,.39,0a2.31,2.31,0,0,1,1.13.52A2.34,2.34,0,0,1,326.25,185.14Z"/><path class="cls-46" d="M332.15,195a9.19,9.19,0,0,1-4.93,1.07,3.94,3.94,0,0,1-3.9-2,5.51,5.51,0,0,1-.56-1.91,9.46,9.46,0,0,1,.1-2.78l.94-1.73,2.45-.22v4.29a2.15,2.15,0,0,1,0,.45A27.28,27.28,0,0,1,332.15,195Z"/><path class="cls-38" d="M331.91,183.32a4,4,0,0,1-4,4h-8.21a4,4,0,0,1-4-4h0a18.79,18.79,0,0,1,1.8-6.71c.35-.57,1.52,2.68,2.23,2.68l10.51-2.63a15,15,0,0,1,1.73,6.66Z"/><path class="cls-38" d="M331.15,180.27a7.36,7.36,0,1,1-7.35-7.35A7.35,7.35,0,0,1,331.15,180.27Z"/><path class="cls-47" d="M327.81,180.85l-.09,1.46c-.08,1.83-.41,6-3,6.35a4.79,4.79,0,0,1-1,0v-9.82h.61l.8,0h.27c.7,0,1.47,0,1.72.56.09.17.64,0,.77.71Z"/><path class="cls-47" d="M319.55,180.42l.12,1.89c.09,1.83.41,6,3,6.35a4.88,4.88,0,0,0,1.05,0v-9.82h-.62l-.79,0h-1a1.76,1.76,0,0,0-1.62.93,1.44,1.44,0,0,0-.18.54Z"/><g class="cls-31"><path class="cls-14" d="M328.77,179.8a18,18,0,0,1-.14,3.11c-.6,3.32-1.58,3.54-1.58,3.54l0-.25a13.82,13.82,0,0,0,.64-3.88l0-.28,0-.37h0l-3.95-.81-4.05-1s7.66-1.81,7.78-1.81A16.25,16.25,0,0,1,328.77,179.8Z"/></g><rect class="cls-38" x="318.65" y="176.47" width="10.11" height="3.33"/><path class="cls-29" d="M324.78,181.27s-.09,2.83-.07,2.9a15.36,15.36,0,0,0-1.49.56L325,185s1-3.32,1-3.39Z"/><path class="cls-32" d="M321,182.42s.53-1,1.74,0"/><path class="cls-32" d="M326.93,182.42s-.52-1-1.73,0"/><path class="cls-3" d="M323.19,185.78a11.81,11.81,0,0,1,1.8-.22s0,.54-.42.64S323.32,186.13,323.19,185.78Z"/><polygon class="cls-47" points="333.62 204.02 336.63 203.84 341.63 215 336.93 215.33 333.62 204.02"/><path class="cls-48" d="M386.17,195.19l-4.94-.36a14.91,14.91,0,0,0-2.59,9.1c0,.23,5.75,1.87,5.75,1.87Z"/><path class="cls-48" d="M387.9,189.72c.06.36-.16.92-.07,1.11a3.76,3.76,0,0,1,.3,1.71c-.13,3,.24,2.45,0,3.53-.19.81-.94.84-2.67,1.18-1.28.25-4.42-.92-4.93-1.16-2.4-1.09-3.31-5.75-3.31-7.65,0-4,3.3-4.48,5.74-4C386.56,185.05,387.67,188.37,387.9,189.72Z"/><g class="cls-49"><path class="cls-50" d="M385.73,189.81a1.75,1.75,0,0,1,1.81-.18"/></g><g class="cls-49"><circle class="cls-32" cx="386.73" cy="190.59" r="0.33"/></g><path class="cls-48" d="M387.6,190.05a11.81,11.81,0,0,0,1.06,2.36.88.88,0,0,1-.82.18C387.56,192.49,387.55,190,387.6,190.05Z"/><path class="cls-51" d="M386.44,186.39a6.8,6.8,0,0,0-9-1.49c-3.26,1.95-3.41,7.48,3,11.08.07,0,.44-.43.87-1.16a5.63,5.63,0,0,0,.5-2.48l1.53-.41s-.73-2.75.13-3.89A5.39,5.39,0,0,1,386.44,186.39Z"/><path class="cls-52" d="M381.79,191.83s-.12,1.36.53,1.6a1.38,1.38,0,0,0,.87,0s-.23,2-1.32,1.55S381.79,191.83,381.79,191.83Z"/><path class="cls-53" d="M388.09,193.35s-1.1.47-1.1.49a1,1,0,0,0,1.12.53.33.33,0,0,0,0-.57C388,193.76,388.41,193.55,388.09,193.35Z"/><path class="cls-48" d="M383.12,192.3s-.61-1.22-1.15-.72-.18,2,.43,1.8a2.58,2.58,0,0,0,.92-.54Z"/><path class="cls-54" d="M382.61,192.32a.24.24,0,0,0-.42-.15l0,.05a.29.29,0,0,0,0,.16.47.47,0,0,0,.14.32.23.23,0,0,0,.32,0Z"/><rect class="cls-51" x="372.06" y="190.35" width="8.48" height="5.35" rx="2.67" transform="translate(566.13 -184.9) rotate(89.52)"/><path class="cls-51" d="M386.44,186.39s.3,1.09-1.62,4.53c-1.38,2.48-3.61.11-3.61.11l1.92-4.9Z"/><path class="cls-48" d="M380.13,228c-1.36-2.18,1-3.7,1-3.7,4.45-2.9,13.71-7.07,17.37-7.88a8.79,8.79,0,0,1,1.61-.29,1.22,1.22,0,0,1,1.24,1.17c0,.58-1.7,1.73-1.7,1.73C381.86,233.51,381.09,229.55,380.13,228Z"/><path class="cls-48" d="M406.25,216.23a8.73,8.73,0,0,0,1.67-.75,12.35,12.35,0,0,0,1.53-.24,8.52,8.52,0,0,1,1.13.4.65.65,0,0,0,.68-.18l-1.91-1.33-1.8.11-2.08,0a1.22,1.22,0,0,0-.11,1.25A1,1,0,0,0,406.25,216.23Z"/><path class="cls-48" d="M405.66,216.33a9.77,9.77,0,0,0,1.79-.4A11.45,11.45,0,0,0,409,216c.09,0,.56.36,1,.62a.65.65,0,0,0,.71,0l-1.61-1.68-1.78-.25-2.06-.39a1.08,1.08,0,0,0-.44,1.12A1.72,1.72,0,0,0,405.66,216.33Z"/><path class="cls-48" d="M406.32,218.37c-.37.12-1.18.17-1.5.24-1.19.27-3.77,0-4.39.09s-1.42.24-1.84-.79c-.49-1.18.88-1.38.88-1.38a9.33,9.33,0,0,0,1.14-.27,48,48,0,0,1,4.68-2s.85.15,1,.78a1.12,1.12,0,0,1-.32,1.26c-.18.09-.43.18-.35.51a1.14,1.14,0,0,0,1,.69c1.27-.26,1.32-.2,1.52.13C408.11,217.65,406.9,218.21,406.32,218.37Z"/><path class="cls-55" d="M388.44,215.66s-6.06-5-5.72-5,3.7-6.74,3.7-6.74"/><path class="cls-48" d="M382.79,202.65s-1.67,2.48-1.6,8.22,5.49,15.89,6,16.33c3.39,3.08,5,0,5-2.09,0-1.71-.39-5.65-2.4-14.12C388.83,207.07,386.76,201.33,382.79,202.65Z"/><g class="cls-56"><path class="cls-57" d="M391.44,219c-.36-2.06-.89-4.69-1.68-8-.93-3.92-3-9.66-7-8.34,0,0-1.67,2.48-1.6,8.22,0,3,1.78,7.9,3.26,11.27"/></g><polygon class="cls-58" points="373.98 213.55 377.72 228.43 388.85 228.54 389.98 213.35 373.98 213.55"/><path class="cls-48" d="M377.3,228.43l11.35-.16s3,4.55-.64,12.35c-.4.84-2.28,8.67-2.28,8.67s-9.27,2.68-13.46-.46c-.42-.32-1.58-4.62-2-6C368.75,237.25,373.39,234.72,377.3,228.43Z"/><path class="cls-58" d="M386.9,216.24s5.72.51,5.72-2.86c0-1.79-.14-.57-4.87-7.3"/><path class="cls-59" d="M380.13,228c-1.36-2.18,1-3.7,1-3.7,4.45-2.9,13.71-7.07,17.37-7.88a8.79,8.79,0,0,1,1.61-.29,1.22,1.22,0,0,1,1.24,1.17c0,.58-1.7,1.73-1.7,1.73C381.86,233.51,381.09,229.55,380.13,228Z"/><path class="cls-60" d="M406.25,216.23a8.73,8.73,0,0,0,1.67-.75,12.35,12.35,0,0,0,1.53-.24,8.52,8.52,0,0,1,1.13.4.65.65,0,0,0,.68-.18l-1.91-1.33-1.8.1-2.08,0a1.22,1.22,0,0,0-.11,1.25A1,1,0,0,0,406.25,216.23Z"/><path class="cls-60" d="M405.66,216.33a9.77,9.77,0,0,0,1.79-.4A11.45,11.45,0,0,0,409,216c.09,0,.56.36,1,.62a.65.65,0,0,0,.71,0l-1.61-1.68-1.78-.25-2.06-.39a1.08,1.08,0,0,0-.44,1.12A1.72,1.72,0,0,0,405.66,216.33Z"/><path class="cls-48" d="M406.32,218.37c-.37.11-1.18.17-1.5.24-1.19.27-3.77,0-4.39.09s-1.42.23-1.84-.79c-.49-1.18.88-1.38.88-1.38a7.53,7.53,0,0,0,1.14-.28,50.84,50.84,0,0,1,4.68-2s.85.15,1,.77a1.13,1.13,0,0,1-.32,1.27c-.18.09-.43.18-.35.51a1.15,1.15,0,0,0,1,.69c1.27-.26,1.32-.2,1.52.13C408.11,217.65,406.9,218.21,406.32,218.37Z"/><path class="cls-60" d="M406.32,218.38c-.37.11-1.18.16-1.5.23-1.19.27-3.77-.05-4.39.09s-1.42.23-1.84-.8.88-1.37.88-1.37a7.53,7.53,0,0,0,1.14-.28,50.84,50.84,0,0,1,4.68-2s.86.15,1,.78a1.11,1.11,0,0,1-.32,1.26c-.18.09-.43.19-.34.51a1.14,1.14,0,0,0,1,.7c1.27-.27,1.32-.21,1.52.12C408.11,217.65,406.9,218.22,406.32,218.38Z"/><path class="cls-48" d="M389.19,208.15c-1.12-1.22-3.91-8-3.91-8L379,199.9s-4,3.91-4.53,7a23.1,23.1,0,0,0-.07,6.46l14.14,0S389.24,208.21,389.19,208.15Z"/><path class="cls-61" d="M377.37,201.75a7.49,7.49,0,0,0,5.16,2.39c3.22.07,3.94-1.2,3.94-1.2l.67,1.34,5.48,8.26s1.15,2.65-2.86,3.73h0l-.91,12.27-11.13-.11s-5.11-14.45-4.1-19.5,3.75-7.18,3.75-7.18"/><path class="cls-62" d="M401.88,227.23a1.71,1.71,0,0,1-.82-.2,1.74,1.74,0,0,1-.72-2.35l6.75-12.76a1.74,1.74,0,1,1,3.07,1.63l-6.75,12.75A1.73,1.73,0,0,1,401.88,227.23Z"/><path class="cls-48" d="M380.56,233.36c.95,2.39,3.57,1.41,3.57,1.41,5-1.86,13.83-6.84,16.65-9.3a8.91,8.91,0,0,0,1.19-1.12,1.23,1.23,0,0,0-.2-1.7c-.46-.36-2.41.34-2.41.34C377.17,228.71,379.9,231.68,380.56,233.36Z"/><path class="cls-48" d="M405.63,219.4a8.82,8.82,0,0,1,1.59-.9c.15,0,.6-.78,1.1-1.08a9.23,9.23,0,0,0,.35-1.15.65.65,0,0,1,.56-.44l-.08,2.32L408,219.53l-1.26,1.67a1.22,1.22,0,0,1-1.08-.66A1,1,0,0,1,405.63,219.4Z"/><path class="cls-48" d="M403.94,218.07c-.31.23-.83.85-1.08,1.06-.92.8-2.2,3.07-2.68,3.49a1.37,1.37,0,0,0-.45,1.95c.65,1.09,1.63.1,1.63.1a10.6,10.6,0,0,1,.9-.75c.8-.52,3.2-1.63,4.39-2.57a1.4,1.4,0,0,0,0-1.3,1.12,1.12,0,0,0-1.21-.5c-.18.09-.4.23-.61,0a1.15,1.15,0,0,1,0-1.22c1-.87.95-.95.8-1.3C405.59,217.06,404.41,217.7,403.94,218.07Z"/><path class="cls-48" d="M405.2,219.81a9.91,9.91,0,0,1,1.38-1.2c.14-.08.44-.89.87-1.29a9.82,9.82,0,0,0,.11-1.19.67.67,0,0,1,.46-.55l.39,2.3-.85,1.58-.91,1.89a1.09,1.09,0,0,1-1.16-.32A1.7,1.7,0,0,1,405.2,219.81Z"/><path class="cls-52" d="M382.69,196.65c.13.07-.72,2.67,2.62,3.66l.43-2.92Z"/><polygon class="cls-3" points="378.55 199.93 383.86 203.46 384.89 206.99 376.37 203.04 378.55 199.93"/><polygon class="cls-3" points="385.93 201.24 386.64 203.1 385.76 205.6 384.45 203.39 385.93 201.24"/><path class="cls-48" d="M375.65,205.26s-3.56,2.81-1.61,8.21c1.13,3.15,5.47,15.9,5.95,16.34,3.39,3.08,5,0,5-2.08,0-1.71-.1-9.28-1.95-14C381.57,210,379.63,203.94,375.65,205.26Z"/><path class="cls-61" d="M374.85,217.33s-4.32-11.7,1.4-12.38c5.07-.59,7.75,10.11,7.75,10.11Z"/><path class="cls-62" d="M377.38,201.77l-2.53,2.62s7.28,6.89,8.43,10.2c1.62,3.62,4.58,11.92,4.58,11.92l3-1s-4.56-14.34-7.3-16.64C381.74,206.76,377.38,201.77,377.38,201.77Z"/><path class="cls-61" d="M372.89,208.13l-.24-41.95s46.33-.35,50.49-.29c0-.79,0-1.44,0-2a7.88,7.88,0,0,0-1.18-4c-1.71-2.74-5.62-6.91-13.63-6.91-3.53,0-36.7.15-81.94.37l-41.39.19-126.38.6-41.39.2-22.32.11-50.45.23a5.68,5.68,0,0,0-.59,0,7.85,7.85,0,0,0-7.15,7.88v85.14a7.86,7.86,0,0,0,6.69,7.83l33.13,4.74a7.85,7.85,0,0,0,1.08.08H412.84s8.52,0,10.23-5.78a26.52,26.52,0,0,0,.43-4.42c.11-2.17.18-5,.24-8.31,0-1.74,0-3.62.06-5.6C404.68,235.06,392.45,211.81,372.89,208.13ZM48.05,209.29V166.81h9.23a3.85,3.85,0,0,0,1.19.18h39a3.94,3.94,0,0,0,1.19-.18h60.68a4,4,0,0,0,1.2.18H252a3.94,3.94,0,0,0,1.19-.18h101l.23,42.48Zm356.81-14.56a8.34,8.34,0,0,0,8.25-8.38v-7.81a8.34,8.34,0,0,0-8.25-8.38Z"/><path class="cls-63" d="M256.06,160.86v1.67a4.1,4.1,0,0,1-2.88,3.89,3.94,3.94,0,0,1-1.19.18H160.54a4,4,0,0,1-1.2-.18,4.1,4.1,0,0,1-2.88-3.89v-1.67a4.1,4.1,0,0,1,4.08-4.07H252A4.09,4.09,0,0,1,256.06,160.86Z"/><path class="cls-63" d="M101.54,160.86v1.67a4.1,4.1,0,0,1-2.88,3.89,3.94,3.94,0,0,1-1.19.18h-39a3.85,3.85,0,0,1-1.19-.18,4.1,4.1,0,0,1-2.89-3.89v-1.67a4.1,4.1,0,0,1,4.08-4.07h39A4.09,4.09,0,0,1,101.54,160.86Z"/><rect class="cls-61" x="117.19" y="149.72" width="41.39" height="5"/><path class="cls-61" d="M95.11,154.73h-52v-5.1a6.13,6.13,0,0,1,6.08-6.19H84.47Z"/><path class="cls-2" d="M88.53,151.77H50v-2.51a3,3,0,0,1,3-3H83.2Z"/><rect class="cls-61" x="284.96" y="149.72" width="41.39" height="5"/><path class="cls-3" d="M57.28,166.42H98.66a3.94,3.94,0,0,1-1.19.18h-39A3.85,3.85,0,0,1,57.28,166.42Z"/><path class="cls-3" d="M159.34,166.42h93.84a3.94,3.94,0,0,1-1.19.18H160.54A4,4,0,0,1,159.34,166.42Z"/><path class="cls-64" d="M307.35,258.66v-15a13.89,13.89,0,0,1,13.89-13.9H333.9a13.89,13.89,0,0,1,13.89,13.9v15Z"/><circle class="cls-2" cx="327.57" cy="252.72" r="17.48"/><circle class="cls-65" cx="327.57" cy="252.72" r="12.81"/><circle class="cls-64" cx="327.57" cy="252.72" r="12.82"/><circle class="cls-66" cx="327.57" cy="252.72" r="10.3"/><circle class="cls-67" cx="327.57" cy="252.72" r="4.93"/><rect class="cls-2" x="185.63" y="245.96" width="6.82" height="2.84"/><rect class="cls-2" x="269.97" y="245.96" width="6.82" height="2.84"/><rect class="cls-2" x="399.04" y="245.96" width="6.82" height="2.84"/><path class="cls-2" d="M417.05,240.26s.11,5.39.67,6.2c1.07,1.53,3.47,2.09,6.24,2v-8.16Z"/><path class="cls-3" d="M413.11,178v7.68a8.27,8.27,0,0,1-8.25,8.24V169.72A8.27,8.27,0,0,1,413.11,178Z"/><path class="cls-61" d="M413.11,178.54v7.81a8.34,8.34,0,0,1-8.25,8.38V170.16A8.34,8.34,0,0,1,413.11,178.54Z"/><path class="cls-2" d="M36.68,222.71a30.64,30.64,0,0,1,12.73-13.42l48.84.2c.12,2.41.18,4.88.17,7.37a30.82,30.82,0,0,0-14.86,43.08l-.57.46H77.11l-33.74-4.82a9.68,9.68,0,0,1-2.44-.78c-.8-.49-2.3-1.6-2.3-1.6s-2-2.32-2-4.4Z"/><path class="cls-3" d="M137,260.4c5.47-9.14,7.42-21.08,7.66-32.66a145.14,145.14,0,0,0-.85-18.22l-22.2,0-.11,6.81a30.77,30.77,0,0,0-23,.56c0,.65,0,1.3,0,1.95C98.09,233.6,95,249,85.32,258.37c-.56.54-1.15,1.07-1.76,1.57.08.16.16.31.25.46Z"/><path class="cls-68" d="M81.75,234.35a30.78,30.78,0,0,1,16.67-17.49c0,.65,0,1.3,0,1.95C98.09,233.6,95,249,85.32,258.37c-.56.54-1.15,1.07-1.76,1.57A30.71,30.71,0,0,1,81.75,234.35Z"/><rect class="cls-2" x="35.84" y="208.32" width="5.83" height="31.15" rx="2.91"/><path class="cls-64" d="M89.12,258.66v-15A13.89,13.89,0,0,1,103,229.81h12.66a13.89,13.89,0,0,1,13.89,13.9v15Z"/><circle class="cls-2" cx="109.34" cy="252.72" r="17.48"/><circle class="cls-65" cx="109.34" cy="252.72" r="12.81"/><circle class="cls-64" cx="109.34" cy="252.72" r="12.82"/><circle class="cls-66" cx="109.34" cy="252.72" r="10.3"/><circle class="cls-67" cx="109.34" cy="252.72" r="4.93"/><g id="LOGO"><path class="cls-3" d="M171.46,225a4.35,4.35,0,0,0,1.55-3.68c0-3.43-2.9-5.24-6-5.24h-6c-.2,0-.29.08-.29.29v19.9c0,.2.09.29.29.29h8A6,6,0,0,0,171.46,225Zm-7.75-6h3.47a2.67,2.67,0,1,1,0,5.33h-3.47Zm4.91,14.64h-4.91v-6.38h4.91a3.15,3.15,0,0,1,3.45,3.16C172.07,232.64,170.67,233.64,168.62,233.64Zm11.1-17.56-2.29.38a.29.29,0,0,0-.26.32v19.49c0,.2.09.29.29.29h2.29c.2,0,.29-.09.29-.29V216.34A.25.25,0,0,0,179.72,216.08Zm9.1,5.5a5.89,5.89,0,0,0-5.91,3.74c-.09.24.06.33.23.36l2.37.38c.18,0,.27,0,.36-.21a3,3,0,0,1,2.95-1.64,2.82,2.82,0,0,1,3.13,3v.52a12.3,12.3,0,0,0-3.89-.61c-3.28,0-6,1.7-6,4.94s2.55,4.77,5.3,4.77a6,6,0,0,0,4.56-1.66v1.08c0,.2.09.29.3.29h2.28c.2,0,.29-.09.29-.29V227C194.82,223.63,192.48,221.58,188.82,221.58Zm-1,12.52c-1.76,0-2.67-.82-2.67-2.13,0-1.5,1.38-2.2,3.08-2.2a11.12,11.12,0,0,1,3.74.62C192,232.79,190.05,234.1,187.8,234.1Zm19.85-9.1a4.35,4.35,0,0,0,1.55-3.68c0-3.43-2.9-5.24-6-5.24h-6c-.2,0-.29.08-.29.29v19.9c0,.2.09.29.29.29h8A6,6,0,0,0,207.65,225Zm-7.75-6h3.47a2.67,2.67,0,1,1,0,5.33H199.9Zm4.91,14.64H199.9v-6.38h4.91a3.15,3.15,0,0,1,3.45,3.16C208.26,232.64,206.86,233.64,204.81,233.64Zm11.1-17.56-2.28.38a.29.29,0,0,0-.27.32v19.49c0,.2.09.29.3.29h2.28c.2,0,.29-.09.29-.29V216.34A.25.25,0,0,0,215.91,216.08Zm9.1,5.5a5.89,5.89,0,0,0-5.91,3.74c-.09.24.06.33.24.36l2.37.38c.17,0,.26,0,.35-.21a3,3,0,0,1,2.95-1.64,2.82,2.82,0,0,1,3.13,3v.52a12.3,12.3,0,0,0-3.89-.61c-3.28,0-6,1.7-6,4.94s2.55,4.77,5.3,4.77a6,6,0,0,0,4.56-1.66v1.08c0,.2.09.29.3.29h2.28c.2,0,.29-.09.29-.29V227C231,223.63,228.67,221.58,225,221.58Zm-1,12.52c-1.76,0-2.66-.82-2.66-2.13,0-1.5,1.37-2.2,3.07-2.2a11.12,11.12,0,0,1,3.74.62C228.14,232.79,226.24,234.1,224,234.1Zm17.87-15.39c2.87,0,4.74,1.35,5.59,4.3a.35.35,0,0,0,.35.3h2.37c.24,0,.33-.06.33-.3-.56-4.47-4-7.23-8.64-7.23s-9,3.28-9,10.54,4.39,10.53,9,10.53,8.08-2.75,8.64-7.22c0-.24-.09-.3-.33-.3H247.8a.35.35,0,0,0-.35.3c-.85,3-2.72,4.3-5.59,4.3s-5.85-2.4-5.85-7.61S238.85,218.71,241.86,218.71Zm17.08,2.87a5.89,5.89,0,0,0-5.91,3.74c-.09.24.06.33.23.36l2.37.38c.18,0,.27,0,.35-.21a3.05,3.05,0,0,1,3-1.64,2.82,2.82,0,0,1,3.13,3v.52a12.35,12.35,0,0,0-3.89-.61c-3.28,0-6,1.7-6,4.94s2.55,4.77,5.3,4.77a6,6,0,0,0,4.56-1.66v1.08c0,.2.09.29.29.29h2.29c.2,0,.29-.09.29-.29V227C264.94,223.63,262.6,221.58,258.94,221.58Zm-1,12.52c-1.76,0-2.67-.82-2.67-2.13,0-1.5,1.38-2.2,3.08-2.2a11.12,11.12,0,0,1,3.74.62C262.07,232.79,260.17,234.1,257.92,234.1Zm16.89-12.43a6,6,0,0,0-1.08-.09,5.18,5.18,0,0,0-3.86,1.73v-1.15c0-.2-.09-.29-.29-.29h-2.29c-.2,0-.29.09-.29.29v14.11c0,.2.09.29.29.29h2.29c.2,0,.29-.09.29-.29v-7.64a3.94,3.94,0,0,1,4.89-4.1c.2,0,.32-.05.32-.26V222A.29.29,0,0,0,274.81,221.67Z"/></g></g></g></svg>