<svg width="423" height="286" viewBox="0 0 423 286" fill="none" xmlns="http://www.w3.org/2000/svg">
<g clip-path="url(#clip0_171_1987)">
<path d="M28.69 137.4H4.37V226.75H28.69V137.4Z" fill="#CFDFE5"/>
<path d="M144.97 190.84H0V226.75H145.18L144.97 190.84Z" fill="#CFDFE5"/>
<path d="M119.85 180.98L82.12 170.71V226.75H119.85V180.98Z" fill="#CFDFE5"/>
<path d="M84.01 122.48L56 112.59V226.75H84.01V122.48ZM55.84 80.84H18.82V226.75H55.84V80.84ZM422.73 140.87H399.2V227.31H422.71L422.73 140.87ZM366.42 151.95H343.05V227.31H366.42V151.95Z" fill="#CFDFE5"/>
<path d="M422.27 192.56H342.87V227.3H422.27V192.56Z" fill="#CFDFE5"/>
<path d="M416.05 183.03L391.17 173.09V227.31H416.05V183.03Z" fill="#CFDFE5"/>
<path d="M411.32 126.44L384.23 116.87V227.31H411.32V126.44ZM378.76 86.15H360.23V227.3H378.76V86.15ZM87.51 140.87H111.04V227.31H87.54L87.51 140.87ZM167.2 151.95H143.83V227.31H167.2V151.95Z" fill="#CFDFE5"/>
<path d="M167.37 192.56H87.97V227.3H167.37V192.56Z" fill="#CFDFE5"/>
<path d="M94.19 183.03L119.07 173.09V227.31H94.19V183.03Z" fill="#CFDFE5"/>
<path d="M98.92 126.44L126.01 116.87V227.31H98.92V126.44ZM150.01 86.15H131.48V227.3H150.01V86.15Z" fill="#CFDFE5"/>
<path d="M205.73 49.2101V34.5601H200.05V49.2101H205.73ZM312.52 49.2201V34.5701H306.82V49.2201H312.52Z" fill="#AAB8C1"/>
<path d="M232.27 64.63V250.42H351.83V64.63H232.27ZM334.47 195.51H249.68V107.88H334.47V195.51ZM232.27 64.63V250.42H164.64V64.63H232.27ZM174.47 195.51H222.47V107.88H174.47V195.51Z" fill="#E3F5FF"/>
<path d="M351.97 46.88H164.59V52.63H351.97V46.88Z" fill="#AAB8C1"/>
<path d="M351.97 52.45H164.59V65.5299H351.97V52.45Z" fill="#E3F5FF"/>
<path d="M194.03 202.39H179.03C178.529 202.39 178.048 202.191 177.694 201.836C177.518 201.661 177.379 201.452 177.284 201.223C177.189 200.994 177.14 200.748 177.14 200.5C177.14 200.252 177.189 200.006 177.284 199.777C177.379 199.548 177.518 199.339 177.694 199.164C177.869 198.988 178.078 198.849 178.307 198.754C178.536 198.659 178.782 198.61 179.03 198.61H194.03C194.531 198.61 195.012 198.809 195.366 199.164C195.721 199.518 195.92 199.999 195.92 200.5C195.92 201.001 195.721 201.482 195.366 201.836C195.012 202.191 194.531 202.39 194.03 202.39ZM333.05 0H181.53C179.323 0 177.207 0.876569 175.647 2.43687C174.087 3.99717 173.21 6.1134 173.21 8.32V27.45C173.21 29.6566 174.087 31.7728 175.647 33.3331C177.207 34.8934 179.323 35.77 181.53 35.77H333.05C335.257 35.77 337.373 34.8934 338.933 33.3331C340.493 31.7728 341.37 29.6566 341.37 27.45V8.32C341.37 6.1134 340.493 3.99717 338.933 2.43687C337.373 0.876569 335.257 0 333.05 0Z" fill="#AAB8C1"/>
<path d="M197.35 51.59H176.52V94.56H197.35V51.59ZM238.65 51.59H217.82V94.96H238.65V51.59Z" fill="#FF595A"/>
<path d="M218 51.59H197.17V94.76H218V51.59ZM259.3 51.59H238.47V95.16H259.3V51.59Z" fill="#005C66"/>
<path d="M279.95 51.59H259.12V95.37H279.95V51.59ZM321.26 51.59H300.43V95.77H321.26V51.59Z" fill="#FF595A"/>
<path d="M300.61 51.59H279.78V95.57H300.61V51.59Z" fill="#005C66"/>
<path d="M341.73 96.1V51.59H347.98L362.56 94.1L341.73 96.1Z" fill="#FF595A"/>
<path d="M341.91 51.59H321.08V95.97H341.91V51.59ZM155.87 93.26L170.99 51.59H176.72L176.52 93.39L155.87 93.26Z" fill="#005C66"/>
<path d="M197.35 93.39C197.35 97.57 192.68 100.95 186.93 100.95C181.18 100.95 176.52 97.57 176.52 93.39M238.65 93.64C238.65 97.82 233.99 101.21 228.24 101.21C222.49 101.21 217.82 97.82 217.82 93.64M279.95 93.9C279.95 98.07 275.29 101.46 269.54 101.46C263.79 101.46 259.13 98.07 259.13 93.9M321.27 94.15C321.27 98.32 316.61 101.71 310.85 101.71C305.09 101.71 300.44 98.32 300.44 94.15M362.56 94.4C362.56 98.58 357.9 101.96 352.15 101.96C346.4 101.96 341.74 98.58 341.74 94.4" fill="#D1434B"/>
<path d="M176.69 93.27C176.69 97.44 172.03 100.83 166.28 100.83C160.53 100.83 155.87 97.44 155.87 93.27M218 93.51C218 97.68 213.34 101.07 207.58 101.07C201.82 101.07 197.17 97.69 197.17 93.51M259.27 93.77C259.27 97.95 254.61 101.33 248.86 101.33C243.11 101.33 238.45 97.95 238.45 93.77M300.61 94.02C300.61 98.2 295.94 101.58 290.19 101.58C284.44 101.58 279.78 98.2 279.78 94.02M341.91 94.28C341.91 98.45 337.25 101.84 331.5 101.84C325.75 101.84 321.08 98.45 321.08 94.28" fill="#054752"/>
<path d="M290.98 173.91C303.815 173.91 314.22 163.505 314.22 150.67C314.22 137.835 303.815 127.43 290.98 127.43C278.145 127.43 267.74 137.835 267.74 150.67C267.74 163.505 278.145 173.91 290.98 173.91Z" fill="#E3F5FF"/>
<g style="mix-blend-mode:multiply" opacity="0.18">
<path d="M258.04 161.55L325.2 161.42L322.06 160.76L262.72 160.66L258.04 161.55Z" fill="#8E415F"/>
</g>
<path d="M316.27 150.24V142.97H316.1C316.1 142.84 324.3 142.91 325.03 142.92V142.58C325.025 142.333 324.956 142.092 324.83 141.88C324.576 141.489 324.223 141.172 323.806 140.961C323.39 140.751 322.926 140.654 322.46 140.68L308.25 140.75H301.07L279.16 140.86H259.27C258.928 140.89 258.611 141.047 258.381 141.301C258.151 141.556 258.025 141.887 258.03 142.23V157C257.984 157.351 258.078 157.706 258.291 157.988C258.504 158.271 258.82 158.458 259.17 158.51L264.91 159.34H323.27C323.27 159.34 324.75 159.34 325.04 158.34C325.093 158.087 325.119 157.829 325.12 157.57V155.13C321.82 154.91 319.7 150.88 316.27 150.24ZM259.94 150.45V143.08H261.54C261.609 143.091 261.68 143.091 261.75 143.08H268.51C268.58 143.09 268.65 143.09 268.72 143.08H279.27C279.339 143.091 279.41 143.091 279.48 143.08H295.34C295.406 143.09 295.474 143.09 295.54 143.08H313.07V150.45H259.94ZM321.82 147.92C322.198 147.92 322.561 147.773 322.832 147.51C323.103 147.246 323.26 146.888 323.27 146.51V145.11C323.271 144.729 323.121 144.363 322.853 144.091C322.585 143.82 322.221 143.665 321.84 143.66L321.82 147.92Z" fill="#FF595A"/>
<path opacity="0.45" d="M296.05 142.05V142.34C296.048 142.49 295.999 142.636 295.909 142.756C295.819 142.877 295.693 142.966 295.55 143.01C295.484 143.02 295.416 143.02 295.35 143.01H279.49C279.42 143.021 279.35 143.021 279.28 143.01C279.136 142.966 279.011 142.877 278.921 142.756C278.831 142.636 278.782 142.49 278.78 142.34V142.05C278.78 141.862 278.855 141.681 278.988 141.548C279.121 141.415 279.302 141.34 279.49 141.34H295.35C295.536 141.344 295.713 141.42 295.844 141.553C295.975 141.685 296.049 141.864 296.05 142.05ZM269.27 142.05V142.34C269.269 142.489 269.221 142.634 269.133 142.754C269.046 142.875 268.922 142.964 268.78 143.01C268.71 143.02 268.64 143.02 268.57 143.01H261.81C261.74 143.021 261.67 143.021 261.6 143.01C261.456 142.966 261.33 142.877 261.24 142.757C261.15 142.636 261.101 142.49 261.1 142.34V142.05C261.1 141.862 261.175 141.681 261.308 141.548C261.441 141.415 261.622 141.34 261.81 141.34H268.57C268.663 141.34 268.755 141.358 268.841 141.394C268.926 141.43 269.004 141.482 269.069 141.549C269.2 141.683 269.272 141.863 269.27 142.05Z" fill="white"/>
<path d="M279.15 140.11H271.97V140.98H279.15V140.11ZM268.14 140.98H259.14V140.1C259.137 139.827 259.239 139.564 259.426 139.365C259.612 139.165 259.868 139.045 260.14 139.03H266.27L268.14 140.98Z" fill="#FF595A"/>
<path d="M267 140.51H260.32V140.08C260.321 139.94 260.377 139.805 260.476 139.706C260.575 139.607 260.71 139.551 260.85 139.55H266.07L267 140.51Z" fill="#054752"/>
<path d="M308.24 140.11H301.06V140.98H308.24V140.11Z" fill="#FF595A"/>
<path d="M261.58 143.01H268.76C268.69 143.02 268.62 143.02 268.55 143.01H261.79C261.72 143.021 261.65 143.021 261.58 143.01ZM279.27 143.01H295.54C295.474 143.02 295.406 143.02 295.34 143.01H279.49C279.417 143.022 279.343 143.022 279.27 143.01Z" fill="white"/>
<g style="mix-blend-mode:multiply" opacity="0.45">
<path d="M304.95 159.01V156.41C304.949 156.093 305.01 155.779 305.131 155.486C305.251 155.193 305.429 154.927 305.653 154.703C305.877 154.479 306.143 154.301 306.436 154.181C306.729 154.06 307.043 153.999 307.36 154H309.55C310.189 154 310.802 154.254 311.254 154.706C311.706 155.158 311.96 155.771 311.96 156.41V159.01H304.95Z" fill="#044752"/>
</g>
<path d="M308.45 161C308.848 161 309.242 160.921 309.61 160.769C309.977 160.617 310.311 160.393 310.593 160.112C310.874 159.831 311.097 159.496 311.25 159.129C311.402 158.761 311.48 158.367 311.48 157.969C311.48 157.571 311.401 157.177 311.249 156.809C311.097 156.442 310.873 156.108 310.592 155.826C310.311 155.545 309.976 155.322 309.609 155.169C309.241 155.017 308.847 154.939 308.449 154.939C307.645 154.939 306.875 155.259 306.306 155.827C305.738 156.395 305.419 157.166 305.419 157.97C305.419 158.774 305.739 159.544 306.307 160.113C306.875 160.681 307.646 161 308.45 161Z" fill="#054752"/>
<path opacity="0.45" d="M308.45 160.19C309.039 160.19 309.603 159.956 310.02 159.54C310.436 159.123 310.67 158.559 310.67 157.97C310.67 157.381 310.436 156.817 310.02 156.4C309.603 155.984 309.039 155.75 308.45 155.75C307.861 155.75 307.297 155.984 306.88 156.4C306.464 156.817 306.23 157.381 306.23 157.97C306.23 158.559 306.464 159.123 306.88 159.54C307.297 159.956 307.861 160.19 308.45 160.19Z" fill="#044752"/>
<g style="mix-blend-mode:multiply" opacity="0.45">
<path d="M308.45 160.19C309.039 160.19 309.603 159.956 310.02 159.54C310.436 159.123 310.67 158.559 310.67 157.97C310.67 157.381 310.436 156.817 310.02 156.4C309.603 155.984 309.039 155.75 308.45 155.75C307.861 155.75 307.297 155.984 306.88 156.4C306.464 156.817 306.23 157.381 306.23 157.97C306.23 158.559 306.464 159.123 306.88 159.54C307.297 159.956 307.861 160.19 308.45 160.19Z" fill="#044752"/>
</g>
<path opacity="0.86" d="M308.45 159.76C308.689 159.766 308.926 159.724 309.148 159.636C309.37 159.549 309.572 159.418 309.743 159.251C309.914 159.085 310.05 158.886 310.142 158.666C310.235 158.446 310.283 158.21 310.283 157.971C310.283 157.732 310.235 157.496 310.143 157.276C310.05 157.056 309.915 156.857 309.744 156.69C309.573 156.524 309.371 156.393 309.149 156.305C308.927 156.218 308.69 156.175 308.451 156.181C307.984 156.192 307.539 156.385 307.213 156.72C306.886 157.054 306.703 157.503 306.703 157.97C306.703 158.437 306.885 158.886 307.212 159.221C307.538 159.555 307.983 159.749 308.45 159.76Z" fill="white"/>
<path d="M308.45 158.82C308.562 158.82 308.672 158.798 308.775 158.755C308.878 158.713 308.972 158.65 309.051 158.571C309.13 158.492 309.193 158.398 309.235 158.295C309.278 158.192 309.3 158.082 309.3 157.97C309.3 157.858 309.278 157.748 309.235 157.645C309.193 157.542 309.13 157.448 309.051 157.369C308.972 157.29 308.878 157.227 308.775 157.185C308.672 157.142 308.562 157.12 308.45 157.12C308.225 157.12 308.008 157.21 307.849 157.369C307.69 157.528 307.6 157.745 307.6 157.97C307.6 158.195 307.69 158.412 307.849 158.571C308.008 158.73 308.225 158.82 308.45 158.82Z" fill="#044752"/>
<path d="M285.01 156.8H283.83V157.29H285.01V156.8ZM299.64 156.8H298.46V157.29H299.64V156.8ZM322.02 156.8H320.84V157.29H322.02V156.8ZM323.97 155.82C323.968 156.18 324.008 156.539 324.09 156.89C324.229 157.03 324.4 157.134 324.588 157.194C324.776 157.253 324.976 157.265 325.17 157.23V155.82H323.97Z" fill="#054752"/>
<path d="M323.27 145.01V146.34C323.267 146.718 323.116 147.081 322.848 147.348C322.581 147.616 322.218 147.767 321.84 147.77V143.58C322.218 143.583 322.581 143.734 322.848 144.002C323.116 144.269 323.267 144.631 323.27 145.01Z" fill="white"/>
<path d="M323.27 145.11V146.51C323.271 146.891 323.121 147.257 322.853 147.529C322.585 147.8 322.221 147.955 321.84 147.96V143.7C322.214 143.705 322.572 143.855 322.838 144.118C323.105 144.38 323.259 144.736 323.27 145.11Z" fill="#FF595A"/>
<path d="M258.01 152.77C258.485 151.787 259.253 150.976 260.21 150.45H268.68V151.73C267.996 152.023 267.381 152.456 266.875 153.002C266.368 153.547 265.982 154.192 265.739 154.895C265.497 155.599 265.405 156.345 265.469 157.087C265.533 157.828 265.751 158.548 266.11 159.2L266.01 159.28H265.01L259.17 158.51C259.022 158.484 258.878 158.44 258.74 158.38L258.34 158.1C258.16 157.883 258.046 157.619 258.01 157.34V152.77Z" fill="#054752"/>
<path d="M275.4 159.31C276.313 157.566 276.771 155.619 276.73 153.65C276.743 152.595 276.693 151.539 276.58 150.49H272.73V151.67C271.434 151.186 270.001 151.222 268.73 151.77V152.11C268.68 154.67 268.14 157.34 266.46 158.97L266.16 159.24V159.32L275.4 159.31Z" fill="white"/>
<path d="M265.82 154.79C266.075 154.121 266.462 153.511 266.959 152.995C267.455 152.48 268.051 152.07 268.71 151.79V152.13C268.66 154.69 268.12 157.36 266.44 158.99L266.14 159.26C265.765 158.583 265.542 157.832 265.487 157.06C265.432 156.288 265.545 155.514 265.82 154.79Z" fill="#36BCEE"/>
<path d="M258.41 150.27H258.32C258.198 150.27 258.081 150.318 257.995 150.405C257.908 150.491 257.86 150.608 257.86 150.73V155.21C257.86 155.464 258.066 155.67 258.32 155.67H258.41C258.532 155.67 258.649 155.622 258.735 155.535C258.822 155.449 258.87 155.332 258.87 155.21V150.73C258.87 150.67 258.858 150.61 258.835 150.554C258.812 150.498 258.778 150.447 258.735 150.405C258.693 150.362 258.642 150.328 258.586 150.305C258.53 150.282 258.47 150.27 258.41 150.27Z" fill="#054752"/>
<g style="mix-blend-mode:multiply" opacity="0.45">
<path d="M267.1 159.01V156.41C267.1 156.094 267.162 155.78 267.283 155.488C267.405 155.195 267.582 154.93 267.806 154.706C268.03 154.482 268.295 154.305 268.588 154.183C268.88 154.062 269.194 154 269.51 154H271.71C272.348 154.001 272.96 154.255 273.411 154.706C273.634 154.93 273.81 155.196 273.93 155.488C274.05 155.781 274.111 156.094 274.11 156.41V159.01H267.1Z" fill="#044752"/>
</g>
<path d="M270.6 161C270.998 161 271.392 160.921 271.76 160.769C272.127 160.617 272.461 160.393 272.743 160.112C273.024 159.831 273.247 159.496 273.4 159.129C273.552 158.761 273.63 158.367 273.63 157.969C273.63 157.571 273.551 157.177 273.399 156.809C273.247 156.442 273.023 156.108 272.742 155.826C272.461 155.545 272.126 155.322 271.759 155.169C271.391 155.017 270.997 154.939 270.599 154.939C269.795 154.939 269.025 155.259 268.456 155.827C267.888 156.395 267.569 157.166 267.569 157.97C267.569 158.774 267.889 159.544 268.457 160.113C269.025 160.681 269.796 161 270.6 161Z" fill="#054752"/>
<path opacity="0.45" d="M270.6 160.19C271.189 160.19 271.753 159.956 272.17 159.54C272.586 159.123 272.82 158.559 272.82 157.97C272.82 157.381 272.586 156.817 272.17 156.4C271.753 155.984 271.189 155.75 270.6 155.75C270.011 155.75 269.447 155.984 269.03 156.4C268.614 156.817 268.38 157.381 268.38 157.97C268.38 158.559 268.614 159.123 269.03 159.54C269.447 159.956 270.011 160.19 270.6 160.19Z" fill="#044752"/>
<g style="mix-blend-mode:multiply" opacity="0.45">
<path d="M270.6 160.19C271.189 160.19 271.753 159.956 272.17 159.54C272.586 159.123 272.82 158.559 272.82 157.97C272.82 157.381 272.586 156.817 272.17 156.4C271.753 155.984 271.189 155.75 270.6 155.75C270.011 155.75 269.447 155.984 269.03 156.4C268.614 156.817 268.38 157.381 268.38 157.97C268.38 158.559 268.614 159.123 269.03 159.54C269.447 159.956 270.011 160.19 270.6 160.19Z" fill="#044752"/>
</g>
<path opacity="0.86" d="M270.6 159.76C270.839 159.766 271.076 159.724 271.298 159.636C271.52 159.549 271.722 159.418 271.893 159.251C272.064 159.085 272.2 158.886 272.292 158.666C272.385 158.446 272.433 158.21 272.433 157.971C272.433 157.732 272.385 157.496 272.293 157.276C272.2 157.056 272.064 156.857 271.894 156.69C271.723 156.524 271.521 156.393 271.299 156.305C271.077 156.218 270.84 156.175 270.601 156.181C270.134 156.192 269.689 156.385 269.363 156.72C269.036 157.054 268.853 157.503 268.853 157.97C268.853 158.437 269.035 158.886 269.362 159.221C269.688 159.555 270.133 159.749 270.6 159.76Z" fill="white"/>
<path d="M270.6 158.82C270.712 158.82 270.822 158.798 270.925 158.755C271.029 158.712 271.122 158.65 271.201 158.571C271.28 158.492 271.343 158.398 271.385 158.295C271.428 158.191 271.45 158.081 271.45 157.969C271.45 157.857 271.428 157.747 271.385 157.644C271.342 157.54 271.28 157.447 271.201 157.368C271.122 157.289 271.028 157.226 270.924 157.184C270.821 157.141 270.711 157.119 270.599 157.119C270.373 157.119 270.157 157.209 269.998 157.368C269.838 157.528 269.749 157.744 269.749 157.97C269.749 158.196 269.839 158.412 269.998 158.571C270.158 158.731 270.374 158.82 270.6 158.82Z" fill="#044752"/>
<path d="M233.39 107.35V236.32M380.05 250.23H123.3" stroke="#AAB8C1" stroke-miterlimit="10"/>
<path opacity="0.18" d="M92.38 282.18C119.359 282.18 141.23 278.773 141.23 274.57C141.23 270.367 119.359 266.96 92.38 266.96C65.4 266.96 43.53 270.367 43.53 274.57C43.53 278.773 65.4 282.18 92.38 282.18Z" fill="#8E405F"/>
<path d="M111.07 232.3C110.44 225.3 109.9 219.75 109.9 219.75L119.52 218.37C119.52 218.37 123.99 245.37 125.21 252.12C126.55 259.46 127.62 263.06 127.78 266.45L123.16 267.06C121.04 258.32 111.95 242.19 111.07 232.3Z" fill="#044752"/>
<path d="M121.37 265.08C122.184 266.916 122.895 268.795 123.5 270.71C123.69 271.58 124.2 273.99 124.6 276.03C125.045 276.167 125.524 276.139 125.95 275.95C125.947 275.499 125.921 275.048 125.87 274.6C126.98 275.19 127.52 276.33 129.87 276.6C133.87 277.08 137.34 274.77 135.68 273.6C134.02 272.43 129.13 270.28 128.92 269.83C128.8 269.57 128.51 266.77 128.21 263.55C127.77 258.9 123.5 261.82 121.37 265.07" fill="#063E44"/>
<path d="M109.82 178.26C116.2 188.7 117.08 205.26 119.82 220.53C121.74 231.16 114.82 225.01 109.89 219.75C96.76 205.75 93.15 193.18 92.26 187.45C91.37 181.72 106.78 173.31 109.81 178.26M76.27 228.88C80.6 223.99 85.59 224.52 85.59 224.52L91.46 230.94C91.46 230.94 75.85 245.51 71.74 250.31C67.27 255.51 65.33 258.4 62.93 260.51L59.21 257.58C64.21 250.96 66.5 239.96 76.28 228.89" fill="#044752"/>
<path d="M59.41 255.13C58.6199 256.787 57.7282 258.393 56.74 259.94C56.23 260.58 54.81 262.35 53.58 263.83C53.805 264.235 54.156 264.555 54.58 264.74C54.9327 264.484 55.2669 264.203 55.58 263.9C55.92 265.03 55.46 266.08 56.92 267.9C59.36 270.99 63.57 272.15 63.26 270.29C62.95 268.43 61.08 263.69 61.26 263.29C61.37 263.05 63.26 261.21 65.41 259.12C68.55 256.12 63.35 254.75 59.41 255.12" fill="#063E44"/>
<path d="M98.37 181.35C102.07 193.01 95.95 214.62 92.27 229.35C91.2 233.59 84.84 233.1 84.84 225.9C84.84 199.9 76.35 197.53 79.84 182.41C81.13 176.75 96.65 175.82 98.41 181.35" fill="#044752"/>
<g style="mix-blend-mode:multiply" opacity="0.5">
<path d="M90.46 154.63L105.71 155.21C106.66 155.242 107.606 155.071 108.484 154.707C109.362 154.343 110.151 153.795 110.8 153.1C110.97 152.95 112.05 164.94 84.27 160.1C84.12 160.1 82.84 149.64 82.84 149.64C82.84 149.64 84.18 154.64 90.46 154.64" fill="#004753"/>
</g>
<path d="M78.76 137.26C80.76 134.26 82.64 132.58 83.17 132.37C85.73 130.95 95.71 128.99 95.71 128.99C95.71 128.99 98.39 128.78 99.34 128.82V129.29L103.87 129.2C103.87 129.2 111.94 132.56 115.38 133.35L122.15 136.78C122.15 136.78 115.39 146.37 113.15 154.27C110.71 162.73 113.77 186.41 115.89 194.63C96.68 201.25 76.64 193.3 76.64 193.3C76.64 179.06 85.81 164.61 82.75 151.58L79.75 143.7C78.7747 142.973 78.1278 141.888 77.9516 140.685C77.7753 139.481 78.0841 138.256 78.81 137.28" fill="#FF595A"/>
<path d="M116.88 122.51L109.94 137.56C109.94 137.56 119.24 140.12 119.82 140.36C119.89 140.36 122.7 135.02 125.82 125.2C126.07 124.51 119.34 123.04 116.88 122.51Z" fill="#AE8157"/>
<path d="M116.27 125.51C116.27 125.51 116.69 120.35 117.14 118.24C117.44 116.82 118.75 107.98 117.94 102.06C117.837 101.586 117.707 101.119 117.55 100.66C117.32 100.274 117.122 99.8692 116.96 99.45C116.812 98.8971 116.608 98.361 116.35 97.85C116.478 97.7795 116.621 97.7381 116.767 97.7286C116.913 97.7192 117.06 97.742 117.196 97.7954C117.332 97.8488 117.455 97.9315 117.556 98.0378C117.657 98.144 117.734 98.2711 117.78 98.41C118.02 98.91 118.13 99.41 118.44 99.33C118.75 99.25 118.57 98.81 118.44 97.85C118.3 97.07 118.08 95.85 118 94.79C117.91 94.13 118.7 93.96 118.89 94.37C119.19 95.09 119.44 96.94 119.63 97.24C119.69 97.35 119.83 97.24 119.84 97.17C119.84 96.26 118.75 94.17 119.65 93.9C119.75 93.8642 119.86 93.8642 119.96 93.9C120.127 94.042 120.243 94.235 120.29 94.45C120.29 94.53 120.34 94.6 120.36 94.68C120.59 95.5 120.78 96.32 120.96 96.68C120.967 96.7047 120.982 96.7264 121.003 96.742C121.024 96.7575 121.049 96.7658 121.075 96.7658C121.101 96.7658 121.126 96.7575 121.147 96.742C121.168 96.7264 121.183 96.7047 121.19 96.68C121.179 96.2858 121.112 95.8951 120.99 95.52C120.8 94.69 120.58 93.68 120.99 93.52C121.4 93.36 121.52 93.8 121.7 94.37C122 95.37 122.19 96.72 122.26 96.77C122.33 96.82 122.47 96.77 122.44 96.68C122.44 96.32 122.3 95.38 122.25 94.74C122.25 94.41 122.61 94.19 122.77 94.34C123.073 95.232 123.31 96.144 123.48 97.07C123.89 98.71 123.57 100.52 123.92 102.07C123.99 102.46 125.92 123.07 125.92 125.07" fill="#AE8157"/>
<path d="M121.19 129.19C122.442 129.19 123.642 128.693 124.528 127.808C125.413 126.922 125.91 125.722 125.91 124.47C125.91 123.218 125.413 122.018 124.528 121.132C123.642 120.247 122.442 119.75 121.19 119.75C119.938 119.75 118.738 120.247 117.852 121.132C116.967 122.018 116.47 123.218 116.47 124.47C116.47 125.722 116.967 126.922 117.852 127.808C118.738 128.693 119.938 129.19 121.19 129.19Z" fill="#AE8157"/>
<path d="M103.44 136.24C107.72 135.06 112 128.71 112 128.71L124.27 133.43C124.27 133.43 118.66 142.73 116.27 146.71C112.11 149.31 102.27 143.62 103.44 136.24Z" fill="#FF595A"/>
<path d="M94.41 123.58C94.41 123.58 90.1 130.58 80.04 127.91C71.04 125.53 66.44 111.91 78.22 107.31C90 102.71 103.68 115.65 94.41 123.58Z" fill="#573A22"/>
<path d="M103.36 119.19L94.56 119.83L93.97 131.72L104.29 132.43L103.36 119.19Z" fill="#A0734E"/>
<path d="M95.27 128.88L87.91 130.72C87.91 130.72 87.1 133.61 98.91 133.61C110.72 133.61 107.41 130.43 107.41 130.43L103.6 128.88H95.27Z" fill="#A0734E"/>
<g style="mix-blend-mode:multiply" opacity="0.65">
<path d="M95.53 122.27C95.78 122.35 95.83 127.37 103.99 128.33L103.35 119.94L95.53 122.27Z" fill="#AE8157"/>
</g>
<path d="M100.91 123.51H97.35C95.8302 123.507 94.3732 122.903 93.2976 121.829C92.222 120.756 91.6153 119.3 91.61 117.78V110.64C91.61 107.72 91.99 104.52 94.92 104.52L100.92 105.32C102.329 105.325 103.68 105.887 104.677 106.883C105.673 107.88 106.235 109.231 106.24 110.64V118.19C106.237 119.602 105.674 120.955 104.675 121.952C103.676 122.949 102.322 123.51 100.91 123.51Z" fill="#AE8157"/>
<path d="M93.96 112.51C94.42 111.91 96.69 111.64 97.29 112.51H93.96ZM100.79 112.88C101.69 112.01 103.79 112.08 104.25 112.88H100.79Z" fill="black"/>
<g style="mix-blend-mode:multiply">
<path d="M95.95 115.09C96.1038 115.09 96.2513 115.029 96.3601 114.92C96.4689 114.811 96.53 114.664 96.53 114.51C96.53 114.356 96.4689 114.209 96.3601 114.1C96.2513 113.991 96.1038 113.93 95.95 113.93C95.7962 113.93 95.6486 113.991 95.5399 114.1C95.4311 114.209 95.37 114.356 95.37 114.51C95.37 114.664 95.4311 114.811 95.5399 114.92C95.6486 115.029 95.7962 115.09 95.95 115.09ZM102.57 115.08C102.724 115.08 102.871 115.019 102.98 114.91C103.089 114.801 103.15 114.654 103.15 114.5C103.15 114.346 103.089 114.199 102.98 114.09C102.871 113.981 102.724 113.92 102.57 113.92C102.416 113.92 102.269 113.981 102.16 114.09C102.051 114.199 101.99 114.346 101.99 114.5C101.99 114.654 102.051 114.801 102.16 114.91C102.269 115.019 102.416 115.08 102.57 115.08Z" fill="#004753"/>
</g>
<g style="mix-blend-mode:multiply" opacity="0.65">
<path d="M101.46 115.51C101.55 118.82 98.25 117.63 98.25 117.63L99.76 116.98C99.76 116.85 99.57 112.92 99.56 112.98C99.55 113.04 101.39 112.99 101.46 115.51Z" fill="#AE8157"/>
</g>
<path d="M96.88 118.78H101.82C101.625 119.266 101.287 119.681 100.852 119.972C100.417 120.263 99.9035 120.416 99.38 120.41C98.8516 120.403 98.336 120.247 97.8933 119.958C97.4507 119.669 97.0992 119.261 96.88 118.78Z" fill="white"/>
<path d="M91.13 112.94H91.11C90.8156 112.94 90.5333 113.057 90.3251 113.265C90.1169 113.473 90 113.756 90 114.05V115.6C90 116.213 90.497 116.71 91.11 116.71H91.13C91.4244 116.71 91.7067 116.593 91.9149 116.385C92.1231 116.177 92.24 115.894 92.24 115.6V114.05C92.24 113.756 92.1231 113.473 91.9149 113.265C91.7067 113.057 91.4244 112.94 91.13 112.94ZM106.32 112.94H106.3C106.006 112.94 105.723 113.057 105.515 113.265C105.307 113.473 105.19 113.756 105.19 114.05V115.6C105.19 116.213 105.687 116.71 106.3 116.71H106.32C106.614 116.71 106.897 116.593 107.105 116.385C107.313 116.177 107.43 115.894 107.43 115.6V114.05C107.43 113.756 107.313 113.473 107.105 113.265C106.897 113.057 106.614 112.94 106.32 112.94Z" fill="#AE8157"/>
<path d="M93.27 104.93C93.27 104.93 98.27 112.34 106.44 112.55C108.27 112.6 107.97 98.6101 93.27 104.93Z" fill="#573A22"/>
<path d="M94.27 104.51C94.27 104.51 94.63 110.9 93.33 112.12C92.03 113.34 91.49 112.86 91.49 112.86C91.49 112.86 87.96 106.26 94.27 104.51Z" fill="#573A22"/>
<g style="mix-blend-mode:multiply">
<path d="M91.75 114.22C91.5034 114.25 91.273 114.359 91.093 114.53C90.9129 114.701 90.7926 114.925 90.75 115.17C90.7405 115.287 90.7587 115.404 90.8032 115.512C90.8477 115.62 90.9171 115.716 91.0059 115.792C91.0947 115.868 91.2003 115.922 91.314 115.95C91.4277 115.977 91.5463 115.977 91.66 115.95M106.18 114.3C106.352 114.528 106.472 114.791 106.53 115.07C106.552 115.211 106.524 115.355 106.451 115.477C106.378 115.6 106.264 115.693 106.13 115.74" fill="#AE8157"/>
</g>
<path d="M96.84 146.88L80.72 133.73C80.72 133.73 79.17 142.6 78.8 143.03C78.8 143.09 87.37 153.62 93.8 153.94C94.46 153.99 95.71 148.78 96.84 146.88Z" fill="#AE8157"/>
<path d="M85.71 131.31C81.58 132.05 76.98 134.38 77.33 140.81C77.77 149.07 85.88 153.06 85.88 153.06L90.88 140.06L85.71 131.31Z" fill="#FF595A"/>
<g style="mix-blend-mode:multiply" opacity="0.19">
<path d="M91.12 150.15C91.12 150.15 91.61 145 92.12 142.89C92.44 141.47 93.86 132.65 93.12 126.72C93.0229 126.243 92.896 125.772 92.74 125.31C92.5181 124.924 92.3307 124.519 92.18 124.1C92.0349 123.548 91.8339 123.012 91.58 122.5C91.7089 122.432 91.8511 122.393 91.9966 122.385C92.1421 122.377 92.2875 122.401 92.423 122.455C92.5582 122.509 92.68 122.592 92.7796 122.699C92.8793 122.805 92.9545 122.932 93 123.07C93.24 123.58 93.34 124.07 93.66 124C93.98 123.93 93.79 123.48 93.66 122.52C93.53 121.73 93.32 120.52 93.25 119.45C93.17 118.79 93.97 118.64 94.15 119.04C94.44 119.77 94.67 121.62 94.86 121.92C94.86 122.04 95.06 121.92 95.07 121.86C95.07 120.94 94.07 118.86 94.92 118.58C95.026 118.56 95.1356 118.578 95.23 118.63C95.394 118.774 95.506 118.967 95.55 119.18C95.55 119.26 95.55 119.34 95.62 119.41C95.775 120.106 95.965 120.793 96.19 121.47C96.2001 121.494 96.2168 121.514 96.2381 121.528C96.2594 121.542 96.2844 121.55 96.31 121.55C96.3356 121.55 96.3606 121.542 96.3819 121.528C96.4032 121.514 96.4199 121.494 96.43 121.47C96.4193 121.073 96.3519 120.679 96.23 120.3C96.05 119.46 95.85 118.46 96.23 118.3C96.61 118.14 96.76 118.58 96.93 119.16C97.22 120.16 97.39 121.51 97.46 121.56C97.53 121.61 97.67 121.56 97.64 121.47C97.64 121.11 97.51 120.18 97.47 119.53C97.47 119.2 97.84 118.99 98 119.14C98.286 120.034 98.513 120.946 98.68 121.87C99.043 124.504 99.127 127.169 98.93 129.82C98.93 132.63 98.93 145.02 98.63 149.89" fill="#2D1E11"/>
</g>
<path d="M88.91 150.15C88.91 150.15 89.4 145 89.91 142.89C90.22 141.47 91.65 132.65 90.91 126.72C90.8083 126.244 90.6814 125.773 90.53 125.31C90.3048 124.924 90.114 124.519 89.96 124.1C89.8177 123.548 89.6201 123.012 89.37 122.5C89.499 122.432 89.6411 122.393 89.7866 122.385C89.9321 122.377 90.0776 122.401 90.213 122.455C90.3482 122.509 90.47 122.592 90.5696 122.699C90.6693 122.805 90.7445 122.932 90.79 123.07C91.03 123.58 91.13 124.07 91.44 124C91.75 123.93 91.57 123.48 91.44 122.52C91.32 121.73 91.11 120.52 91.04 119.45C90.96 118.79 91.76 118.64 91.94 119.04C92.23 119.77 92.46 121.62 92.64 121.92C92.7 122.04 92.85 121.92 92.86 121.86C92.86 120.94 91.8 118.86 92.7 118.58C92.8092 118.559 92.9223 118.577 93.02 118.63C93.184 118.774 93.296 118.967 93.34 119.18L93.4 119.41C93.62 120.23 93.81 121.06 93.98 121.47C93.9871 121.495 94.0022 121.517 94.023 121.532C94.044 121.547 94.069 121.556 94.095 121.556C94.121 121.556 94.146 121.547 94.167 121.532C94.1877 121.517 94.2028 121.495 94.21 121.47C94.1997 121.073 94.1358 120.68 94.02 120.3C93.84 119.46 93.64 118.46 94.02 118.3C94.4 118.14 94.56 118.58 94.72 119.16C95.02 120.16 95.19 121.51 95.25 121.56C95.31 121.61 95.46 121.56 95.44 121.47C95.44 121.11 95.31 120.18 95.27 119.53C95.27 119.2 95.64 118.99 95.8 119.14C96.087 120.033 96.31 120.946 96.47 121.87C96.86 123.53 96.53 125.33 96.86 126.87C96.92 127.26 98.63 147.87 98.61 149.94" fill="#AE8157"/>
<path d="M93.85 153.94C94.4698 153.94 95.0836 153.818 95.6563 153.581C96.2289 153.344 96.7493 152.996 97.1876 152.558C97.6258 152.119 97.9735 151.599 98.2107 151.026C98.4479 150.454 98.57 149.84 98.57 149.22C98.57 148.6 98.4479 147.986 98.2107 147.414C97.9735 146.841 97.6258 146.321 97.1876 145.882C96.7493 145.444 96.2289 145.096 95.6563 144.859C95.0836 144.622 94.4698 144.5 93.85 144.5C92.5982 144.5 91.3976 144.997 90.5125 145.882C89.6273 146.768 89.13 147.968 89.13 149.22C89.13 150.472 89.6273 151.672 90.5125 152.558C91.3976 153.443 92.5982 153.94 93.85 153.94Z" fill="#AE8157"/>
<path d="M70.37 269.02C70.3653 270.986 69.5897 272.872 68.2098 274.272C66.8299 275.673 64.9558 276.476 62.99 276.51L38.99 276.76C38.0233 276.772 37.064 276.592 36.1673 276.23C35.2706 275.869 34.4545 275.334 33.766 274.655C33.0777 273.976 32.5309 273.167 32.1574 272.276C31.7839 271.384 31.591 270.427 31.59 269.46V232.07C31.5925 230.106 32.3683 228.222 33.7495 226.826C35.1307 225.43 37.0062 224.634 38.97 224.61L62.97 224.34C63.935 224.329 64.8926 224.51 65.7875 224.871C66.6824 225.233 67.4969 225.768 68.1839 226.445C68.871 227.123 69.417 227.93 69.7905 228.82C70.164 229.71 70.3575 230.665 70.36 231.63L70.37 269.02ZM41.7 283.05H41.56C40.9665 283.051 40.3862 282.875 39.8927 282.545C39.3992 282.215 39.0147 281.747 38.788 281.198C38.6193 280.788 38.5434 280.347 38.5658 279.904C38.5882 279.462 38.7084 279.03 38.9175 278.64C39.1267 278.249 39.4198 277.91 39.7757 277.646C40.1317 277.383 40.5416 277.201 40.976 277.115C41.4104 277.028 41.8586 277.039 42.2883 277.146C42.718 277.254 43.1186 277.455 43.4613 277.736C43.804 278.016 44.0802 278.37 44.2702 278.77C44.4602 279.17 44.5591 279.607 44.56 280.05C44.5613 280.822 44.2647 281.565 43.7319 282.124C43.1992 282.683 42.4713 283.014 41.7 283.05ZM41.53 279.37C41.345 279.38 41.1706 279.46 41.0424 279.593C40.9141 279.727 40.8418 279.905 40.84 280.09C40.84 280.232 40.8822 280.372 40.9613 280.49C41.0405 280.608 41.1529 280.701 41.2845 280.755C41.416 280.81 41.5608 280.824 41.7005 280.796C41.8401 280.768 41.9684 280.7 42.0691 280.599C42.1698 280.498 42.2384 280.37 42.2662 280.231C42.2939 280.091 42.2797 279.946 42.2252 279.815C42.1707 279.683 42.0784 279.57 41.96 279.491C41.8416 279.412 41.7024 279.37 41.56 279.37H41.53ZM64.35 283.07H64.2C63.505 282.948 62.8754 282.584 62.4215 282.044C61.9676 281.504 61.7186 280.821 61.718 280.115C61.7184 279.409 61.9674 278.726 62.4213 278.186C62.8752 277.646 63.5049 277.282 64.2 277.16C64.5879 277.158 64.9725 277.233 65.3312 277.381C65.69 277.528 66.0159 277.746 66.29 278.02C66.68 278.435 66.9439 278.953 67.0506 279.512C67.1574 280.072 67.1028 280.65 66.893 281.18C66.6833 281.71 66.3271 282.169 65.8662 282.503C65.4052 282.838 64.8585 283.035 64.29 283.07H64.35ZM64.17 279.4C64.0316 279.406 63.898 279.453 63.7856 279.534C63.6732 279.615 63.5869 279.727 63.5371 279.856C63.4874 279.986 63.4764 280.127 63.5055 280.262C63.5346 280.398 63.6025 280.522 63.701 280.619C63.8016 280.72 63.93 280.789 64.0698 280.817C64.2096 280.845 64.3546 280.831 64.4863 280.776C64.618 280.722 64.7306 280.629 64.8098 280.511C64.889 280.392 64.9311 280.253 64.931 280.11C64.9281 279.921 64.851 279.741 64.7163 279.608C64.5816 279.475 64.4002 279.4 64.211 279.4H64.17Z" fill="#004753"/>
<path d="M70.455 229.473L31.736 231.658L31.82 233.145L70.539 230.96L70.455 229.473Z" fill="white"/>
<g style="mix-blend-mode:multiply" opacity="0.2">
<path d="M31.55 269.3C31.5499 270.267 31.742 271.225 32.1151 272.117C32.4882 273.009 33.0349 273.818 33.7234 274.498C34.4119 275.177 35.2284 275.712 36.1257 276.073C37.0229 276.434 37.983 276.613 38.95 276.6L62.95 276.34C64.915 276.315 66.7909 275.517 68.172 274.119C69.5531 272.721 70.3283 270.835 70.33 268.87L70.23 264.58L31.57 261.31L31.55 269.3Z" fill="#A33E60"/>
</g>
<path opacity="0.18" d="M50.85 285.37C62.884 285.37 72.64 283.646 72.64 281.52C72.64 279.394 62.884 277.67 50.85 277.67C38.816 277.67 29.06 279.394 29.06 281.52C29.06 283.646 38.816 285.37 50.85 285.37Z" fill="#8E405F"/>
<path d="M56.88 200.95H45.41C44.9512 200.95 44.5111 201.132 44.1867 201.457C43.8623 201.781 43.68 202.221 43.68 202.68V226.47C43.68 227.425 44.455 228.2 45.41 228.2H56.88C57.3388 228.2 57.7788 228.018 58.1033 227.693C58.4277 227.369 58.61 226.929 58.61 226.47V202.68C58.61 202.221 58.4277 201.781 58.1033 201.457C57.7788 201.132 57.3388 200.95 56.88 200.95Z" stroke="#004753" stroke-width="2" stroke-miterlimit="10"/>
<path d="M241.69 241.16C241.69 241.66 244.45 258.16 246.51 258.51C248.57 258.86 265.44 258.73 268.59 258.73C271.59 258.73 288.59 258.81 290.66 258.51C292.9 258.18 295.49 241.68 295.49 241.16C295.49 240.16 274.49 238.69 268.24 238.69C261.99 238.69 241.69 240.17 241.69 241.16Z" fill="#CFDFE5"/>
<path d="M243.06 241.16C243.06 242.04 263.06 242.74 268.59 242.74C274.12 242.74 294.11 242.04 294.11 241.16C294.11 240.28 274.11 239.59 268.59 239.59C263.07 239.59 243.06 240.29 243.06 241.16Z" fill="#AAB8C1"/>
<path d="M273.88 218.09C273.88 218.09 265.88 217.29 268.49 240.3" stroke="#054752" stroke-width="2" stroke-miterlimit="10" stroke-linecap="round"/>
<path d="M268.27 232.42C267.27 229.32 267.98 227.96 261.17 224.42M268.2 235.84C268.2 235.84 272.73 228.7 276.53 226.34" stroke="#044752" stroke-width="1.53" stroke-miterlimit="10"/>
<path d="M275.5 226.89C275.5 226.89 273.93 232.51 281.82 234.89C289.71 237.27 293.9 235.75 293.9 235.75C292.382 231.437 289.258 227.877 285.18 225.81C278.25 222.21 275.5 226.87 275.5 226.87" fill="#7FBF55"/>
<path d="M274.96 223.98C275.411 222.453 276.369 221.125 277.676 220.216C278.983 219.307 280.562 218.871 282.15 218.98C288.15 218.98 290.26 221.37 290.26 221.37C287.841 224.352 284.511 226.46 280.78 227.37C274.92 228.57 274.96 224.01 274.96 224.01" fill="#9AED66"/>
<path d="M265.85 229.51C265.85 229.51 267.27 235.17 259.33 237.38C251.39 239.59 247.23 237.94 247.23 237.94C248.865 233.661 252.089 230.179 256.23 228.22C263.23 224.79 265.89 229.51 265.89 229.51" fill="#7FBF55"/>
<path d="M261.18 220.29C261.18 220.29 255.48 219.05 257.03 210.95C258.58 202.85 261.91 199.86 261.91 199.86C265.016 203.215 266.71 207.638 266.64 212.21C266.59 220.02 261.18 220.29 261.18 220.29Z" fill="#9AED66"/>
<path d="M262.54 224.25C262.54 224.25 258.76 228.69 252.36 223.49C245.96 218.29 244.89 213.95 244.89 213.95C249.316 212.802 254.013 213.4 258.01 215.62C264.87 219.36 262.54 224.25 262.54 224.25Z" fill="#7FBF55"/>
<path d="M273.62 218.68C273.62 218.68 269.31 214.75 274.72 208.52C280.13 202.29 284.5 201.38 284.5 201.38C285.492 205.824 284.736 210.478 282.39 214.38C278.39 221.11 273.62 218.63 273.62 218.63" fill="#C3F3A6"/>
<path d="M331.16 241.91C331.16 242.4 328.45 258.55 326.44 258.91C324.317 259.164 322.176 259.238 320.04 259.13C317.904 259.219 315.765 259.146 313.64 258.91C311.46 258.59 308.93 242.47 308.93 241.91C308.93 240.91 314.24 239.49 320.38 239.49C326.52 239.49 331.16 240.94 331.16 241.91Z" fill="#CFDFE5"/>
<path d="M329.81 241.91C329.81 242.76 325.44 243.45 320.04 243.45C314.64 243.45 310.28 242.76 310.28 241.91C310.28 241.06 314.65 240.37 320.04 240.37C325.43 240.37 329.81 241.06 329.81 241.91Z" fill="#AAB8C1"/>
<path d="M314.87 206.95C314.87 206.95 322.69 206.17 320.13 228.65C319.772 232.974 319.692 237.316 319.89 241.65" stroke="#054752" stroke-width="2" stroke-miterlimit="10" stroke-linecap="round"/>
<path d="M320.38 220.95C321.38 217.95 320.67 216.59 327.32 213.17M320.42 224.29C320.42 224.29 315.99 217.29 312.28 215.01" stroke="#044752" stroke-width="1.08" stroke-miterlimit="10"/>
<path d="M313.27 215.51C313.27 215.51 314.8 221 307.09 223.35C299.38 225.7 295.28 224.18 295.28 224.18C296.769 219.97 299.819 216.494 303.8 214.47C310.58 210.95 313.27 215.47 313.27 215.47" fill="#7FBF55"/>
<path d="M313.82 212.71C313.382 211.22 312.451 209.924 311.179 209.033C309.907 208.143 308.37 207.711 306.82 207.81C300.95 207.81 298.9 210.14 298.9 210.14C301.27 213.048 304.525 215.102 308.17 215.99C313.9 217.16 313.86 212.71 313.86 212.71" fill="#9AED66"/>
<path d="M322.72 218.12C322.72 218.12 321.32 223.65 329.09 225.81C336.86 227.97 340.91 226.36 340.91 226.36C339.327 222.181 336.193 218.774 332.16 216.85C325.3 213.5 322.72 218.12 322.72 218.12Z" fill="#7FBF55"/>
<path d="M327.27 209.1C327.27 209.1 332.84 207.89 331.32 199.97C329.8 192.05 326.56 189.14 326.56 189.14C323.525 192.415 321.87 196.735 321.94 201.2C321.99 208.83 327.27 209.1 327.27 209.1Z" fill="#9AED66"/>
<path d="M325.95 212.97C325.95 212.97 329.65 217.3 335.9 212.22C342.15 207.14 343.2 202.9 343.2 202.9C338.879 201.766 334.287 202.343 330.38 204.51C323.68 208.16 325.95 212.94 325.95 212.94" fill="#7FBF55"/>
<path d="M315.12 207.51C315.12 207.51 319.33 203.67 314.05 197.58C308.77 191.49 304.49 190.58 304.49 190.58C303.512 194.937 304.25 199.503 306.55 203.33C310.42 209.91 315.12 207.48 315.12 207.48" fill="#C3F3A6"/>
<path d="M242.973 10.3804L243.116 10.1968L252.51 10.0684C253.187 10.0582 253.533 10.3437 253.547 10.9248L253.572 11.9066C253.589 12.5224 253.239 12.8375 252.521 12.8517L250.001 12.8976C249.868 12.8996 249.802 12.9588 249.802 13.075L249.791 27.5056C249.791 28.2866 249.335 28.6791 248.423 28.6832H247.984C247.051 28.6872 246.584 28.2876 246.584 27.4842L246.598 13.0781C246.598 12.9374 246.516 12.867 246.352 12.867C245.276 12.8701 244.171 12.9496 243.134 12.6804C243.017 12.6499 242.944 12.5846 242.913 12.4847C242.709 11.7832 242.729 11.0818 242.973 10.3804Z" fill="white"/>
<path d="M328.916 28.3804C328.621 28.3926 328.329 28.4314 328.039 28.4966C325.926 28.9707 323.082 28.1449 322.248 26.3036C321.815 25.3513 321.592 24.4327 321.578 23.5478C321.528 20.3546 321.546 17.3479 321.631 14.5279C321.688 12.6927 322.651 10.8789 324.832 10.2519C325.594 10.0337 326.515 9.95728 327.594 10.0225C331.019 10.2305 332.163 12.6958 332.152 15.2987C332.14 18.186 332.145 20.9877 332.166 23.7038C332.171 24.3807 331.928 25.2249 331.439 26.2363C331.409 26.2988 331.402 26.3675 331.418 26.4339C331.434 26.5003 331.472 26.5614 331.528 26.6094C331.98 26.9908 332.394 27.4118 332.772 27.8727C333.228 28.4293 332.993 29.194 332.13 29.3133C331.371 29.4173 330.181 29.4937 329.639 28.9615C329.482 28.8066 329.327 28.6455 329.172 28.4783C329.106 28.4069 329.02 28.3743 328.916 28.3804ZM326.382 24.4715C326.432 24.3423 326.527 24.2289 326.653 24.1461C326.779 24.0632 326.932 24.0146 327.091 24.0066L328.677 23.924C328.724 23.9216 328.769 23.9038 328.801 23.8743C328.834 23.8447 328.852 23.8056 328.852 23.7649C328.871 20.7838 328.864 17.767 328.83 14.7145C328.826 14.3372 328.734 13.9794 328.556 13.6409C328.089 12.7478 326.653 12.6346 325.815 13.0873C324.864 13.6011 324.839 15.0234 324.839 15.941C324.836 18.3736 324.842 20.6788 324.857 22.8565C324.861 23.4642 324.953 24.0769 325.131 24.6948C325.266 25.1719 325.613 25.5043 326.172 25.6919C326.196 25.7002 326.222 25.7025 326.247 25.6985C326.273 25.6944 326.297 25.6842 326.316 25.6689C326.335 25.6537 326.349 25.634 326.357 25.6121C326.364 25.5902 326.364 25.567 326.357 25.5451C326.238 25.176 326.247 24.8181 326.382 24.4715Z" fill="white"/>
<path d="M193.931 19.6755C194.27 19.8896 194.566 20.1221 194.751 20.4585C196.045 22.7953 196.045 27.0132 192.841 28.3437C191.539 28.8861 190.196 28.9064 188.814 28.4048C187.074 27.7717 186.444 26.3341 186.141 24.8201C186.009 24.1778 185.745 22.6821 186.64 22.364C187.27 22.1408 188.956 22.0031 189.213 22.8167C189.462 23.612 189.238 24.6855 189.74 25.3829C190.407 26.3127 191.618 26.0589 191.996 25.129C192.242 24.5234 192.253 23.7313 192.231 23.1073C192.178 21.5138 190.984 20.9357 189.32 20.7613C189.128 20.7415 188.948 20.6711 188.806 20.5597C188.663 20.4484 188.565 20.3018 188.525 20.1404C188.406 19.6633 188.413 19.2055 188.546 18.7671C188.603 18.5856 188.726 18.4245 188.897 18.3072C189.069 18.19 189.279 18.1229 189.498 18.1156C192.249 18.03 192.648 15.8216 192.057 13.9956C191.857 13.3717 191.013 12.5979 190.214 13.1301C189.302 13.7357 189.313 15.0264 189.302 15.9409C189.302 16.0429 189.269 16.1347 189.202 16.2162C188.518 17.0635 186.037 17.1093 186.037 15.7024C186.03 13.2585 186.846 10.7137 189.847 10.1754C192.214 9.75334 194.395 11.0196 195.104 12.8731C195.802 14.7083 195.745 16.8065 194.705 18.5622C194.512 18.8803 194.149 19.1097 193.889 19.3788C193.779 19.491 193.794 19.5899 193.931 19.6755Z" fill="white"/>
<path d="M285.127 19.9111C285.937 20.7064 286.329 21.8564 286.303 23.3613C286.279 24.8702 286.264 26.3353 286.257 27.7565C286.254 28.411 285.872 28.7373 285.109 28.7353H284.25C283.459 28.7332 283.059 28.3927 283.049 27.7137C283.023 26.1925 283.007 24.7529 283.003 23.3949C283 22.7424 282.933 22.2867 282.8 22.0277C282.265 20.9908 280.711 20.9939 279.567 21.0367C279.481 21.0399 279.399 21.0719 279.339 21.126C279.28 21.1802 279.246 21.2523 279.246 21.3273L279.225 27.6953C279.223 28.3784 278.822 28.723 278.024 28.7291L277.283 28.7322C276.416 28.7383 275.982 28.3682 275.982 27.6219L276.003 11.0105C276.004 10.8879 276.033 10.7666 276.088 10.6537C276.144 10.5408 276.225 10.4385 276.327 10.3528C276.43 10.2671 276.551 10.1997 276.683 10.1546C276.816 10.1094 276.958 10.0875 277.101 10.0899C280.693 10.1541 285.433 9.261 286.306 13.4452C286.713 15.3721 286.777 18.079 285.134 19.5716C285.084 19.6175 285.056 19.6775 285.054 19.7402C285.053 19.8029 285.079 19.8638 285.127 19.9111ZM279.221 13.332L279.2 17.9322C279.2 18.0166 279.239 18.0975 279.309 18.1571C279.378 18.2168 279.472 18.2503 279.571 18.2503L281.032 18.2564C281.629 18.2579 282.203 18.0468 282.627 17.6694C283.05 17.2919 283.289 16.7792 283.291 16.2438L283.299 15.0449C283.3 14.7797 283.242 14.517 283.13 14.2718C283.018 14.0265 282.852 13.8035 282.644 13.6155C282.436 13.4275 282.188 13.2781 281.915 13.176C281.642 13.0738 281.349 13.0208 281.053 13.02L279.592 13.0139C279.543 13.0139 279.495 13.0222 279.45 13.0381C279.405 13.0541 279.364 13.0776 279.33 13.1071C279.296 13.1366 279.268 13.1717 279.25 13.2103C279.231 13.2489 279.221 13.2903 279.221 13.332Z" fill="white"/>
<path d="M295.351 13.1393L295.341 17.8129C295.341 17.8737 295.369 17.9321 295.419 17.9751C295.469 18.0181 295.537 18.0423 295.608 18.0423L299.19 18.0484C300.076 18.0504 300.527 18.4328 300.544 19.1954C300.546 19.3606 300.549 19.5257 300.551 19.6909C300.565 20.4351 300.14 20.8073 299.275 20.8073L295.526 20.8103C295.412 20.8103 295.355 20.8593 295.355 20.9572L295.341 25.7928C295.341 25.841 295.363 25.8872 295.402 25.9215C295.441 25.9559 295.495 25.9756 295.551 25.9764L300.17 26.0039C301.001 26.01 301.414 26.3689 301.406 27.0805L301.399 27.7137C301.392 28.3886 300.997 28.7261 300.213 28.7261L293.153 28.7383C292.895 28.7391 292.647 28.6527 292.462 28.4977C292.278 28.3427 292.171 28.1314 292.165 27.9094C292.044 22.4467 292.151 17.0176 292.155 11.3317C292.155 11.0503 292.231 10.7607 292.383 10.463C292.438 10.3556 292.528 10.2642 292.642 10.1996C292.757 10.135 292.891 10.1001 293.028 10.099L300.191 10.0868C300.935 10.0848 301.324 10.4029 301.36 11.0411L301.41 11.87C301.45 12.5796 301.056 12.9374 300.227 12.9436L295.544 12.9772C295.416 12.9772 295.351 13.0312 295.351 13.1393Z" fill="white"/>
<path d="M310.156 21.0244L310.159 25.6919C310.162 25.8795 310.272 25.9733 310.491 25.9733L315.006 26.0039C315.807 26.01 316.204 26.3566 316.196 27.0438L316.189 27.7473C316.185 28.3692 315.82 28.6873 315.095 28.7016C313.209 28.7383 311.068 28.7515 308.673 28.7414C308.091 28.7373 307.609 28.6537 307.226 28.4906C306.984 28.3866 306.861 28.2173 306.859 27.9828C306.847 22.2795 306.842 16.9106 306.845 11.8761C306.847 11.4561 306.897 11.0482 306.995 10.6527C307.021 10.5487 307.084 10.4651 307.183 10.4018C307.495 10.2041 307.869 10.1031 308.306 10.099C310.587 10.0827 312.843 10.0837 315.074 10.1021C315.775 10.1062 316.138 10.409 316.164 11.0105L316.204 11.9526C316.232 12.6051 315.865 12.9344 315.102 12.9405L310.377 12.9833C310.316 12.9841 310.258 13.0051 310.215 13.0417C310.172 13.0784 310.149 13.1277 310.149 13.1791L310.145 17.7456C310.145 17.8221 310.181 17.8956 310.244 17.95C310.307 18.0044 310.393 18.0354 310.484 18.0362L314.065 18.0545C314.951 18.0586 315.387 18.4409 315.373 19.2015L315.362 19.7123C315.351 20.4382 314.922 20.8012 314.076 20.8012L310.412 20.8042C310.241 20.8042 310.156 20.8776 310.156 21.0244Z" fill="white"/>
<path d="M208.13 23.7924L205.532 23.7863C205.452 23.7854 205.375 23.808 205.312 23.8504C205.25 23.8927 205.207 23.9522 205.19 24.0188L204.213 27.7319C204.021 28.4558 203.493 28.7963 202.631 28.7535C202.412 28.7433 202.196 28.726 201.982 28.7015C201.084 28.6016 200.735 28.1724 200.934 27.4138C202.353 21.996 203.814 16.5955 205.318 11.2123C205.406 10.9024 205.557 10.623 205.77 10.3742C205.844 10.2906 205.94 10.2376 206.059 10.2152C206.665 10.101 207.179 10.0918 207.602 10.1877C208.004 10.2794 208.251 10.4986 208.344 10.8453L212.781 27.3588C212.999 28.1703 212.626 28.6251 211.662 28.7229L211.234 28.7658C210.257 28.8636 209.667 28.5007 209.463 27.6769L208.572 24.0952C208.519 23.8934 208.372 23.7924 208.13 23.7924ZM206.023 20.746C206.02 20.7615 206.02 20.7775 206.025 20.7929C206.029 20.8082 206.037 20.8225 206.049 20.8348C206.06 20.8471 206.075 20.857 206.092 20.8639C206.108 20.8707 206.126 20.8744 206.145 20.8745L207.567 20.8867C207.585 20.8869 207.602 20.8837 207.619 20.8774C207.635 20.8711 207.65 20.8618 207.662 20.8502C207.674 20.8386 207.682 20.8249 207.688 20.8101C207.693 20.7953 207.694 20.7797 207.691 20.7644L207.032 17.1858C207.028 17.1608 207.013 17.138 206.991 17.1214C206.968 17.1049 206.94 17.0956 206.911 17.0952C206.881 17.0948 206.853 17.1034 206.83 17.1194C206.807 17.1355 206.792 17.1579 206.786 17.1827L206.023 20.746Z" fill="white"/>
<path d="M221.765 25.906C223.416 26.0303 224.893 26.0477 226.195 25.958C227.017 25.9009 227.441 26.2261 227.467 26.9337C227.467 26.9459 227.475 27.2089 227.492 27.7228C227.516 28.3916 227.139 28.727 226.362 28.7291C224.412 28.7332 222.156 28.7372 219.595 28.7413C218.201 28.7413 218.322 27.7442 218.322 26.7257C218.306 21.6871 218.321 16.4691 218.369 11.0716C218.373 10.4701 218.727 10.1683 219.431 10.1663L220.5 10.1632C221.215 10.1612 221.574 10.4681 221.576 11.0839L221.598 25.75C221.598 25.8458 221.653 25.8978 221.765 25.906Z" fill="white"/>
<path d="M263.59 24.0402L262.632 27.6922C262.437 28.4405 261.894 28.7913 261.003 28.7444C260.82 28.7362 260.642 28.725 260.468 28.7107C259.516 28.6291 259.144 28.1877 259.353 27.3863C261.244 20.1598 262.711 14.7195 263.754 11.0655C263.818 10.8433 263.975 10.5986 264.225 10.3314C264.303 10.2478 264.404 10.1979 264.528 10.1816C265.058 10.1163 265.583 10.1235 266.103 10.203C266.231 10.2213 266.329 10.2774 266.395 10.3712C266.609 10.6648 266.741 10.9014 266.791 11.0808C267.964 15.2568 269.427 20.7144 271.178 27.4536C271.38 28.2325 271.017 28.6485 270.091 28.7015L269.528 28.7352C268.608 28.7902 268.054 28.4314 267.863 27.6585L266.962 24.0004C266.948 23.9426 266.911 23.8906 266.857 23.8533C266.803 23.8159 266.736 23.7955 266.666 23.7955L263.95 23.7924C263.753 23.7924 263.633 23.875 263.59 24.0402ZM264.442 20.7583C264.439 20.7731 264.44 20.7884 264.444 20.803C264.449 20.8176 264.457 20.8312 264.468 20.8428C264.479 20.8545 264.493 20.8639 264.509 20.8704C264.525 20.8769 264.542 20.8804 264.56 20.8806L265.957 20.8959C265.974 20.8961 265.992 20.893 266.008 20.8868C266.024 20.8807 266.038 20.8716 266.049 20.8603C266.061 20.8489 266.069 20.8356 266.074 20.8211C266.079 20.8067 266.081 20.7915 266.078 20.7766L265.433 17.1369C265.428 17.1127 265.413 17.0909 265.392 17.0751C265.37 17.0593 265.342 17.0507 265.314 17.0507C265.285 17.0507 265.257 17.0593 265.235 17.0751C265.214 17.0909 265.199 17.1127 265.194 17.1369L264.442 20.7583Z" fill="white"/>
</g>
<defs>
<clipPath id="clip0_171_1987">
<rect width="423" height="286" fill="white"/>
</clipPath>
</defs>
</svg>
