<svg width="96" height="45" viewBox="0 0 96 45" fill="none" xmlns="http://www.w3.org/2000/svg">
<path d="M80.0499 38.6178C79.8402 39.2039 79.7119 39.8737 79.3865 40.389C78.0597 42.4865 76.3594 43.7242 74.2858 44.1021C71.0845 44.6882 68.1962 43.239 66.4907 40.3568C66.1684 39.8093 66.0338 39.191 65.8273 38.5888C65.7856 38.4707 65.7032 38.4117 65.5801 38.4117L28.204 38.4149C28.1363 38.4147 28.0704 38.4368 28.0162 38.4781C27.9621 38.5193 27.9225 38.5773 27.9036 38.6435C27.2506 40.8957 25.9227 42.5134 23.92 43.4967C20.3182 45.2614 16.3753 43.8219 14.3507 40.3954C14.0127 39.8222 13.8969 39.1685 13.6434 38.5501C13.5976 38.4385 13.5151 38.3848 13.3962 38.3891C11.5187 38.4503 9.35946 38.5823 7.56951 37.964C4.28586 36.8326 2.07658 34.5203 0.941697 31.0273C0.59539 29.9603 0.435797 28.4542 0.462917 26.5091C0.53802 20.9528 0.536979 15.8528 0.45979 11.2089C0.395118 7.21994 1.90239 4.10367 4.9816 1.86013C6.88107 0.478575 9.40014 0.0438185 11.7972 0.0663613C13.7478 0.0835368 15.6556 0.0910534 17.5206 0.0889065C18.062 0.0889065 18.6284 -0.0560158 19.1572 0.0341554C19.3742 0.0706532 19.5922 0.0889065 19.8113 0.0889065C23.9899 0.0738779 27.9213 0.0717296 31.6055 0.0824643C32.1437 0.0856847 32.7227 -0.0624548 33.239 0.0309367C33.4434 0.0674346 33.6479 0.0856829 33.8523 0.0856829C37.5157 0.0770952 41.3282 0.0781718 45.2899 0.0889065C45.7029 0.0889065 46.1129 0.0695815 46.5197 0.0309367C47.0579 -0.0173693 47.5742 0.0889065 48.1218 0.0889065C52.0042 0.0760249 55.8866 0.0760249 59.769 0.0889065C60.0861 0.0910534 60.397 0.0706568 60.7016 0.0277181C61.1303 -0.0302491 61.5277 0.0856829 61.9564 0.0856829C65.7637 0.0749483 69.5574 0.0749483 73.3376 0.0856829C73.736 0.0878299 74.1335 0.0685098 74.5298 0.0277181C75.0806 -0.0270287 75.5907 0.0856847 76.1352 0.0824643C78.4446 0.060995 80.8301 0.067435 83.2918 0.101786C88.4614 0.169414 92.3636 4.18847 93.1491 9.37331C93.1557 9.42095 93.1789 9.46459 93.2145 9.49644C93.25 9.5283 93.2956 9.54629 93.3431 9.54722L95.374 9.60196C95.7307 9.6127 95.9091 9.80056 95.9091 10.1655L95.8903 20.6479C95.8903 20.9635 95.7359 21.1213 95.4272 21.1213H93.6842C93.3879 21.1213 93.2408 21.2748 93.2429 21.5818C93.2513 23.4969 93.2523 25.5064 93.2461 27.6104C93.2273 33.6358 88.8526 38.5212 82.8475 38.4278C82.0172 38.4149 81.1879 38.4052 80.3597 38.3988C80.2053 38.3966 80.102 38.4696 80.0499 38.6178ZM85.1537 21.1213C85.0373 21.1205 84.9258 21.0723 84.8438 20.9872C84.7617 20.9021 84.7156 20.7871 84.7156 20.6673L84.6781 10.1462C84.6781 9.99986 84.7344 9.85946 84.8346 9.75567C84.9349 9.65189 85.071 9.59315 85.2132 9.5923L88.7493 9.56332C88.7826 9.56361 88.8156 9.55618 88.8457 9.54159C88.8759 9.527 88.9025 9.50561 88.9235 9.47902C88.9445 9.45242 88.9595 9.4213 88.9672 9.38795C88.975 9.3546 88.9754 9.31988 88.9683 9.28637C88.4395 6.71649 86.4367 4.69086 83.9584 4.31407C83.7226 4.27972 82.6149 4.26254 80.6351 4.26254C56.1891 4.26684 32.9355 4.25932 10.874 4.24C7.71346 4.23678 4.69683 6.6553 4.67493 10.0045C4.63946 15.243 4.63634 20.6297 4.66554 26.1645C4.66763 26.6261 4.66137 27.1231 4.64677 27.6555C4.55915 30.57 5.94229 32.8694 8.66789 33.9192C10.1136 34.4763 12.0193 34.1897 13.6028 34.2606C13.6622 34.2624 13.7207 34.2451 13.7701 34.211C13.8195 34.177 13.8573 34.1279 13.8781 34.0706C15.0047 30.9468 17.8961 28.905 21.1381 29.124C24.2194 29.3323 26.4036 30.9715 27.6908 34.0416C27.7151 34.0989 27.7553 34.1476 27.8064 34.1819C27.8575 34.2163 27.9174 34.2346 27.9787 34.2348H65.7209C65.8398 34.2348 65.9316 34.1833 65.9963 34.0802C66.1903 33.7743 66.2936 33.3814 66.4719 33.0593C67.8113 30.6183 69.8703 29.3044 72.6491 29.1176C75.8692 28.8986 78.648 30.9886 79.8465 34.0609C79.9028 34.2026 80.005 34.2702 80.1532 34.2638C80.9626 34.2251 81.7835 34.2219 82.6159 34.2541C85.4729 34.3604 87.9701 32.7051 88.8025 29.9162C89.0382 29.1262 89.1363 28.2341 89.0966 27.2401C89.0153 25.2789 89.1092 23.3273 89.0998 21.3307C89.0998 21.2083 89.0403 21.1471 88.9214 21.1471L85.1537 21.1213Z" fill="#03609F"/>
<path d="M43.1713 9.70825H32.9135C32.656 9.70825 32.4473 9.92309 32.4473 10.1881V20.809C32.4473 21.074 32.656 21.2888 32.9135 21.2888H43.1713C43.4288 21.2888 43.6376 21.074 43.6376 20.809V10.1881C43.6376 9.92309 43.4288 9.70825 43.1713 9.70825Z" fill="#047DCF"/>
<path d="M69.0661 9.72107H59.1338C58.7812 9.72107 58.4954 10.0152 58.4954 10.378V20.6318C58.4954 20.9946 58.7812 21.2887 59.1338 21.2887H69.0661C69.4187 21.2887 69.7045 20.9946 69.7045 20.6318V10.378C69.7045 10.0152 69.4187 9.72107 69.0661 9.72107Z" fill="#5BB5F1"/>
<path d="M29.875 9.73083H19.8989C19.5307 9.73083 19.2323 10.0379 19.2323 10.4168V20.5868C19.2323 20.9656 19.5307 21.2727 19.8989 21.2727H29.875C30.2431 21.2727 30.5415 20.9656 30.5415 20.5868V10.4168C30.5415 10.0379 30.2431 9.73083 29.875 9.73083Z" fill="#31A2EE"/>
<path d="M55.8449 9.71472H45.8375C45.4988 9.71472 45.2242 9.99732 45.2242 10.3459V20.6576C45.2242 21.0062 45.4988 21.2888 45.8375 21.2888H55.8449C56.1837 21.2888 56.4583 21.0062 56.4583 20.6576V10.3459C56.4583 9.99732 56.1837 9.71472 55.8449 9.71472Z" fill="#047DCF"/>
<path d="M82.1492 9.70573L72.1981 9.72361C71.8525 9.72423 71.5728 10.0131 71.5734 10.3688L71.5908 20.6483C71.5914 21.004 71.8721 21.2919 72.2177 21.2913L82.1688 21.2734C82.5145 21.2728 82.7942 20.9839 82.7936 20.6282L82.7762 10.3487C82.7756 9.99297 82.4949 9.70511 82.1492 9.70573Z" fill="#31A2EE"/>
<path d="M16.6726 9.75012H6.70894C6.36847 9.75012 6.09247 10.0342 6.09247 10.3845V20.6254C6.09247 20.9758 6.36847 21.2598 6.70894 21.2598H16.6726C17.013 21.2598 17.289 20.9758 17.289 20.6254V10.3845C17.289 10.0342 17.013 9.75012 16.6726 9.75012Z" fill="#5BB5F1"/>
</svg>
