<svg width="460" height="320" viewBox="0 0 460 320" fill="none" xmlns="http://www.w3.org/2000/svg">
<path d="M460 0H0V320H460V0Z" fill="white"/>
<path opacity="0.33" d="M460 0H0V236.85H460V0Z" fill="#2ED1FF"/>
<mask id="mask0_171_2105" style="mask-type:luminance" maskUnits="userSpaceOnUse" x="0" y="0" width="460" height="320">
<path d="M460 0H0V320H460V0Z" fill="white"/>
</mask>
<g mask="url(#mask0_171_2105)">
<path d="M-101.76 250.16L-24.49 131.53L22.13 193.58L102.33 71.15L197.86 250.16H-101.76Z" fill="#669198"/>
<path d="M217.72 250.65C217.72 250.65 250.78 208.6 286.16 206.52C321.54 204.44 339.79 246.27 368 246.27C396.21 246.27 492.85 85.6 568.45 85.6C644.05 85.6 692.83 179.05 716.18 201.11C739.53 223.17 754.1 154.9 792 154.9C829.9 154.9 887.25 250.65 887.25 250.65H217.72Z" fill="#669198"/>
<path d="M414.28 172.25C414.17 175.53 414.11 178.81 414.07 182.09C414.03 185.37 413.94 188.65 413.94 191.93C413.89 198.49 413.94 205.05 413.94 211.61C413.94 218.17 414.06 224.73 414.19 231.3C414.27 234.58 414.25 237.86 414.41 241.14C414.552 244.467 415.065 247.767 415.94 250.98H410.58C411.456 247.768 411.966 244.467 412.1 241.14C412.27 237.86 412.25 234.58 412.33 231.3C412.46 224.73 412.52 218.17 412.58 211.61C412.64 205.05 412.63 198.49 412.58 191.93C412.58 188.65 412.49 185.37 412.45 182.09C412.41 178.81 412.35 175.53 412.24 172.25H414.28Z" fill="#004753"/>
<path d="M401.75 184.73C401.75 200.14 401.75 213.98 412.34 213.98C423.26 213.98 424.34 200.14 423.26 184.73C422.18 168.49 417.81 150.73 412.34 150.73C406.87 150.73 401.75 168.47 401.75 184.73Z" fill="#054752"/>
<path d="M228.08 158.31C227.61 174.01 227.61 189.71 227.68 205.41C227.75 213.26 227.82 221.11 227.98 228.96L228.08 234.84C228.08 236.84 228.08 238.77 228.25 240.73C228.415 244.712 229.026 248.664 230.07 252.51H223.66C224.704 248.664 225.315 244.712 225.48 240.73C225.6 238.73 225.61 236.81 225.65 234.84L225.75 228.96C225.91 221.11 225.98 213.26 226.05 205.41C226.12 189.71 226.12 174.01 225.65 158.31H228.08Z" fill="#004753"/>
<path d="M213.09 173.24C213.09 191.69 213.09 208.24 225.76 208.24C238.83 208.24 240.06 191.69 238.83 173.24C237.54 153.81 232.31 132.57 225.76 132.57C219.21 132.57 213.09 153.79 213.09 173.24Z" fill="#054752"/>
<path d="M453 139.32C452.66 148.69 452.54 158.06 452.46 167.43C452.38 176.8 452.41 186.17 452.46 195.54C452.51 204.91 452.65 214.28 452.86 223.64L453 230.64C453.05 232.98 453.06 235.33 453.22 237.64C453.453 242.408 454.283 247.128 455.69 251.69H447C448.409 247.129 449.235 242.408 449.46 237.64C449.62 235.3 449.64 232.95 449.69 230.64L449.83 223.64C450.04 214.28 450.13 204.91 450.23 195.54C450.33 186.17 450.31 176.8 450.23 167.43C450.15 158.06 450.02 148.69 449.69 139.32H453Z" fill="#054752"/>
<path d="M430.16 157.14C430.16 179.14 430.16 198.92 449.62 198.92C469.69 198.92 471.62 179.16 469.69 157.14C467.69 133.95 459.69 108.6 449.62 108.6C439.55 108.6 430.16 133.92 430.16 157.14Z" fill="#054752"/>
<path d="M141 84.44V84.34C141 81.34 137.82 78.84 133.89 78.84C129.96 78.84 126.8 81.29 126.79 84.32C126.564 84.3047 126.336 84.3047 126.11 84.32C123.95 84.32 122.2 85.68 122.2 87.32V87.43C120.44 87.43 119.01 88.53 119.01 89.9C119.01 91.09 105.18 92.09 106.63 92.32H159C162 92.32 143.76 90.42 143.76 88.07C143.7 87.263 143.407 86.4908 142.917 85.8466C142.427 85.2024 141.761 84.7139 141 84.44Z" fill="white"/>
<path d="M255.22 59V58.84C255.22 54.09 250.22 50.25 244.13 50.25C238.04 50.25 233.06 54.07 233.03 58.8C232.682 58.7562 232.331 58.7328 231.98 58.73C228.6 58.73 225.87 60.85 225.87 63.46V63.63H225.8C223.04 63.63 220.8 65.36 220.8 67.49C220.8 69.35 199.22 70.9 201.48 71.27V71.35H283.22C287.95 71.35 259.43 68.35 259.43 64.72C259.44 62.32 257.74 60.19 255.22 59Z" fill="white"/>
<path d="M347.22 123.36L348.41 250.99H343.78L344.97 123.36H347.22Z" fill="#AAB8C1"/>
<path d="M344.88 124.35C344.32 125.35 343.71 126.2 343.1 127.09C342.49 127.98 341.85 128.86 341.21 129.72C339.92 131.46 338.59 133.14 337.21 134.8C334.48 138.11 331.6 141.28 328.63 144.36C325.66 147.44 322.56 150.36 319.32 153.24C317.7 154.65 316.04 156.03 314.32 157.36L313.03 158.36C312.59 158.68 312.16 159.01 311.71 159.36C310.83 159.99 309.93 160.62 308.99 161.2C308.918 161.245 308.832 161.259 308.749 161.241C308.667 161.222 308.595 161.171 308.55 161.1C308.523 161.051 308.509 160.996 308.509 160.94C308.509 160.884 308.523 160.829 308.55 160.78C309.08 159.78 309.66 158.88 310.25 157.96C310.54 157.5 310.84 157.05 311.14 156.59L312.06 155.25C313.29 153.47 314.58 151.74 315.9 150.05C318.55 146.65 321.35 143.41 324.26 140.27C327.17 137.13 330.19 134.09 333.35 131.18C334.93 129.73 336.54 128.3 338.2 126.92C339.03 126.23 339.87 125.55 340.72 124.92C341.57 124.29 342.45 123.61 343.36 122.99C343.561 122.86 343.801 122.801 344.04 122.823C344.279 122.845 344.503 122.946 344.677 123.111C344.851 123.276 344.965 123.495 345 123.732C345.035 123.97 344.989 124.212 344.87 124.42L344.88 124.35Z" fill="#AAB8C1"/>
<path d="M343.82 118.78C343.21 117.86 342.66 116.93 342.13 115.99C341.6 115.05 341.08 114.09 340.58 113.14C339.58 111.23 338.64 109.29 337.74 107.34C335.95 103.44 334.34 99.48 332.86 95.46C331.38 91.44 330.04 87.36 328.86 83.21C328.3 81.14 327.77 79.05 327.31 76.93L327 75.34C326.9 74.8 326.79 74.27 326.7 73.73C326.51 72.66 326.34 71.58 326.22 70.48C326.212 70.3967 326.236 70.3133 326.288 70.2478C326.341 70.1824 326.417 70.1401 326.5 70.13C326.556 70.1235 326.612 70.1322 326.663 70.1551C326.714 70.1779 326.758 70.2142 326.79 70.26C327.44 71.16 328.03 72.08 328.6 73.01C328.89 73.47 329.16 73.94 329.44 74.41L330.26 75.82C331.32 77.7 332.32 79.62 333.26 81.55C335.17 85.4 336.87 89.34 338.43 93.32C339.99 97.3 341.43 101.32 342.67 105.45C343.29 107.51 343.88 109.58 344.4 111.67C344.66 112.67 344.91 113.77 345.13 114.83C345.35 115.89 345.56 116.95 345.72 118.04C345.759 118.281 345.714 118.528 345.592 118.739C345.47 118.951 345.279 119.114 345.052 119.2C344.824 119.287 344.573 119.293 344.341 119.216C344.109 119.14 343.911 118.986 343.78 118.78H343.82Z" fill="#AAB8C1"/>
<path d="M349 120.81C350.09 120.68 351.17 120.59 352.25 120.53C353.33 120.47 354.41 120.43 355.49 120.4C357.637 120.347 359.787 120.347 361.94 120.4C366.23 120.51 370.5 120.82 374.76 121.27C379.02 121.72 383.27 122.33 387.49 123.14C389.6 123.55 391.71 124 393.81 124.53L395.38 124.94C395.91 125.09 396.43 125.23 396.95 125.39C398 125.69 399.05 126.02 400.08 126.39C400.12 126.403 400.157 126.425 400.189 126.453C400.22 126.481 400.246 126.515 400.264 126.554C400.282 126.592 400.291 126.634 400.292 126.676C400.293 126.719 400.286 126.761 400.27 126.8C400.25 126.851 400.218 126.896 400.176 126.931C400.134 126.966 400.084 126.99 400.03 127C398.93 127.18 397.85 127.3 396.76 127.4C396.22 127.46 395.68 127.49 395.14 127.54L393.51 127.64C391.35 127.77 389.19 127.81 387.04 127.81C382.74 127.81 378.46 127.61 374.19 127.24C369.92 126.87 365.67 126.38 361.43 125.68C359.32 125.33 357.2 124.94 355.1 124.48C354.04 124.25 352.99 124.01 351.94 123.74C350.89 123.47 349.84 123.19 348.8 122.85C348.531 122.763 348.308 122.573 348.179 122.322C348.05 122.071 348.025 121.779 348.11 121.51C348.179 121.322 348.299 121.158 348.456 121.034C348.613 120.91 348.801 120.833 349 120.81Z" fill="#AAB8C1"/>
<path d="M346.1 124.19C347.735 124.19 349.06 122.865 349.06 121.23C349.06 119.595 347.735 118.27 346.1 118.27C344.465 118.27 343.14 119.595 343.14 121.23C343.14 122.865 344.465 124.19 346.1 124.19Z" fill="#AAB8C1"/>
</g>
<path d="M423.14 165.89H44.7V236.15H423.14V165.89Z" fill="white"/>
<g style="mix-blend-mode:multiply" opacity="0.18">
<path d="M36.86 273.35L424.16 272.59L406.03 268.81L63.87 268.22L36.86 273.35Z" fill="#8E415F"/>
</g>
<path d="M303 209.14C303.11 209.04 303 208.82 302.74 208.87C302.29 208.95 301.63 209.1 301.38 209.16C301.3 209.16 301.3 209.1 301.32 209.06C301.34 209.02 302.32 208.77 303.03 208.5C303.44 208.34 303.74 208.2 303.66 208C303.54 207.65 301.53 208.52 301.45 208.42C301.37 208.32 301.4 208.32 301.45 208.28C301.75 208.13 302.34 207.95 302.92 207.73C303.5 207.51 303.55 207.43 303.53 207.24C303.38 206.72 301.88 207.58 301.23 207.64C301.16 207.64 301.12 207.57 301.23 207.52C301.34 207.47 302.75 207.07 303.23 206.82C303.53 206.67 303.44 206.21 302.99 206.32C302.23 206.46 301.38 206.71 300.82 206.86C300.26 207.01 299.82 207.11 299.82 207C299.82 206.89 300.13 206.71 300.49 206.53C300.85 206.35 301.1 205.95 300.95 205.61C300.584 205.819 300.199 205.993 299.8 206.13C299.501 206.265 299.21 206.418 298.93 206.59C298.29 206.87 295.06 207.2 294.82 207.32C294.82 207.32 295.56 210.32 295.71 211.05C295.71 211.05 297.19 210.75 297.64 210.61C298.74 210.27 299.87 210.21 301.04 209.82C301.71 209.6 302.6 209.36 303 209.14Z" fill="#F9DECC"/>
<path d="M281.46 208.31L282.09 213.36C282.09 213.36 282.84 213.69 286.83 213.13C294.08 212.13 297.33 210.59 297.33 210.59L296.79 207.18L281.46 208.31Z" fill="#F9DECC"/>
<g style="mix-blend-mode:multiply" opacity="0.25">
<path d="M303 209.14C303.11 209.04 303 208.82 302.74 208.87C302.29 208.95 301.63 209.1 301.38 209.16C301.3 209.16 301.3 209.1 301.32 209.06C301.34 209.02 302.32 208.77 303.03 208.5C303.44 208.34 303.74 208.2 303.66 208C303.54 207.65 301.53 208.52 301.45 208.42C301.37 208.32 301.4 208.32 301.45 208.28C301.75 208.13 302.34 207.95 302.92 207.73C303.5 207.51 303.55 207.43 303.53 207.24C303.38 206.72 301.88 207.58 301.23 207.64C301.16 207.64 301.12 207.57 301.23 207.52C301.34 207.47 302.75 207.07 303.23 206.82C303.53 206.67 303.44 206.21 302.99 206.32C302.23 206.46 301.38 206.71 300.82 206.86C300.26 207.01 299.82 207.11 299.82 207C299.82 206.89 300.13 206.71 300.49 206.53C300.85 206.35 301.1 205.95 300.95 205.61C300.584 205.819 300.199 205.993 299.8 206.13C299.501 206.265 299.21 206.418 298.93 206.59C298.29 206.87 295.06 207.2 294.82 207.32C294.82 207.32 295.56 210.32 295.71 211.05C295.71 211.05 297.19 210.75 297.64 210.61C298.74 210.27 299.87 210.21 301.04 209.82C301.71 209.6 302.6 209.36 303 209.14Z" fill="#8F4261"/>
<path d="M281.46 208.31L282.09 213.36C282.09 213.36 282.84 213.69 286.83 213.13C294.08 212.13 297.33 210.59 297.33 210.59L296.79 207.18L281.46 208.31Z" fill="#8F4261"/>
</g>
<path d="M297.34 211.76C297.294 211.979 297.301 212.207 297.36 212.423C297.419 212.639 297.529 212.838 297.681 213.003C297.832 213.169 298.021 213.295 298.231 213.373C298.442 213.451 298.667 213.477 298.89 213.45L301.36 212.38C301.84 212.194 302.254 211.867 302.546 211.442C302.839 211.018 302.997 210.515 303 210L304.16 201.23C304.33 199.96 303.84 199.71 302.44 200.07L300.71 200.73C299.18 201.27 298.71 201.73 298.5 203.03L297.34 211.76Z" fill="#1C1C1C"/>
<g style="mix-blend-mode:multiply" opacity="0.25">
<path d="M276.33 212.9C276.33 212.9 273.33 215.46 268.66 212.9C263.99 210.34 267.39 203.53 267.39 203.53L276.33 212.9Z" fill="#8F4261"/>
</g>
<path d="M283.76 214.46H283.66L283.77 219.69H282.26L261.82 220.01C261.99 220.01 260.15 213.72 260.15 213.72C259.98 213.47 256.59 202.84 260.4 200.44C261.09 199.99 262.02 199.44 263.02 198.92C264.26 198.26 265.59 197.58 266.69 197.03C268.07 196.34 269.08 195.86 269.08 195.86H269.18C270.819 195.81 272.459 195.871 274.09 196.04C274.97 196.12 275.845 196.251 276.71 196.43C278.051 196.657 279.327 197.172 280.45 197.94C280.505 197.981 280.555 198.028 280.6 198.08C283.46 200.56 283.24 205.75 285.6 207.02C287.96 208.29 288.98 207.63 288.98 207.63L288.29 213.78L283.76 214.46Z" fill="white"/>
<mask id="mask1_171_2105" style="mask-type:luminance" maskUnits="userSpaceOnUse" x="258" y="195" width="31" height="26">
<path d="M260.07 213.75C259.9 213.49 256.51 202.87 260.31 200.46C262.97 198.77 269 195.88 269 195.88C269 195.88 277.34 195.54 280.37 197.97C283.4 200.4 283.13 205.75 285.56 207.05C287.99 208.35 288.94 207.65 288.94 207.65L288.24 213.81L283.57 214.46L283.69 219.69L261.69 220.04C261.91 220 260.07 213.75 260.07 213.75Z" fill="white"/>
</mask>
<g mask="url(#mask1_171_2105)">
<path d="M260 199.63C259.14 199.63 258.61 199.63 258.5 199.63V198.45C258.66 198.45 274.64 198.92 284.5 193.97L285 195C276.58 199.24 264.22 199.63 260 199.63Z" fill="#9AED66"/>
<path d="M257.61 204.09L257.55 202.91H258.34C264.68 202.6 277.88 201.91 286.89 197.34L287.42 198.34C278.19 203.08 264.82 203.73 258.42 204.05L257.61 204.09Z" fill="#9AED66"/>
<path d="M256.72 208.57L256.66 207.39C266.05 206.92 279.66 205.7 289.28 200.64L289.83 201.64C280 206.85 266.22 208.09 256.72 208.57Z" fill="#9AED66"/>
<path d="M255.83 213L255.77 211.83C272.24 211 282.98 208.64 291.68 203.95L292.24 204.95C283.38 209.8 272.49 212.2 255.83 213Z" fill="#9AED66"/>
<path d="M254.94 217.52L254.88 216.35C278.26 215.17 286.46 211.57 294.08 207.35L294.65 208.35C286.9 212.67 278.57 216.33 254.94 217.52Z" fill="#9AED66"/>
<path d="M254.05 222L253.99 220.83C281.38 219.44 288.5 215.31 295.39 211.31L296.48 210.68L297.06 211.68L295.98 212.31C289 216.4 281.72 220.6 254.05 222Z" fill="#9AED66"/>
<path d="M253.16 226.48L253.1 225.31C283.8 223.76 290.92 219.14 296.64 215.44C297.39 214.95 298.12 214.44 298.87 214.03L299.48 215.03C298.73 215.47 298.02 215.94 297.28 216.41C291.44 220.21 284.17 224.91 253.16 226.48Z" fill="#9AED66"/>
</g>
<g style="mix-blend-mode:multiply" opacity="0.1">
<path d="M267.21 204.66C267.21 204.66 270.71 213.42 277 213.29C282.15 213.18 288.78 212.66 288.78 212.66L288.89 209.82L276.67 209.62L267.21 204.66Z" fill="#5F003C"/>
</g>
<path d="M302.58 212C302.71 211.86 302.58 211.62 302.27 211.69C301.73 211.83 300.97 212.06 300.67 212.15C300.58 212.15 300.57 212.08 300.6 212.03C300.63 211.98 301.77 211.61 302.6 211.25C303.08 211.03 303.43 210.84 303.32 210.6C303.21 210.36 300.83 211.39 300.73 211.28C300.63 211.17 300.67 211.16 300.73 211.11C301.07 210.91 301.73 210.65 302.43 210.36C303.13 210.07 303.15 209.96 303.12 209.72C302.91 209.13 301.19 210.25 300.43 210.39C300.35 210.39 300.29 210.3 300.43 210.24C300.57 210.18 302.19 209.59 302.79 209.24C303.14 209.04 303.01 208.5 302.48 208.67C301.59 208.91 300.6 209.25 299.95 209.48C299.15 209.74 298.79 209.85 298.74 209.72C298.69 209.59 299.09 209.37 299.51 209.12C299.93 208.87 300.2 208.39 300 208.01C299.576 208.275 299.131 208.506 298.67 208.7C298.324 208.882 297.99 209.085 297.67 209.31C296.92 209.69 293.13 210.31 292.85 210.49C292.85 210.49 293.9 213.94 294.12 214.78C294.12 214.78 295.85 214.32 296.37 214.12C297.65 213.62 298.98 213.47 300.37 212.92C301.05 212.68 302.09 212.32 302.58 212Z" fill="#F9DECC"/>
<path d="M277.18 213.1L278.09 218.61C278.09 218.61 279 218.93 283.67 217.97C292.18 216.22 295.93 214.18 295.93 214.18L294.84 210.07L277.18 213.1Z" fill="#F9DECC"/>
<path d="M275.49 178C278.71 177.53 282.43 176.72 282.43 180C282.43 186.05 280.43 189.21 277.19 189.67C275.646 189.895 274.077 189.498 272.826 188.566C271.575 187.634 270.745 186.244 270.52 184.7C270.295 183.156 270.692 181.587 271.624 180.336C272.556 179.085 273.946 178.255 275.49 178.03V178Z" fill="#F0880F"/>
<g opacity="0.28">
<path d="M281.16 183.33C281.16 183.33 280.11 183.18 280.03 185.5C280.03 186.91 280.55 187.77 281.34 187.55C282.13 187.33 283.06 183.26 281.16 183.33Z" fill="#8F4261"/>
</g>
<path d="M281.05 187.73C280.921 187.728 280.795 187.699 280.678 187.645C280.561 187.592 280.456 187.515 280.37 187.42C279.948 186.874 279.758 186.185 279.84 185.5C279.92 183.35 280.84 183.18 281.08 183.18H281.16C281.84 183.18 282.27 183.65 282.39 184.5C282.55 185.67 282.05 187.5 281.33 187.69C281.24 187.719 281.145 187.732 281.05 187.73ZM281.05 183.47C280.9 183.47 280.17 183.57 280.11 185.47C280.033 186.075 280.19 186.687 280.55 187.18C280.61 187.246 280.682 187.3 280.763 187.337C280.844 187.375 280.931 187.396 281.02 187.4C281.09 187.41 281.16 187.41 281.23 187.4C281.68 187.27 282.23 185.68 282.07 184.53C282 184.04 281.78 183.46 281.13 183.46H281.05V183.47Z" fill="#054752"/>
<path d="M280.06 187.28C280.06 187.686 280.02 188.092 279.94 188.49C279.94 188.71 279.88 188.97 279.83 189.28C279.83 189.28 279.83 189.33 279.83 189.36C279.775 189.822 279.614 190.265 279.359 190.653C279.104 191.042 278.762 191.366 278.36 191.6C277.861 191.844 277.338 192.035 276.8 192.17H276.73L273.85 193.26L273.72 193.31L271.61 194.11L272.82 186.11L274.43 183.26C277.99 179.19 280.87 182.09 280.87 182.09L281.48 186.73L280.06 187.28Z" fill="#F9DECC"/>
<path d="M280 188.77C279.94 189.07 279.87 189.41 279.78 189.77C279.776 189.81 279.776 189.85 279.78 189.89C279.3 189.84 277.94 189.62 277.72 188.63C277.63 188.65 279.29 188.74 280 188.77Z" fill="white"/>
<path d="M278.53 185.24C278.613 185.321 278.724 185.367 278.84 185.37C278.993 185.387 279.149 185.366 279.292 185.309C279.435 185.251 279.561 185.159 279.66 185.04C279.525 184.941 279.356 184.898 279.19 184.92C278.88 184.94 278.6 185 278.53 185.24Z" fill="#005156"/>
<path d="M277 189.4C276.89 190.16 276.83 190.95 276.79 191.71C276.79 191.86 276.79 192.01 276.79 192.16V192.21C276.79 193.1 276.72 193.93 276.71 194.63C276.7 195.33 276.71 196.12 276.71 196.46V196.59C276.713 196.633 276.713 196.677 276.71 196.72C276.71 196.72 276.71 196.79 275.87 197.24C275.622 197.377 275.364 197.497 275.1 197.6C273.956 197.948 272.746 198.017 271.57 197.8C270.622 197.719 269.707 197.414 268.9 196.91L269.17 195.91C270.074 192.496 271.369 189.197 273.03 186.08C273.549 186.086 274.066 186.153 274.57 186.28C275.81 186.58 277.29 187.37 277 189.4Z" fill="#F9DECC"/>
<g style="mix-blend-mode:multiply" opacity="0.1">
<path d="M282.46 180L273.63 182.84L272.43 185.99L273.09 186.24C273.09 186.24 280.77 184.24 281.64 183.24L282.46 180Z" fill="#5F003C"/>
</g>
<g opacity="0.28">
<path d="M279.74 186.73C279.54 186.93 280.07 187.28 280.07 187.28L281.45 186.74C281.45 186.74 280.17 186.3 279.74 186.73Z" fill="#8F4261"/>
</g>
<path d="M279 187.73C278.87 187.729 278.741 187.701 278.622 187.647C278.504 187.594 278.397 187.517 278.31 187.42C277.894 186.871 277.704 186.184 277.78 185.5C277.86 183.35 278.78 183.18 279.02 183.18H279.1C279.78 183.18 280.21 183.65 280.33 184.5C280.49 185.67 279.99 187.5 279.27 187.69C279.183 187.718 279.092 187.731 279 187.73ZM279 183.47C278.86 183.47 278.13 183.57 278.06 185.47C277.983 186.075 278.14 186.687 278.5 187.18C278.561 187.247 278.635 187.301 278.717 187.339C278.8 187.377 278.889 187.398 278.98 187.4H279.18C279.63 187.27 280.18 185.68 280.02 184.53C279.95 184.04 279.73 183.46 279.08 183.46H279V183.47Z" fill="#054752"/>
<path d="M275.62 176.14C275.635 176.189 275.635 176.241 275.62 176.29C275.592 176.819 275.488 177.341 275.31 177.84C275.24 178.01 275.18 178.18 275.1 178.34C275.03 178.502 274.95 178.659 274.86 178.81C274.503 179.404 274.043 179.929 273.5 180.36C273.468 180.396 273.431 180.426 273.39 180.45C272.839 180.868 272.215 181.18 271.55 181.37C271.271 181.45 270.987 181.51 270.7 181.55H270.33H269.71C269.304 181.522 268.902 181.451 268.51 181.34C267.892 181.172 267.31 180.894 266.79 180.52C266.071 180.012 265.482 179.341 265.07 178.563C264.659 177.785 264.436 176.92 264.42 176.04C264.42 175.9 264.42 175.76 264.42 175.62C264.437 175.32 264.481 175.022 264.55 174.73C264.74 173.892 265.12 173.109 265.66 172.44C266.019 171.994 266.448 171.609 266.93 171.3C267.787 170.735 268.782 170.417 269.807 170.379C270.833 170.341 271.849 170.586 272.744 171.087C273.64 171.587 274.381 172.324 274.886 173.217C275.392 174.11 275.642 175.124 275.61 176.15L275.62 176.14Z" fill="#F0880F"/>
<path d="M276.35 182.41C276.35 182.41 276.35 182.72 276.26 183.16C276.11 184.24 275.83 186.16 275.74 186.44C275.53 187.184 275.102 187.847 274.509 188.343C273.917 188.839 273.189 189.144 272.42 189.22C272.167 189.235 271.913 189.235 271.66 189.22C271.378 189.19 271.099 189.129 270.83 189.04C270.658 188.988 270.49 188.921 270.33 188.84C269.745 188.548 269.243 188.113 268.872 187.574C268.501 187.035 268.273 186.411 268.21 185.76C268.046 184.826 268.016 183.873 268.12 182.93C268.187 182.408 268.322 181.897 268.52 181.41C268.75 180.841 269.067 180.311 269.46 179.84C269.947 179.724 270.453 179.724 270.94 179.84H271.06C271.54 179.91 272.06 180.01 272.62 180.14L273.49 180.37C274.94 180.82 276.24 181.5 276.35 182.41Z" fill="#F0880F"/>
<path d="M282.4 179C282.559 179.693 282.439 180.421 282.064 181.026C281.69 181.631 281.092 182.064 280.4 182.23L274 183.69C273.307 183.849 272.579 183.729 271.974 183.354C271.369 182.98 270.936 182.382 270.77 181.69C270.611 180.997 270.731 180.269 271.106 179.664C271.48 179.059 272.078 178.626 272.77 178.46L279.19 176.99C279.883 176.831 280.611 176.951 281.216 177.326C281.821 177.7 282.254 178.298 282.42 178.99L282.4 179Z" fill="#F0880F"/>
<g opacity="0.28">
<g style="mix-blend-mode:multiply" opacity="0.1">
<path d="M271.74 183.22C271.823 185.198 271.514 187.172 270.83 189.03C270.658 188.978 270.49 188.911 270.33 188.83C269.745 188.538 269.243 188.103 268.872 187.564C268.501 187.025 268.273 186.401 268.21 185.75C268.046 184.816 268.016 183.863 268.12 182.92C268.187 182.398 268.322 181.887 268.52 181.4C267.902 181.232 267.32 180.954 266.8 180.58C266.081 180.072 265.492 179.401 265.08 178.623C264.669 177.845 264.446 176.98 264.43 176.1C264.43 175.96 264.43 175.82 264.43 175.68C264.447 175.38 264.491 175.082 264.56 174.79C266.7 175.46 269.71 176.92 271.02 179.79C271.045 179.833 271.062 179.881 271.07 179.93C271.295 180.421 271.457 180.938 271.55 181.47C271.55 181.59 271.55 181.71 271.61 181.83C271.678 182.291 271.721 182.755 271.74 183.22Z" fill="#5F003C"/>
</g>
</g>
<g opacity="0.28">
<g style="mix-blend-mode:multiply" opacity="0.1">
<path d="M280.6 198.12C279.85 198.12 276.27 198.28 275.26 197.69L275.11 197.61L274.96 197.51C274.736 197.334 274.552 197.113 274.42 196.86C274.28 196.614 274.169 196.352 274.09 196.08C273.836 195.202 273.705 194.294 273.7 193.38C273.7 193.16 273.7 193.01 273.7 192.94L276.7 192.26H276.76C276.76 193.14 276.69 193.99 276.68 194.68C276.68 195.52 276.68 196.17 276.68 196.51C278.021 196.737 279.297 197.252 280.42 198.02C280.483 198.047 280.544 198.081 280.6 198.12Z" fill="#5F003C"/>
</g>
</g>
<g style="mix-blend-mode:multiply" opacity="0.1">
<path d="M276.81 192.18C276.75 193.07 276.72 193.93 276.72 194.63C276.177 194.625 275.642 194.501 275.151 194.268C274.661 194.035 274.227 193.698 273.88 193.28C273.806 193.168 273.755 193.042 273.73 192.91C273.66 192.18 275.42 191.91 276.84 191.75C277.5 191.69 278.06 191.66 278.36 191.64C277.866 191.879 277.346 192.06 276.81 192.18Z" fill="#5F003C"/>
</g>
<path d="M244.39 219.84L244.13 221.05L244.03 221.6L243.75 223.06L243.38 224.96L242.24 224.82H242.06L241.51 224.75L204.24 220L204.32 219.66L204.39 204.15C204.39 204.15 204.24 198.31 206.39 194.97C206.592 194.675 206.85 194.424 207.15 194.23C208.625 193.406 210.264 192.921 211.95 192.81C213.773 192.615 215.606 192.528 217.44 192.55C218.59 192.55 219.82 192.63 220.93 192.7C222.31 192.79 223.55 192.91 224.44 193.02C225.33 193.13 225.79 193.17 225.79 193.17C228.464 193.646 230.916 194.964 232.79 196.93C233.824 197.949 234.724 199.095 235.47 200.34C239.76 207.4 244.39 219.84 244.39 219.84Z" fill="#054752"/>
<path d="M216.63 192.2L223.94 218.2C223.94 218.2 233.53 219.35 233.53 218.84C233.53 218.33 227.77 201.9 227.77 201.9L224.05 193.43L215.95 192.37" fill="white"/>
<path d="M225.08 187.35L225.03 187.67V187.8L224.89 188.48V188.57L224.08 193.3V193.52L224.17 193.9C223.413 194.419 222.527 194.717 221.61 194.76H221C217.84 194.83 215.27 195.25 215.27 194.94V194.05C215.27 193.99 215.22 193.25 215.27 193.17C215.46 191.53 217.48 187.09 217.89 185.32C217.94 185.04 218.57 185.08 218.57 185.08L222.73 186.53L222.88 186.59L223.48 186.8L225.08 187.35Z" fill="#F9DECC"/>
<path d="M227.3 179.58V181.12C227.331 182.054 227.298 182.99 227.2 183.92C227.19 184.08 227.19 184.24 227.2 184.4C227.13 186.11 227.53 188.08 225.07 188.48C225.029 188.523 224.977 188.554 224.92 188.57C224.688 188.694 224.438 188.781 224.18 188.83C223.972 188.871 223.762 188.898 223.55 188.91C223.403 188.919 223.257 188.919 223.11 188.91H222.95V188.7L222.83 186.5L222.72 184.56L222.3 177.33L223.03 177.28H223.97L225.13 177.21C225.96 177.21 226.49 177.21 226.82 177.85C227.47 178.13 227.3 179.58 227.3 179.58Z" fill="#F9DECC"/>
<path d="M217.52 179.46L217.8 181.67C218.02 183.83 218.68 188.67 221.8 188.95C222.209 188.997 222.621 188.997 223.03 188.95L222.37 177.38H221.64L220.71 177.45L219.55 177.52C219.159 177.529 218.779 177.647 218.452 177.86C218.125 178.074 217.864 178.376 217.7 178.73C217.603 178.938 217.542 179.161 217.52 179.39V179.46Z" fill="#F9DECC"/>
<g style="mix-blend-mode:multiply" opacity="0.1">
<path d="M227.34 180V181.55C227.35 182.485 227.304 183.42 227.2 184.35C226.57 184.349 225.95 184.187 225.4 183.88C225.4 183.88 226.65 183.66 226.79 183.35C226.79 183.28 226.36 180.25 226.36 180.25C226.651 180.062 226.995 179.974 227.34 180Z" fill="#5F003C"/>
</g>
<path d="M218.79 181.23C218.79 181.35 218.01 188.03 218.01 188.03H220.76C220.76 188.03 221.28 183.68 221.24 183.53C221.2 183.38 218.79 181.23 218.79 181.23Z" fill="#F9DECC"/>
<path d="M218.19 189.35C218.19 189.07 217.02 179.89 219.33 177.71C224.53 172.79 227.09 178.56 227.09 178.56L218.19 189.35Z" fill="#F9DECC"/>
<path d="M220.17 182.64C220.17 182.905 220.065 183.16 219.877 183.347C219.69 183.535 219.435 183.64 219.17 183.64C218.905 183.64 218.65 183.535 218.463 183.347C218.275 183.16 218.17 182.905 218.17 182.64V181.14C218.17 180.875 218.275 180.62 218.463 180.433C218.65 180.245 218.905 180.14 219.17 180.14C219.435 180.14 219.69 180.245 219.877 180.433C220.065 180.62 220.17 180.875 220.17 181.14V182.64Z" fill="#F9DECC"/>
<path d="M227.29 184C227.22 185.71 227.52 188.12 225.06 188.52C223.872 188.658 222.671 188.405 221.64 187.8C220.824 187.101 220.128 186.274 219.58 185.35L220.37 183.76H224.67L227.29 184Z" fill="#054752"/>
<path d="M224.35 180.73C224.35 180.73 223.84 180.19 222.76 180.67C222.794 180.795 222.866 180.905 222.967 180.986C223.067 181.067 223.191 181.114 223.32 181.12C223.511 181.149 223.706 181.129 223.886 181.06C224.067 180.992 224.226 180.878 224.35 180.73Z" fill="#054752"/>
<path d="M227.64 180.9C227.64 180.99 227.604 181.077 227.54 181.14C227.477 181.204 227.39 181.24 227.3 181.24C227.12 181.24 226.77 180.96 226.77 180.86C226.77 180.76 227.12 180.56 227.3 180.56C227.39 180.56 227.477 180.596 227.54 180.66C227.604 180.723 227.64 180.81 227.64 180.9Z" fill="#054752"/>
<path d="M223.43 184.47H226.6C226.6 184.47 226.79 185.54 225.04 185.41C223.29 185.28 223.43 184.47 223.43 184.47Z" fill="white"/>
<g style="mix-blend-mode:multiply" opacity="0.1">
<path d="M226 197.69C225.109 197.899 224.174 197.797 223.35 197.4C222.777 197.205 222.268 196.857 221.878 196.393C221.489 195.93 221.234 195.368 221.14 194.77C220.985 194.239 220.891 193.692 220.86 193.14C220.791 191.283 221.014 189.428 221.52 187.64C221.575 187.687 221.636 187.727 221.7 187.76C222.696 188.326 223.837 188.587 224.98 188.51V188.57L224.14 193.37V193.46V193.53C224.397 194.39 224.756 195.216 225.21 195.99C225.52 196.8 225.54 196.86 226 197.69Z" fill="#5F003C"/>
</g>
<g style="mix-blend-mode:multiply" opacity="0.1">
<path d="M224.93 179.21L217.57 179.82V179.41C217.57 179.41 217.57 178.84 217.82 178.67C218.07 178.5 224.65 178.92 224.93 179.21Z" fill="#5F003C"/>
</g>
<g style="mix-blend-mode:multiply">
<path d="M213.67 203.41C213.67 203.41 215.17 224.29 223.93 222.19C225.14 221.9 213.67 203.41 213.67 203.41Z" fill="#005156"/>
</g>
<path d="M214.49 192.61C214.49 192.61 216.07 190.37 216.07 190.45C216.07 190.53 218.07 196.85 218.17 197.45C218.17 197.6 215.47 195.45 215.47 195.45L214.49 192.61Z" fill="#034753"/>
<path d="M225.76 193.2L224.51 190.79C224.201 191.644 224.036 192.542 224.02 193.45C224.34 194.485 224.794 195.473 225.37 196.39C225.722 196.232 226.058 196.037 226.37 195.81C226.35 195.73 225.76 193.2 225.76 193.2Z" fill="#034753"/>
<path d="M233.87 204.25L247.9 197.88V206.7L248.06 219.91L234.4 212.77L233.87 204.25Z" fill="#CFCDCE"/>
<path d="M233.13 204.18L250.89 199.77V226.21L233.45 230.61L233.13 204.18Z" fill="#F2F1F2"/>
<path d="M235.36 206.64L235.19 214.64L248.36 210.28V203.02L235.36 206.64Z" fill="#B4B3B3"/>
<path d="M233.98 219.1L234.08 224.72L246.75 221.38L246.44 216.13L233.98 219.1Z" fill="#B4B3B3"/>
<path d="M235.36 216.37L235.19 218.49L242.54 216.17L242.48 214.22L235.36 216.37Z" fill="#B4B3B3"/>
<path d="M205.36 206.45C205.02 206.96 201.98 221.45 207.57 222.45C213.57 223.45 234.57 223.64 234.57 223.64L233.72 217.52L215.07 213.92" fill="#054752"/>
<path d="M225.65 172.8C225.17 171.3 223.81 170.53 222.65 172.12C222.26 170.6 220.33 169.78 219.22 172.34C218.48 174.06 218.08 176.85 217.42 178.11L227.06 178.22C226.77 177 226.07 174.1 225.65 172.8Z" fill="#054752"/>
<path d="M230.38 178.16C230.381 178.3 230.355 178.438 230.302 178.567C230.249 178.696 230.171 178.814 230.073 178.912C229.974 179.011 229.856 179.089 229.727 179.142C229.598 179.195 229.46 179.221 229.32 179.22H215.57C215.289 179.22 215.019 179.108 214.82 178.91C214.622 178.711 214.51 178.441 214.51 178.16C214.513 177.88 214.625 177.612 214.823 177.413C215.022 177.215 215.29 177.103 215.57 177.1H229.32C229.601 177.1 229.871 177.212 230.07 177.41C230.268 177.609 230.38 177.879 230.38 178.16Z" fill="#054752"/>
<path d="M140.81 195.88C140.635 196.66 140.308 197.397 139.848 198.05C139.388 198.703 138.804 199.26 138.128 199.687C137.453 200.114 136.7 200.404 135.913 200.54C135.126 200.676 134.319 200.656 133.54 200.48C130.26 199.74 126.48 194.74 127.22 191.48C127.96 188.22 132.93 187.88 136.22 188.62C137.789 188.978 139.153 189.943 140.013 191.303C140.873 192.663 141.16 194.309 140.81 195.88Z" fill="#054752"/>
<path d="M121.57 172.79C124.205 172.477 126.864 173.119 129.066 174.6C131.268 176.081 132.866 178.302 133.57 180.86C136.41 190.35 129.74 192.18 124.89 192.86C122.57 193.186 120.216 192.58 118.342 191.174C116.468 189.769 115.227 187.678 114.89 185.36C114.2 180.54 114.91 173.58 121.57 172.79Z" fill="#054752"/>
<path opacity="0.28" d="M125.37 181.65C125.37 181.65 125.46 185.08 125.43 185.14C125.27 185.42 124.01 185.46 124.01 185.46C124.01 185.46 125.64 186.7 126.95 185.78C128.26 184.86 128.88 181.07 125.37 181.65Z" fill="#8F4261"/>
<path d="M121.37 182.72C121.471 182.853 121.617 182.945 121.78 182.98C121.995 183.051 122.224 183.067 122.446 183.025C122.668 182.983 122.876 182.885 123.05 182.74C122.971 182.647 122.873 182.571 122.763 182.517C122.652 182.464 122.532 182.434 122.41 182.43C122 182.38 121.53 182.45 121.37 182.72Z" fill="#034753"/>
<path d="M126.16 182.86C126.286 182.981 126.436 183.073 126.6 183.13C126.813 183.195 127.038 183.205 127.256 183.162C127.474 183.118 127.678 183.021 127.85 182.88C127.743 182.773 127.615 182.69 127.473 182.634C127.332 182.579 127.181 182.554 127.03 182.56C126.872 182.547 126.713 182.568 126.564 182.619C126.414 182.671 126.277 182.753 126.16 182.86Z" fill="#034753"/>
<path d="M140.12 219.39C140.152 219.414 140.182 219.441 140.21 219.47H133.21V219.4V219.15L132.84 213.93L140.12 219.39Z" fill="#034753"/>
<path d="M137.57 220.27L137.66 220.36H130.54V220.28V220.02L130.17 214.71L137.57 220.27Z" fill="#034753"/>
<path d="M139.32 203.85C138.61 202.1 137.19 198.59 136.95 198.17C136.77 197.711 136.563 197.264 136.33 196.83C136.024 196.435 135.652 196.097 135.23 195.83C133.48 194.6 127.76 192.69 126.82 192.41C126.673 192.373 126.522 192.356 126.37 192.36L126.22 192.2C125.49 192.2 124.55 192.2 123.47 192.2C123.35 192.2 123.22 192.35 123.11 192.36C122.83 192.36 122.55 192.53 122.26 192.56L120.84 192.67L120 192.76L118.7 192.96C118.023 193.062 117.354 193.215 116.7 193.42L116.32 193.55L116.02 193.68C115.924 193.724 115.83 193.774 115.74 193.83C115.5 193.96 115.28 194.28 115.07 194.28C114.48 194.28 113.96 195.14 113.5 195.69C113.31 195.92 113.14 196.11 112.97 196.35C110.97 199.28 111.76 207.91 111.76 207.91L114.47 216.86C115.855 216.705 117.254 216.988 118.47 217.67C119.64 218.37 120.83 219.07 121.95 219.86C122.211 220.046 122.461 220.247 122.7 220.46L138.85 217.46C138.85 217.46 139.51 213.6 139.49 213.46C139.22 211.06 140.46 206.68 139.32 203.85Z" fill="white"/>
<path d="M126.75 187L126.29 188.43L126.42 192.91L126.34 193.36C126.34 193.36 125.77 194.54 123.82 194.26C122.581 194.124 121.429 193.554 120.57 192.65C120.48 192.65 121.17 189.34 121.5 186.88C121.5 186.64 121.6 186.42 121.63 186.26C121.72 185.93 121.77 185.72 121.77 185.72L123.39 186.28L124.29 186.59L125.99 187.2L126.75 187Z" fill="#D09C60"/>
<path d="M126.93 185.59V192C126.919 192.149 126.892 192.297 126.85 192.44C126.767 192.87 126.564 193.268 126.265 193.588C125.966 193.908 125.583 194.138 125.16 194.25C124.949 194.311 124.73 194.342 124.51 194.34C124.345 194.338 124.181 194.321 124.02 194.29C123.577 194.199 123.169 193.983 122.845 193.667C122.521 193.352 122.293 192.95 122.19 192.51C122.138 192.344 122.104 192.173 122.09 192V185.62C122.091 185.012 122.323 184.427 122.739 183.983C123.155 183.54 123.723 183.271 124.33 183.23L124.47 183.16C124.6 183.16 124.72 183.23 124.84 183.24C125.26 183.318 125.653 183.504 125.98 183.78C126.264 183.991 126.497 184.264 126.661 184.577C126.826 184.89 126.917 185.236 126.93 185.59Z" fill="#D09C60"/>
<g style="mix-blend-mode:multiply" opacity="0.1">
<path d="M135.23 195.81C134.41 196.34 130.33 196.21 127.8 196.23C127.041 196.311 126.275 196.164 125.6 195.808C124.925 195.452 124.371 194.902 124.01 194.23C123.714 193.646 123.531 193.012 123.47 192.36C123.366 191.461 123.396 190.551 123.56 189.66L124.56 187.98L126.98 187.76V192C126.969 192.149 126.942 192.297 126.9 192.44C127.79 192.68 133.48 194.57 135.23 195.81Z" fill="#5F003C"/>
</g>
<path d="M131.63 180.85C131.632 182.266 131.214 183.652 130.428 184.831C129.643 186.009 128.525 186.929 127.217 187.472C125.909 188.016 124.469 188.159 123.079 187.884C121.69 187.608 120.413 186.927 119.411 185.926C118.408 184.925 117.725 183.65 117.448 182.26C117.171 180.871 117.312 179.431 117.854 178.122C118.396 176.813 119.313 175.695 120.491 174.907C121.669 174.12 123.053 173.7 124.47 173.7C126.367 173.7 128.187 174.453 129.529 175.794C130.872 177.134 131.627 178.953 131.63 180.85Z" fill="#054752"/>
<path d="M128.42 181L128.29 182.84C128.21 184.63 127.82 188.67 125.29 189.03C124.928 189.068 124.562 189.068 124.2 189.03V179.65H126.69C127.003 179.619 127.318 179.681 127.597 179.826C127.876 179.972 128.106 180.196 128.26 180.47C128.359 180.616 128.421 180.784 128.44 180.96L128.42 181Z" fill="#D09C60"/>
<path d="M120.34 181L120.46 182.84C120.54 184.63 120.72 188.67 123.28 189.03C123.573 189.054 123.867 189.054 124.16 189.03V179.65H122.1C121.787 179.619 121.472 179.681 121.193 179.826C120.914 179.972 120.684 180.196 120.53 180.47C120.431 180.616 120.369 180.784 120.35 180.96L120.34 181Z" fill="#D09C60"/>
<path d="M128.4 181L128.25 182.19L124.16 181.37V179.69H126.63C126.945 179.659 127.261 179.72 127.542 179.865C127.822 180.011 128.054 180.235 128.21 180.51C128.302 180.663 128.363 180.833 128.39 181.01L128.4 181Z" fill="#D09C60"/>
<g style="mix-blend-mode:multiply" opacity="0.1">
<path d="M130.19 180.47C130.19 180.47 130.02 182.18 129.8 183.47C129.2 186.82 127.59 187.03 127.59 187.03V186.77C127.991 185.504 128.21 184.188 128.24 182.86V182.58L128.3 182.23L124.3 181.41L120.3 180.58C120.3 180.58 127.97 178.58 128.09 178.58C128.21 178.58 130.19 180.47 130.19 180.47Z" fill="#5F003C"/>
</g>
<path d="M130.91 180.93L119.32 180.66V177.6H129.3L130.91 180.93Z" fill="#054752"/>
<path d="M136.13 203.97L138.96 203.79L143.68 214.32L139.24 214.63L136.13 203.97Z" fill="#D09C60"/>
<g opacity="0.1">
<path d="M125.43 181.82C125.43 181.82 125.34 184.58 125.36 184.65C124.867 184.804 124.383 184.984 123.91 185.19L125.65 185.4C125.65 185.4 126.6 182.17 126.6 182.1L125.43 181.82Z" fill="#5F003C"/>
</g>
<path d="M121.71 183C121.71 183 122.22 182.05 123.4 183H121.71Z" fill="#014753"/>
<path d="M127.54 183C127.54 183 127.03 182.05 125.85 183H127.54Z" fill="#014753"/>
<path d="M123.89 186.23C124.467 186.11 125.052 186.036 125.64 186.01C125.64 186.01 125.64 186.54 125.24 186.64C124.84 186.74 124 186.57 123.89 186.23Z" fill="white"/>
<path d="M119.12 205.24C119.12 205.24 120.12 214.03 120.23 214.05C120.34 214.07 121.49 220.28 118.13 219.74C115.45 219.32 111.82 210.59 111.9 207.88C112 204.06 119.12 205.24 119.12 205.24Z" fill="#D09C60"/>
<path d="M143.06 222.18C143.22 222.11 143.15 221.84 142.88 221.81C142.35 221.75 141.59 221.7 141.28 221.68C141.19 221.68 141.21 221.6 141.28 221.55C141.35 221.5 142.48 221.55 143.33 221.55C143.83 221.55 144.21 221.46 144.19 221.2C144.19 220.79 141.68 221.08 141.63 220.95C141.58 220.82 141.63 220.82 141.71 220.81C142.09 220.74 142.79 220.73 143.5 220.69C144.21 220.65 144.29 220.57 144.34 220.35C144.34 219.74 142.41 220.18 141.68 220.05C141.61 220.05 141.58 219.93 141.68 219.91C141.97 219.82 143.49 219.91 144.15 219.8C144.52 219.8 144.59 219.21 144.05 219.19C143.17 219.1 142.16 219.08 141.49 219.07C140.82 219.06 140.32 219.02 140.32 218.89C140.32 218.76 140.75 218.68 141.21 218.59C141.83 218.5 142.08 218.16 142.02 217.75C141.553 217.85 141.078 217.91 140.6 217.93C140.226 217.98 139.855 218.054 139.49 218.15C138.69 218.25 135.05 217.56 134.74 217.61C134.74 217.61 134.56 221.09 134.47 221.93C134.47 221.93 136.19 222.09 136.72 222.08C138.05 222.08 139.3 222.36 140.72 222.33C141.502 222.33 142.284 222.28 143.06 222.18Z" fill="#E8BAAE"/>
<path d="M119.75 214.28L117.85 219.6C117.85 219.6 119.46 220.6 124 221.24C132.27 222.51 136.34 221.91 136.34 221.91L136.9 218.04L119.75 214.28Z" fill="#E8BAAE"/>
<g style="mix-blend-mode:multiply" opacity="0.25">
<path d="M79 210.42C79 210.42 75.66 213.29 70.41 210.42C65.16 207.55 69 199.93 69 199.93L79 210.42Z" fill="#8F4261"/>
</g>
<path d="M92.25 213.67L87.18 212.23L87.31 218.09H85.61L62.71 218.46C62.9 218.46 60.85 211.46 60.85 211.46C60.65 211.17 56.85 198.62 61.1 195.93C61.93 195.41 62.78 194.93 63.62 194.51C65.21 193.71 66.76 193.07 67.98 192.6C69.2 192.13 69.98 191.85 70.34 191.68L70.84 191.44C70.84 191.44 72.84 191.36 75.36 191.54C76.49 191.62 77.615 191.76 78.73 191.96C80.4689 192.177 82.1331 192.796 83.59 193.77C84.3144 194.381 84.8978 195.142 85.3 196C86.89 199.12 92.25 213.67 92.25 213.67Z" fill="#9AED66"/>
<g style="mix-blend-mode:multiply" opacity="0.1">
<path d="M68.87 201.49C70.7092 205.37 73.7351 208.564 77.51 210.61C81.38 212.61 86.04 214.82 86.04 214.82L83.54 205.66L75 202.84L68.87 201.49Z" fill="#5F003C"/>
</g>
<path d="M79.87 185.48L79.82 185.81V185.95L79.68 186.65V186.75L78.79 191.75V191.85V191.92L78.72 192.39C78.0154 192.908 77.1644 193.188 76.29 193.19H75.71C72.4 193.26 70.37 192.19 70.37 191.91V191.85C70.3659 191.773 70.3659 191.697 70.37 191.62C70.56 189.91 72.01 185.18 72.44 183.33C72.44 183.04 73.15 183.07 73.15 183.07L77.49 184.59L77.65 184.65L78.28 184.87L79.87 185.48Z" fill="#E8BAAE"/>
<path d="M73.21 178.06L80.51 176.43" stroke="#034753" stroke-width="0.93" stroke-miterlimit="10"/>
<path d="M82.19 177.36V178.98C82.2218 179.955 82.185 180.93 82.08 181.9C82.08 182.06 82.08 182.23 82.08 182.39C82.01 184.18 82.43 186.23 79.86 186.65C79.8174 186.693 79.7664 186.727 79.71 186.75C79.4697 186.881 79.2096 186.972 78.94 187.02L78.28 187.11H77.81H77.65V186.88L77.52 184.59L77.4 182.59L76.96 175.04L77.73 174.99H78.73L79.94 174.92C80.81 174.92 81.36 174.92 81.71 175.59C82.37 175.85 82.19 177.36 82.19 177.36Z" fill="#E8BAAE"/>
<path d="M72 177.23L72.29 179.55C72.52 181.8 73.21 186.89 76.48 187.15C76.909 187.192 77.341 187.192 77.77 187.15L77.08 175.07H76.31L75.31 175.14L74.1 175.21C73.6924 175.218 73.2952 175.34 72.9539 175.563C72.6125 175.785 72.3409 176.1 72.17 176.47C72.0675 176.687 72.0032 176.921 71.98 177.16L72 177.23Z" fill="#E8BAAE"/>
<path opacity="0.1" d="M82.22 177.37V178.99C82.2362 179.966 82.1861 180.941 82.07 181.91C81.415 181.909 80.7712 181.741 80.2 181.42C80.2 181.42 81.5 181.19 81.65 180.86C81.65 180.8 81.2 177.63 81.2 177.63C81.501 177.431 81.8604 177.339 82.22 177.37Z" fill="#5F003C"/>
<path d="M73.31 179.09C73.31 179.21 72.49 186.19 72.49 186.19H75.36C75.36 186.19 75.91 181.65 75.87 181.49C75.83 181.33 73.31 179.09 73.31 179.09Z" fill="#E8BAAE"/>
<path d="M72.68 187.56C72.68 187.27 71.45 177.69 73.87 175.41C79.3 170.27 81.97 176.3 81.97 176.3L72.68 187.56Z" fill="#E8BAAE"/>
<path d="M73.54 176.93C73.54 176.66 80.13 172.93 82 175.93C82.08 176.07 82.29 176.59 82.16 176.69C81.67 177.02 79.85 176.69 79.85 176.69L73.54 176.93Z" fill="#E8BAAE"/>
<path d="M74.13 179.81C74.13 179.81 73.93 178.62 73.13 179.02C72.58 179.29 72.67 180.02 72.67 180.83C72.67 181.64 73.31 182.49 73.67 182.29C74.03 182.09 74.13 179.81 74.13 179.81Z" fill="#E8BAAE"/>
<path d="M72.26 181.45C72.26 181.45 73.73 175.77 77.66 175C79.5908 174.514 81.6044 174.456 83.56 174.83C83.56 174.83 87.33 169.83 81.78 168.89C76.23 167.95 71.59 169.3 71.46 175.63C71.36 180.39 72.26 181.45 72.26 181.45Z" fill="#054752"/>
<path d="M81.52 173.67C81.52 174.396 81.3048 175.105 80.9015 175.709C80.4982 176.312 79.925 176.783 79.2544 177.061C78.5838 177.338 77.8459 177.411 77.134 177.269C76.4221 177.128 75.7682 176.778 75.2549 176.265C74.7417 175.752 74.3921 175.098 74.2505 174.386C74.1089 173.674 74.1816 172.936 74.4594 172.266C74.7371 171.595 75.2075 171.022 75.8111 170.618C76.4146 170.215 77.1241 170 77.85 170C78.8233 170 79.7568 170.387 80.4451 171.075C81.1333 171.763 81.52 172.697 81.52 173.67Z" fill="#054752"/>
<path d="M87.37 173.45C87.37 174.511 86.9486 175.528 86.1984 176.278C85.4483 177.029 84.4309 177.45 83.37 177.45C82.3091 177.45 81.2917 177.029 80.5416 176.278C79.7914 175.528 79.37 174.511 79.37 173.45C79.37 172.389 79.7914 171.372 80.5416 170.622C81.2917 169.871 82.3091 169.45 83.37 169.45C84.4309 169.45 85.4483 169.871 86.1984 170.622C86.9486 171.372 87.37 172.389 87.37 173.45Z" fill="#054752"/>
<path d="M73.71 175.61C73.71 175.61 73.39 182.18 73.36 182.27C73.14 182.99 72.36 183.27 72.21 183.1C71.21 181.52 71.42 175.1 71.42 175.1L73.71 175.61Z" fill="#054752"/>
<path d="M74.75 180.55C74.75 180.842 74.6341 181.121 74.4278 181.328C74.2215 181.534 73.9417 181.65 73.65 181.65C73.506 181.65 73.3634 181.621 73.2305 181.566C73.0976 181.511 72.977 181.429 72.8757 181.327C72.7743 181.225 72.6943 181.104 72.6401 180.97C72.5859 180.837 72.5587 180.694 72.56 180.55V179C72.56 178.857 72.5882 178.715 72.643 178.583C72.6977 178.451 72.778 178.33 72.8792 178.229C72.9805 178.128 73.1006 178.048 73.2329 177.993C73.3651 177.938 73.5068 177.91 73.65 177.91C73.794 177.909 73.9368 177.936 74.0702 177.99C74.2036 178.044 74.3249 178.124 74.4272 178.226C74.5295 178.327 74.6107 178.448 74.6661 178.581C74.7215 178.713 74.75 178.856 74.75 179V180.55Z" fill="#E8BAAE"/>
<path opacity="0.25" d="M82.13 181.94C82.05 183.72 82.37 186.23 79.8 186.65C78.56 186.799 77.3055 186.535 76.23 185.9C75.3757 185.176 74.6489 184.314 74.08 183.35L74.91 181.69H79.39L82.13 181.94Z" fill="#1A5A6C"/>
<path d="M79.11 178.69C79.11 178.69 78.59 178.14 77.48 178.63C77.5162 178.757 77.5919 178.869 77.6963 178.95C77.8006 179.031 77.928 179.077 78.06 179.08C78.2539 179.113 78.4529 179.094 78.6373 179.026C78.8216 178.957 78.9846 178.841 79.11 178.69Z" fill="#054752"/>
<path d="M82.48 178.86C82.48 178.953 82.4431 179.042 82.3775 179.107C82.3119 179.173 82.2228 179.21 82.13 179.21C81.94 179.21 81.58 178.93 81.58 178.83C81.58 178.73 81.94 178.51 82.13 178.51C82.2228 178.51 82.3119 178.547 82.3775 178.613C82.4431 178.678 82.48 178.767 82.48 178.86Z" fill="#005156"/>
<path d="M78.16 182.51H81.41C81.41 182.51 81.61 183.61 79.82 183.51C78.03 183.41 78.16 182.51 78.16 182.51Z" fill="white"/>
<g style="mix-blend-mode:multiply" opacity="0.1">
<path d="M85.35 196C83.3396 196.349 81.2922 196.433 79.26 196.25C78.419 196.212 77.614 195.898 76.9702 195.355C76.3264 194.813 75.8799 194.073 75.7 193.25C75.546 192.691 75.4488 192.118 75.41 191.54C75.3443 189.603 75.577 187.667 76.1 185.8L76.29 185.92C77.3284 186.512 78.5173 186.786 79.71 186.71V186.77L78.83 191.77V191.87V191.94C80.5653 192.159 82.2258 192.778 83.68 193.75C84.3922 194.371 84.9619 195.139 85.35 196Z" fill="#5F003C"/>
</g>
<path d="M70.88 189.03L76.21 192.58L77.26 196.12L68.69 192.16L70.88 189.03Z" fill="white"/>
<path d="M79.09 190.35L79.81 192.22L78.92 194.73L77.6 192.51L79.09 190.35Z" fill="white"/>
<path d="M182.25 178.86C182.42 184.74 179.46 188.04 173.59 188.55C167.72 189.06 160.48 183.17 159.96 177.31C159.838 175.916 159.992 174.511 160.413 173.177C160.834 171.842 161.513 170.603 162.413 169.532C163.313 168.46 164.416 167.576 165.657 166.931C166.899 166.285 168.256 165.891 169.65 165.77C175.51 165.25 182 171.56 182.25 178.86Z" fill="#032428"/>
<g style="mix-blend-mode:multiply" opacity="0.27">
<path d="M195.58 197.74C195.24 197.85 184.38 205.48 185.27 209.29C186.16 213.1 191.37 212.6 194.06 209.93" fill="#8F4261"/>
</g>
<path d="M188.82 200.37L191.1 197.19L190.32 195.98L188.48 196.55L188.08 200.54L188.82 200.37Z" fill="#F8CEC4"/>
<path d="M191.49 214.08L192.49 217.08L190.65 218.14L189.75 218.02H159.72L159.88 214.02L160.65 200.72C161.254 198.625 162.275 196.672 163.65 194.98C164.143 194.422 164.716 193.94 165.35 193.55C165.666 193.359 166.001 193.201 166.35 193.08C166.509 193.015 166.673 192.961 166.84 192.92C167.373 192.801 167.915 192.727 168.46 192.7C169 192.7 169.58 192.7 170.17 192.7H171.44H171.56L172.63 192.76H172.93C174.02 192.83 174.99 192.92 175.7 193L176.76 193.12C177.175 193.178 177.583 193.275 177.98 193.41C179.637 193.913 181.151 194.801 182.4 196C183.216 196.806 183.926 197.713 184.51 198.7C187.84 204.27 191.49 214.08 191.49 214.08Z" fill="white"/>
<mask id="mask2_171_2105" style="mask-type:luminance" maskUnits="userSpaceOnUse" x="159" y="192" width="33" height="28">
<path d="M191.61 214L190.81 218L159.81 218.87L159.5 219.18L160.76 200.54C160.76 200.54 162.59 193.77 167.03 192.72C168.131 192.517 169.251 192.43 170.37 192.46C171.29 192.46 172.24 192.51 173.13 192.58C174.21 192.65 175.19 192.75 175.9 192.82L177 193C179.122 193.383 181.067 194.434 182.55 196C183.365 196.803 184.074 197.707 184.66 198.69C188 204.22 191.61 214 191.61 214Z" fill="white"/>
</mask>
<g mask="url(#mask2_171_2105)">
<path d="M173.864 192.56L171.276 193.396L171.601 194.404L174.19 193.568L173.864 192.56Z" fill="#5F003C"/>
<path d="M171.77 198.93L170.93 198.3L172.56 196.12L173.41 196.76L171.77 198.93Z" fill="#5F003C"/>
<path d="M166.33 196.57L167.25 196.05L168.57 198.43L167.65 198.94L166.33 196.57Z" fill="#5F003C"/>
<path d="M169.014 200.365L168.617 201.337L171.135 202.365L171.532 201.392L169.014 200.365Z" fill="#5F003C"/>
<path d="M168.234 203.27L165.582 203.873L165.817 204.907L168.469 204.304L168.234 203.27Z" fill="#5F003C"/>
<path d="M163.182 199.603L162.656 202.271L163.686 202.475L164.212 199.806L163.182 199.603Z" fill="#5F003C"/>
<path d="M166.074 191.351L165.678 192.323L168.197 193.348L168.593 192.376L166.074 191.351Z" fill="#5F003C"/>
<path d="M165.28 194.285L162.629 194.892L162.863 195.916L165.514 195.308L165.28 194.285Z" fill="#5F003C"/>
<path d="M160.237 190.57L159.718 193.24L160.749 193.44L161.268 190.77L160.237 190.57Z" fill="#5F003C"/>
<path d="M176.902 201.908L174.316 202.752L174.642 203.75L177.228 202.907L176.902 201.908Z" fill="#5F003C"/>
<path d="M174.82 208.28L173.97 207.64L175.61 205.47L176.45 206.1L174.82 208.28Z" fill="#5F003C"/>
<path d="M169.37 205.91L170.29 205.4L171.62 207.78L170.7 208.29L169.37 205.91Z" fill="#5F003C"/>
<path d="M172.051 209.702L171.654 210.674L174.173 211.701L174.569 210.729L172.051 209.702Z" fill="#5F003C"/>
<path d="M171.279 212.619L168.628 213.225L168.864 214.258L171.515 213.652L171.279 212.619Z" fill="#5F003C"/>
<path d="M166.219 208.933L165.697 211.602L166.728 211.804L167.249 209.134L166.219 208.933Z" fill="#5F003C"/>
<path d="M179.761 210.66L177.173 211.496L177.496 212.495L180.084 211.659L179.761 210.66Z" fill="#5F003C"/>
<path d="M177.67 217.04L176.83 216.41L178.46 214.23L179.3 214.86L177.67 217.04Z" fill="#5F003C"/>
<path d="M173.136 214.165L172.22 214.677L173.546 217.052L174.463 216.54L173.136 214.165Z" fill="#5F003C"/>
<path d="M174.919 218.486L174.524 219.459L177.044 220.482L177.439 219.509L174.919 218.486Z" fill="#5F003C"/>
<path d="M169.068 217.684L168.545 220.353L169.576 220.555L170.099 217.886L169.068 217.684Z" fill="#5F003C"/>
<path d="M158.5 198.66L158.18 197.65L160.77 196.81L161.09 197.81L158.5 198.66Z" fill="#5F003C"/>
<path d="M158.67 203.2L157.83 202.57L159.46 200.39L160.31 201.02L158.67 203.2Z" fill="#5F003C"/>
<path d="M161.55 208L161.22 207L163.81 206.16L164.14 207.16L161.55 208Z" fill="#5F003C"/>
<path d="M162.504 209.721L160.864 211.891L161.702 212.524L163.342 210.354L162.504 209.721Z" fill="#5F003C"/>
<path d="M158.96 213.984L158.565 214.957L161.086 215.979L161.481 215.006L158.96 213.984Z" fill="#5F003C"/>
<path d="M166.653 214.935L164.067 215.779L164.393 216.777L166.979 215.933L166.653 214.935Z" fill="#5F003C"/>
<path d="M165.361 218.505L163.723 220.677L164.561 221.309L166.199 219.138L165.361 218.505Z" fill="#5F003C"/>
<path d="M160.046 218.423L159.128 218.933L160.451 221.31L161.368 220.8L160.046 218.423Z" fill="#5F003C"/>
<path d="M186.117 214.766L183.717 216.046L184.211 216.973L186.611 215.693L186.117 214.766Z" fill="#5F003C"/>
<path d="M185.183 210.317L183.958 212.745L184.895 213.218L186.12 210.79L185.183 210.317Z" fill="#5F003C"/>
<path d="M189.223 209.554L188.409 210.217L190.127 212.326L190.941 211.663L189.223 209.554Z" fill="#5F003C"/>
<path d="M185.205 206.821L184.984 207.848L187.644 208.419L187.864 207.392L185.205 206.821Z" fill="#5F003C"/>
<path d="M189.988 203.395L187.482 204.451L187.889 205.419L190.396 204.363L189.988 203.395Z" fill="#5F003C"/>
<path d="M189.649 218.687L188.416 221.111L189.352 221.587L190.585 219.163L189.649 218.687Z" fill="#5F003C"/>
<path d="M189.675 215.189L189.455 216.215L192.115 216.785L192.335 215.759L189.675 215.189Z" fill="#5F003C"/>
<path d="M181.515 206.055L179.116 207.337L179.611 208.263L182.01 206.981L181.515 206.055Z" fill="#5F003C"/>
<path d="M180.548 201.627L179.318 204.053L180.255 204.528L181.485 202.102L180.548 201.627Z" fill="#5F003C"/>
<path d="M184.595 200.918L183.781 201.583L185.502 203.689L186.315 203.025L184.595 200.918Z" fill="#5F003C"/>
<path d="M180.585 198.15L180.364 199.176L183.023 199.75L183.244 198.723L180.585 198.15Z" fill="#5F003C"/>
<path d="M185.378 194.695L182.874 195.757L183.284 196.723L185.788 195.661L185.378 194.695Z" fill="#5F003C"/>
<path d="M187.867 196.717L187.818 199.437L188.868 199.455L188.916 196.736L187.867 196.717Z" fill="#5F003C"/>
<path d="M177.17 197.94L177.66 198.87L175.27 200.16L174.77 199.22L177.17 197.94Z" fill="#5F003C"/>
<path d="M176.21 193.5L177.15 193.97L175.92 196.4L174.99 195.93L176.21 193.5Z" fill="#5F003C"/>
<path d="M180.26 192.767L179.447 193.431L181.168 195.538L181.981 194.874L180.26 192.767Z" fill="#5F003C"/>
<path d="M193.65 199.6L194.15 200.52L191.75 201.8L191.25 200.87L193.65 199.6Z" fill="#5F003C"/>
<path d="M192.69 195.15L193.63 195.62L192.4 198.05L191.46 197.57L192.69 195.15Z" fill="#5F003C"/>
<path d="M189.322 191.438L186.923 192.721L187.418 193.647L189.817 192.364L189.322 191.438Z" fill="#5F003C"/>
</g>
<path d="M176.24 188.54V188.77L175.46 193.16L175.39 193.56C175.045 193.826 174.647 194.014 174.222 194.111C173.797 194.208 173.356 194.211 172.93 194.12C171.716 193.713 170.544 193.19 169.43 192.56C169.6 191.358 169.837 190.166 170.14 188.99C170.324 188.215 170.589 187.46 170.93 186.74L171.01 186.58L171.36 186.8L172.56 187.21H172.67H172.79L173 187.27L173.59 187.48L175.09 188.02L175.29 188.09H175.4L176.24 188.54Z" fill="#FBCEB4"/>
<path d="M195.83 196.21L188.47 194.74L185.25 206.35L193.5 206.84L195.83 196.21Z" fill="white" stroke="#F8CEC4" stroke-width="0.31" stroke-miterlimit="10"/>
<path d="M187.07 196.2L194.95 197.02L192.63 210.13L183.79 210.65L187.07 196.2Z" fill="#5F003C"/>
<g style="mix-blend-mode:multiply" opacity="0.1">
<path d="M168.33 200.22C168.33 200.22 169.51 216.69 176.42 215.04C177.38 214.81 168.33 200.22 168.33 200.22Z" fill="#5F003C"/>
</g>
<path d="M192.56 203.71C192.62 203.55 192.4 203.41 192.19 203.56C191.81 203.86 191.25 204.3 191.05 204.49C190.85 204.68 190.94 204.49 190.94 204.41C190.94 204.33 191.76 203.67 192.29 203.08C192.61 202.74 192.83 202.47 192.65 202.31C192.47 202.15 190.89 203.82 190.77 203.76C190.65 203.7 190.68 203.68 190.77 203.61C190.98 203.33 191.45 202.88 191.9 202.4C192.35 201.92 192.36 201.82 192.24 201.65C191.86 201.23 190.85 202.75 190.24 203.12C190.18 203.12 190.1 203.12 190.16 203.01C190.22 202.9 191.37 201.88 191.75 201.39C191.97 201.11 191.67 200.71 191.29 201.04C190.65 201.53 189.96 202.16 189.5 202.58C189.04 203 188.68 203.28 188.6 203.19C188.52 203.1 188.76 202.78 189.01 202.43C189.26 202.08 189.32 201.59 189.01 201.36C188.755 201.713 188.474 202.047 188.17 202.36C187.949 202.627 187.745 202.907 187.56 203.2C187.09 203.78 184.2 205.61 184.03 205.84C184.03 205.84 186.1 208.3 186.58 208.92C186.58 208.92 187.84 207.92 188.19 207.6C189.07 206.75 190.11 206.16 191.03 205.24C191.53 204.76 192.26 204.1 192.56 203.71Z" fill="#FBCEB4"/>
<path d="M171.89 213.13L174.79 217.57C174.79 217.57 175.65 217.57 179.15 215.12C185.51 210.74 187.86 207.76 187.86 207.76L185.79 204.81L171.89 213.13Z" fill="#FBCEB4"/>
<path d="M194.91 196.96L192.6 210.13L193.56 208.89L195.81 196.24L194.91 196.96Z" fill="#5F003C"/>
<g style="mix-blend-mode:multiply" opacity="0.1">
<path d="M176.5 193.1L175.5 192.98L176.28 188.59L176.99 188.33C176.27 187.79 175.71 187.63 175.13 187.93C175.038 187.978 174.951 188.035 174.87 188.1C174.559 188.357 174.287 188.657 174.06 188.99C173.336 190.037 172.923 191.268 172.87 192.54C172.865 192.61 172.865 192.68 172.87 192.75C172.859 193.15 172.896 193.549 172.98 193.94C173.48 196.25 175.67 197.49 178.16 197.94C178.911 198.129 179.706 198.028 180.386 197.658C181.066 197.287 181.582 196.674 181.83 195.94C180.401 194.45 178.534 193.455 176.5 193.1Z" fill="#5F003C"/>
</g>
<path d="M181.91 180.23C181.91 182.224 181.118 184.137 179.707 185.547C178.297 186.958 176.384 187.75 174.39 187.75C170.24 187.75 165.88 183.95 165.63 179.8C165.28 173.64 170.17 171.91 174.3 172.21C180.18 172.64 181.91 176.08 181.91 180.23Z" fill="#032428"/>
<path d="M179 181.4L178.88 183.09C178.81 184.73 178.52 188.46 176.16 188.79C175.847 188.818 175.533 188.818 175.22 188.79V180H177.37C177.666 179.99 177.959 180.063 178.216 180.212C178.472 180.361 178.681 180.578 178.82 180.84C178.908 180.991 178.965 181.157 178.99 181.33L179 181.4Z" fill="#FBCEB4"/>
<path d="M171.59 181.4L171.7 183.09C171.77 184.73 172.06 188.46 174.43 188.79C174.739 188.818 175.051 188.818 175.36 188.79V180H173.21C172.914 179.991 172.622 180.065 172.365 180.213C172.109 180.362 171.9 180.579 171.76 180.84C171.676 180.992 171.621 181.158 171.6 181.33L171.59 181.4Z" fill="#FBCEB4"/>
<g style="mix-blend-mode:multiply" opacity="0.1">
<path d="M177.39 182.77C177.39 182.77 177.63 185.1 177.61 185.14C177.5 185.37 176.54 185.5 176.54 185.5C176.54 185.5 177.85 186.36 178.82 185.59C179.36 185.16 180.07 183.15 179.69 182.41C179.39 181.84 178.17 182.38 177.39 182.77Z" fill="#5F003C"/>
</g>
<path d="M179.36 180.72C177.478 180.671 175.595 180.728 173.72 180.89H173.6C172.22 181 171.16 188.2 171.16 188.2C170.457 188.06 169.798 187.751 169.24 187.3C168.725 186.85 168.327 186.282 168.08 185.645C167.832 185.007 167.743 184.319 167.82 183.64C167.874 182.117 168.178 180.614 168.72 179.19C168.977 178.469 169.312 177.778 169.72 177.13C169.72 177.13 175.91 176.83 178.72 177.89C180.33 178.48 179.37 180.72 179.36 180.72Z" fill="#032428"/>
<path d="M172.37 182.75L171 188.32L172.67 188.79C172.67 188.79 173.75 188.17 173.75 187.99C173.75 187.81 173.32 184.34 173.25 184.19L172.37 182.75Z" fill="#FBCEB4"/>
<path d="M177.79 186.21L175.56 186.39C175.733 186.574 175.954 186.705 176.197 186.771C176.441 186.836 176.698 186.832 176.94 186.76C177.52 186.68 177.65 186.53 177.79 186.21Z" fill="white"/>
<path d="M174.9 184.09C175.21 184.09 175.65 183.88 175.64 183.57L174.18 183.73C174.19 184 174.59 184.1 174.9 184.09Z" fill="#042528"/>
<path d="M177.7 183.47C177.7 183.75 178.07 183.8 178.35 183.79C178.63 183.78 179.01 183.6 179 183.33L177.7 183.47Z" fill="#042528"/>
<mask id="mask3_171_2105" style="mask-type:luminance" maskUnits="userSpaceOnUse" x="309" y="191" width="38" height="29">
<path d="M346.44 218.05H338.38L318.92 219.19L317.77 219.32C317.77 219.32 315.96 216.9 313.58 214.16C310.92 211.08 307.9 199.77 311.93 195.38C312.14 195.16 312.28 194.9 312.47 194.67C312.935 194.098 313.481 193.596 314.09 193.18C314.305 193.023 314.533 192.882 314.77 192.76L315.06 192.62C315.166 192.589 315.27 192.548 315.37 192.5L315.76 192.37C316.437 192.161 317.129 192.004 317.83 191.9C318.26 191.82 318.7 191.76 319.16 191.7C319.44 191.7 319.73 191.63 320.02 191.61L321.48 191.49L322.35 191.43H322.72C323.83 191.36 324.8 191.34 325.55 191.33L325.7 191.41C325.856 191.39 326.014 191.39 326.17 191.41C328.257 192.12 330.251 193.076 332.11 194.26C332.54 194.548 332.919 194.907 333.23 195.32C333.473 195.764 333.69 196.221 333.88 196.69C334.12 197.13 335.58 200.69 336.31 202.53C337.48 205.44 336.1 206.48 336.38 208.81C336.38 208.99 335.67 208.81 335.87 209.01C337.34 210.48 336.32 212.92 336.45 214.09C336.54 214.9 336.59 215.38 336.59 215.38L338.59 215.92L346.44 218.05Z" fill="white"/>
</mask>
<g mask="url(#mask3_171_2105)">
<path d="M346.44 218.77H338.38L318.16 221.36L314.25 219.75L312.05 211.57C312.05 211.57 308.17 202.99 311.27 197.03C311.41 196.77 312.27 195.62 312.47 195.39C312.932 194.815 313.479 194.313 314.09 193.9C314.305 193.743 314.533 193.602 314.77 193.48L315.06 193.34L315.37 193.22L315.76 193.09C316.437 192.881 317.129 192.723 317.83 192.62C318.26 192.54 318.7 192.48 319.16 192.41L320.02 192.32L321.48 192.2L322.35 192.15C322.47 192.15 322.6 192.15 322.72 192.15C323.83 192.09 324.8 192.06 325.55 192.05L325.7 192.14C325.856 192.125 326.014 192.125 326.17 192.14C328.258 192.85 330.253 193.81 332.11 195C332.542 195.282 332.921 195.637 333.23 196.05C333.471 196.498 333.688 196.959 333.88 197.43C334.12 197.86 335.58 201.43 336.31 203.27C337.48 206.17 335.53 206.86 335.81 209.19C335.81 209.38 335.81 209.56 335.87 209.74C336.12 211.81 336.32 213.65 336.45 214.82C336.54 215.63 336.59 216.12 336.59 216.12L338.59 216.65L346.44 218.77Z" fill="white"/>
<path opacity="0.1" d="M319.2 201.54C319.169 202.942 319.008 204.338 318.72 205.71C317.57 211.25 318.53 219.92 325.85 218.15C327 217.89 319.2 201.54 319.2 201.54Z" fill="#8F4261"/>
<path d="M345.84 220.12C345.99 220.03 345.84 219.75 345.6 219.76C345.06 219.76 344.27 219.81 343.96 219.84C343.87 219.84 343.88 219.76 343.96 219.71C344.04 219.66 345.18 219.57 346.04 219.4C346.55 219.29 346.93 219.2 346.87 218.93C346.81 218.66 344.3 219.13 344.23 219.01C344.16 218.89 344.23 218.87 344.3 218.85C344.67 218.74 345.39 218.64 346.11 218.5C346.83 218.36 346.9 218.28 346.92 218.05C346.84 217.43 344.92 218.12 344.17 218.05C344.1 218.05 344.06 217.94 344.17 217.9C344.45 217.78 346.01 217.67 346.67 217.48C347.04 217.38 347.04 216.82 346.48 216.87C345.58 216.87 344.54 217.01 343.86 217.07C343.18 217.13 342.67 217.17 342.65 217.07C342.63 216.97 343.06 216.8 343.52 216.66C344.14 216.48 344.35 216.11 344.23 215.66C343.768 215.819 343.293 215.94 342.81 216.02C342.433 216.122 342.063 216.246 341.7 216.39C340.9 216.59 337.1 216.34 336.8 216.39C336.8 216.39 337.05 219.96 337.07 220.83C337.07 220.83 338.85 220.83 339.39 220.7C340.73 220.51 342.06 220.7 343.49 220.44C344.22 220.4 345.3 220.29 345.84 220.12Z" fill="#F8CEC4"/>
<path d="M321.06 215.05L320.76 220.95C320.76 220.95 321.56 221.48 326.28 221.6C334.88 221.83 338.95 220.7 338.95 220.7L339.02 216.7L321.06 215.05Z" fill="#F8CEC4"/>
<path d="M318.71 206.36C318.71 206.36 321.71 215.26 321.82 215.25C321.93 215.24 320.82 221.08 320.82 221.08C320.82 221.08 312.33 214.72 311.82 210.7C311.31 206.68 318.71 206.36 318.71 206.36Z" fill="#AF865E"/>
</g>
<path d="M326.14 186.58L325.66 188.05L325.79 192.65L325.71 193.12C325.71 193.12 325.13 194.33 323.13 194.03C321.854 193.897 320.667 193.316 319.78 192.39C319.7 192.39 320.41 188.99 320.78 186.45C320.78 186.21 320.89 185.98 320.91 185.81C321.01 185.48 321.06 185.26 321.06 185.26L322.73 185.83L323.65 186.15L325.4 186.78L326.14 186.58Z" fill="#AF865E"/>
<path d="M326.25 185.14V191.69C326.266 191.84 326.266 191.99 326.25 192.14C326.168 192.582 325.962 192.992 325.655 193.321C325.349 193.651 324.955 193.886 324.52 194C324.31 194.069 324.091 194.103 323.87 194.1C323.698 194.1 323.527 194.08 323.36 194.04C322.91 193.945 322.498 193.722 322.173 193.397C321.848 193.072 321.625 192.66 321.53 192.21C321.49 192.04 321.47 191.865 321.47 191.69V185.14C321.462 184.525 321.693 183.931 322.114 183.483C322.536 183.035 323.115 182.769 323.73 182.74C323.766 182.731 323.804 182.731 323.84 182.74C323.98 182.74 324.11 182.74 324.23 182.74C324.647 182.807 325.038 182.987 325.36 183.26C325.643 183.484 325.871 183.77 326.025 184.096C326.18 184.422 326.257 184.779 326.25 185.14Z" fill="#AF865E"/>
<path opacity="0.1" d="M332.15 195C330.639 195.81 328.931 196.18 327.22 196.07C326.445 196.16 325.661 196.018 324.966 195.662C324.272 195.306 323.699 194.752 323.32 194.07C323.019 193.473 322.829 192.825 322.76 192.16C322.656 191.233 322.69 190.297 322.86 189.38L323.8 187.65L326.25 187.43V191.72C326.266 191.87 326.266 192.02 326.25 192.17C328.323 192.873 330.304 193.823 332.15 195Z" fill="#8F4261"/>
<path d="M331.91 183.32C331.91 184.381 331.489 185.398 330.738 186.148C329.988 186.899 328.971 187.32 327.91 187.32H319.7C318.639 187.32 317.622 186.899 316.872 186.148C316.121 185.398 315.7 184.381 315.7 183.32C315.878 180.991 316.488 178.715 317.5 176.61C317.85 176.04 319.02 179.29 319.73 179.29L330.24 176.66C331.325 178.716 331.917 180.996 331.97 183.32H331.91Z" fill="#032428"/>
<path d="M331.15 180.27C331.152 181.727 330.722 183.151 329.914 184.363C329.106 185.575 327.956 186.52 326.611 187.078C325.266 187.636 323.785 187.783 322.357 187.499C320.928 187.215 319.616 186.514 318.586 185.484C317.556 184.454 316.855 183.142 316.571 181.713C316.287 180.285 316.434 178.804 316.992 177.459C317.55 176.114 318.495 174.964 319.707 174.156C320.919 173.348 322.343 172.918 323.8 172.92C324.765 172.92 325.721 173.11 326.613 173.48C327.504 173.849 328.315 174.39 328.997 175.073C329.68 175.755 330.221 176.566 330.591 177.457C330.96 178.349 331.15 179.305 331.15 180.27Z" fill="#032428"/>
<path d="M327.81 180.85L327.72 182.31C327.64 184.14 327.31 188.31 324.72 188.66C324.388 188.695 324.052 188.695 323.72 188.66V178.84H324.33H325.13H325.4C326.1 178.84 326.87 178.84 327.12 179.4C327.21 179.57 327.76 179.4 327.89 180.11L327.81 180.85Z" fill="#AF865E"/>
<path d="M319.55 180.42L319.67 182.31C319.76 184.14 320.08 188.31 322.67 188.66C323.019 188.698 323.371 188.698 323.72 188.66V178.84H323.1H322.31H321.31C320.98 178.827 320.653 178.908 320.366 179.072C320.08 179.237 319.846 179.479 319.69 179.77C319.595 179.936 319.533 180.12 319.51 180.31L319.55 180.42Z" fill="#AF865E"/>
<g opacity="0.1">
<path d="M328.77 179.8C328.813 180.839 328.766 181.879 328.63 182.91C328.03 186.23 327.05 186.45 327.05 186.45V186.2C327.447 184.944 327.663 183.637 327.69 182.32V182.04V181.67L323.74 180.86L319.69 179.86C319.69 179.86 327.35 178.05 327.47 178.05C327.942 178.604 328.376 179.188 328.77 179.8Z" fill="#8F4261"/>
</g>
<path d="M328.76 176.47H318.65V179.8H328.76V176.47Z" fill="#032428"/>
<path opacity="0.28" d="M324.78 181.27C324.78 181.27 324.69 184.1 324.71 184.17C324.204 184.331 323.707 184.518 323.22 184.73L325 185C325 185 326 181.68 326 181.61L324.78 181.27Z" fill="#8F4261"/>
<path d="M321 182.42C321 182.42 321.53 181.42 322.74 182.42H321Z" fill="#014753"/>
<path d="M326.93 182.42C326.93 182.42 326.41 181.42 325.2 182.42H326.93Z" fill="#014753"/>
<path d="M323.19 185.78C323.783 185.661 324.385 185.587 324.99 185.56C324.99 185.56 324.99 186.1 324.57 186.2C324.15 186.3 323.32 186.13 323.19 185.78Z" fill="white"/>
<path d="M333.62 204.02L336.63 203.84L341.63 215L336.93 215.33L333.62 204.02Z" fill="#AF865E"/>
<path d="M386.17 195.19L381.23 194.83C379.402 197.502 378.492 200.696 378.64 203.93C378.64 204.16 384.39 205.8 384.39 205.8L386.17 195.19Z" fill="#FACCA3"/>
<path d="M387.9 189.72C387.96 190.08 387.74 190.64 387.83 190.83C388.062 191.369 388.165 191.954 388.13 192.54C388 195.54 388.37 194.99 388.13 196.07C387.94 196.88 387.19 196.91 385.46 197.25C384.18 197.5 381.04 196.33 380.53 196.09C378.13 195 377.22 190.34 377.22 188.44C377.22 184.44 380.52 183.96 382.96 184.44C386.56 185.05 387.67 188.37 387.9 189.72Z" fill="#FACCA3"/>
<g style="mix-blend-mode:multiply">
<path d="M385.73 189.81C385.986 189.617 386.291 189.498 386.61 189.466C386.929 189.435 387.251 189.491 387.54 189.63" fill="#CB9D6E"/>
</g>
<g style="mix-blend-mode:multiply">
<path d="M386.73 190.92C386.912 190.92 387.06 190.772 387.06 190.59C387.06 190.408 386.912 190.26 386.73 190.26C386.548 190.26 386.4 190.408 386.4 190.59C386.4 190.772 386.548 190.92 386.73 190.92Z" fill="#014753"/>
</g>
<path d="M387.6 190.05C387.866 190.873 388.221 191.665 388.66 192.41C388.549 192.506 388.416 192.573 388.273 192.604C388.13 192.636 387.981 192.631 387.84 192.59C387.56 192.49 387.55 190 387.6 190.05Z" fill="#FACCA3"/>
<g style="mix-blend-mode:multiply">
<path d="M386.44 186.39C385.391 185.07 383.89 184.187 382.227 183.912C380.564 183.637 378.858 183.989 377.44 184.9C374.18 186.85 374.03 192.38 380.44 195.98C380.51 195.98 380.88 195.55 381.31 194.82C381.663 194.042 381.834 193.194 381.81 192.34L383.34 191.93C383.34 191.93 382.61 189.18 383.47 188.04C384.256 187.184 385.298 186.605 386.44 186.39Z" fill="black"/>
</g>
<g style="mix-blend-mode:multiply" opacity="0.67">
<path d="M381.79 191.83C381.79 191.83 381.67 193.19 382.32 193.43C382.602 193.524 382.908 193.524 383.19 193.43C383.19 193.43 382.96 195.43 381.87 194.98C380.78 194.53 381.79 191.83 381.79 191.83Z" fill="#FACCA3"/>
</g>
<g style="mix-blend-mode:multiply">
<path d="M388.09 193.35C388.09 193.35 386.99 193.82 386.99 193.84C387.09 194.041 387.255 194.203 387.458 194.299C387.661 194.395 387.891 194.42 388.11 194.37C388.16 194.341 388.201 194.299 388.23 194.249C388.259 194.199 388.274 194.143 388.274 194.085C388.274 194.027 388.259 193.971 388.23 193.921C388.201 193.871 388.16 193.829 388.11 193.8C388 193.76 388.41 193.55 388.09 193.35Z" fill="#ECD6AE"/>
</g>
<path d="M383.12 192.3C383.12 192.3 382.51 191.08 381.97 191.58C381.43 192.08 381.79 193.58 382.4 193.38C382.741 193.266 383.054 193.082 383.32 192.84L383.12 192.3Z" fill="#FACCA3"/>
<g style="mix-blend-mode:multiply">
<path d="M382.61 192.32C382.608 192.272 382.592 192.226 382.564 192.187C382.535 192.148 382.496 192.119 382.451 192.103C382.406 192.086 382.357 192.084 382.31 192.096C382.264 192.108 382.222 192.134 382.19 192.17V192.22C382.175 192.272 382.175 192.328 382.19 192.38C382.194 192.501 382.244 192.615 382.33 192.7C382.373 192.742 382.43 192.765 382.49 192.765C382.55 192.765 382.607 192.742 382.65 192.7L382.61 192.32Z" fill="#CB9D6E"/>
</g>
<g style="mix-blend-mode:multiply">
<path d="M378.952 194.551L378.926 191.411C378.914 189.937 377.708 188.752 376.234 188.764L376.224 188.764C374.749 188.776 373.564 189.982 373.576 191.456L373.602 194.596C373.615 196.071 374.82 197.256 376.295 197.244L376.305 197.244C377.779 197.231 378.965 196.026 378.952 194.551Z" fill="black"/>
</g>
<g style="mix-blend-mode:multiply">
<path d="M386.44 186.39C386.44 186.39 386.74 187.48 384.82 190.92C383.44 193.4 381.21 191.03 381.21 191.03L383.13 186.13L386.44 186.39Z" fill="black"/>
</g>
<path d="M380.13 228C378.77 225.82 381.13 224.3 381.13 224.3C385.58 221.4 394.84 217.23 398.5 216.42C399.026 216.274 399.565 216.176 400.11 216.13C400.429 216.125 400.737 216.244 400.968 216.463C401.2 216.681 401.337 216.982 401.35 217.3C401.35 217.88 399.65 219.03 399.65 219.03C381.86 233.51 381.09 229.55 380.13 228Z" fill="#FACCA3"/>
<path d="M406.25 216.23C406.831 216.039 407.391 215.788 407.92 215.48C408.435 215.432 408.946 215.352 409.45 215.24C409.836 215.347 410.213 215.48 410.58 215.64C410.699 215.678 410.826 215.682 410.946 215.65C411.067 215.618 411.176 215.552 411.26 215.46L409.35 214.13L407.55 214.24H405.47C405.34 214.419 405.261 214.63 405.242 214.85C405.223 215.07 405.263 215.291 405.36 215.49C405.413 215.69 405.528 215.869 405.687 216.002C405.846 216.134 406.043 216.214 406.25 216.23Z" fill="#FACCA3"/>
<path d="M405.66 216.33C406.268 216.253 406.867 216.119 407.45 215.93C407.964 215.988 408.482 216.012 409 216C409.09 216 409.56 216.36 410 216.62C410.106 216.689 410.229 216.726 410.355 216.726C410.481 216.726 410.604 216.689 410.71 216.62L409.1 214.94L407.32 214.69L405.26 214.3C405.084 214.422 404.948 214.594 404.87 214.793C404.791 214.993 404.774 215.211 404.82 215.42C404.977 215.817 405.277 216.142 405.66 216.33Z" fill="#FACCA3"/>
<path d="M406.32 218.37C405.95 218.49 405.14 218.54 404.82 218.61C403.63 218.88 401.05 218.61 400.43 218.7C399.81 218.79 399.01 218.94 398.59 217.91C398.1 216.73 399.47 216.53 399.47 216.53C399.855 216.464 400.236 216.374 400.61 216.26C402.134 215.511 403.696 214.843 405.29 214.26C405.29 214.26 406.14 214.41 406.29 215.04C406.374 215.257 406.389 215.495 406.332 215.721C406.274 215.947 406.148 216.149 405.97 216.3C405.79 216.39 405.54 216.48 405.62 216.81C405.705 217.008 405.843 217.177 406.02 217.299C406.197 217.421 406.405 217.491 406.62 217.5C407.89 217.24 407.94 217.3 408.14 217.63C408.11 217.65 406.9 218.21 406.32 218.37Z" fill="#FACCA3"/>
<path d="M382.79 202.65C382.79 202.65 381.12 205.13 381.19 210.87C381.26 216.61 386.68 226.76 387.19 227.2C390.58 230.28 392.19 227.2 392.19 225.11C392.19 223.4 391.8 219.46 389.79 210.99C388.83 207.07 386.76 201.33 382.79 202.65Z" fill="#FACCA3"/>
<g opacity="0.2">
<path d="M391.44 219C391.08 216.94 390.55 214.31 389.76 211C388.83 207.08 386.76 201.34 382.76 202.66C382.76 202.66 381.09 205.14 381.16 210.88C381.16 213.88 382.94 218.78 384.42 222.15" fill="#8F4160"/>
</g>
<path d="M373.98 213.55L377.72 228.43L388.85 228.54L389.98 213.35L373.98 213.55Z" fill="#E9CA91"/>
<path d="M377.3 228.43L388.65 228.27C388.65 228.27 391.65 232.82 388.01 240.62C387.61 241.46 385.73 249.29 385.73 249.29C385.73 249.29 376.46 251.97 372.27 248.83C371.85 248.51 370.69 244.21 370.27 242.83C368.75 237.25 373.39 234.72 377.3 228.43Z" fill="#FACCA3"/>
<path d="M386.9 216.24C386.9 216.24 392.62 216.75 392.62 213.38C392.62 211.59 392.48 212.81 387.75 206.08" fill="#E9CA91"/>
<path opacity="0.2" d="M380.13 228C378.77 225.82 381.13 224.3 381.13 224.3C385.58 221.4 394.84 217.23 398.5 216.42C399.026 216.274 399.565 216.176 400.11 216.13C400.429 216.125 400.737 216.244 400.968 216.463C401.2 216.681 401.337 216.982 401.35 217.3C401.35 217.88 399.65 219.03 399.65 219.03C381.86 233.51 381.09 229.55 380.13 228Z" fill="#8F4160"/>
<path opacity="0.2" d="M406.25 216.23C406.831 216.039 407.391 215.788 407.92 215.48C408.435 215.432 408.946 215.352 409.45 215.24C409.836 215.347 410.213 215.48 410.58 215.64C410.699 215.678 410.826 215.682 410.946 215.65C411.067 215.618 411.176 215.552 411.26 215.46L409.35 214.13L407.55 214.23H405.47C405.34 214.409 405.261 214.62 405.242 214.84C405.223 215.06 405.263 215.281 405.36 215.48C405.412 215.682 405.525 215.863 405.685 215.998C405.844 216.132 406.042 216.213 406.25 216.23Z" fill="#914260"/>
<path opacity="0.2" d="M405.66 216.33C406.268 216.253 406.867 216.119 407.45 215.93C407.964 215.988 408.482 216.012 409 216C409.09 216 409.56 216.36 410 216.62C410.106 216.689 410.229 216.726 410.355 216.726C410.481 216.726 410.604 216.689 410.71 216.62L409.1 214.94L407.32 214.69L405.26 214.3C405.084 214.422 404.948 214.594 404.87 214.793C404.791 214.993 404.774 215.211 404.82 215.42C404.977 215.817 405.277 216.142 405.66 216.33Z" fill="#914260"/>
<path d="M406.32 218.37C405.95 218.48 405.14 218.54 404.82 218.61C403.63 218.88 401.05 218.61 400.43 218.7C399.81 218.79 399.01 218.93 398.59 217.91C398.1 216.73 399.47 216.53 399.47 216.53C399.857 216.466 400.238 216.373 400.61 216.25C402.136 215.506 403.698 214.838 405.29 214.25C405.29 214.25 406.14 214.4 406.29 215.02C406.375 215.239 406.39 215.478 406.333 215.706C406.275 215.934 406.149 216.138 405.97 216.29C405.79 216.38 405.54 216.47 405.62 216.8C405.706 216.997 405.845 217.166 406.021 217.288C406.198 217.41 406.406 217.48 406.62 217.49C407.89 217.23 407.94 217.29 408.14 217.62C408.11 217.65 406.9 218.21 406.32 218.37Z" fill="#FACCA3"/>
<path opacity="0.2" d="M406.32 218.38C405.95 218.49 405.14 218.54 404.82 218.61C403.63 218.88 401.05 218.56 400.43 218.7C399.81 218.84 399.01 218.93 398.59 217.9C398.17 216.87 399.47 216.53 399.47 216.53C399.857 216.466 400.238 216.373 400.61 216.25C402.136 215.506 403.698 214.838 405.29 214.25C405.29 214.25 406.15 214.4 406.29 215.03C406.376 215.247 406.391 215.486 406.334 215.712C406.276 215.938 406.149 216.14 405.97 216.29C405.79 216.38 405.54 216.48 405.63 216.8C405.713 216.999 405.851 217.171 406.028 217.295C406.205 217.419 406.414 217.49 406.63 217.5C407.9 217.23 407.95 217.29 408.15 217.62C408.11 217.65 406.9 218.22 406.32 218.38Z" fill="#914260"/>
<path d="M389.19 208.15C388.07 206.93 385.28 200.15 385.28 200.15L379 199.9C379 199.9 375 203.81 374.47 206.9C374.144 209.039 374.121 211.214 374.4 213.36H388.54C388.54 213.36 389.24 208.21 389.19 208.15Z" fill="#FACCA3"/>
<path d="M377.37 201.75C378.709 203.194 380.563 204.053 382.53 204.14C385.75 204.21 386.47 202.94 386.47 202.94L387.14 204.28L392.62 212.54C392.62 212.54 393.77 215.19 389.76 216.27L388.85 228.54L377.72 228.43C377.72 228.43 372.61 213.98 373.62 208.93C374.63 203.88 377.37 201.75 377.37 201.75Z" fill="#FF595A"/>
<path d="M401.88 227.23C401.594 227.233 401.312 227.164 401.06 227.03C400.653 226.813 400.349 226.444 400.214 226.004C400.079 225.563 400.124 225.087 400.34 224.68L407.09 211.92C407.19 211.707 407.333 211.516 407.509 211.36C407.685 211.203 407.891 211.084 408.115 211.01C408.338 210.935 408.575 210.907 408.809 210.926C409.044 210.946 409.273 211.013 409.481 211.123C409.689 211.234 409.872 211.386 410.02 211.569C410.168 211.753 410.277 211.964 410.34 212.191C410.404 212.418 410.421 212.655 410.39 212.889C410.359 213.123 410.28 213.347 410.16 213.55L403.41 226.3C403.264 226.58 403.044 226.814 402.775 226.978C402.505 227.142 402.196 227.229 401.88 227.23Z" fill="#032327"/>
<path d="M380.56 233.36C381.51 235.75 384.13 234.77 384.13 234.77C389.13 232.91 397.96 227.93 400.78 225.47C401.21 225.134 401.608 224.759 401.97 224.35C402.164 224.096 402.252 223.777 402.214 223.46C402.177 223.142 402.018 222.852 401.77 222.65C401.31 222.29 399.36 222.99 399.36 222.99C377.17 228.71 379.9 231.68 380.56 233.36Z" fill="#FACCA3"/>
<path d="M405.63 219.4C406.127 219.046 406.66 218.744 407.22 218.5C407.37 218.5 407.82 217.72 408.32 217.42C408.462 217.045 408.578 216.66 408.67 216.27C408.71 216.15 408.785 216.045 408.884 215.966C408.984 215.888 409.104 215.841 409.23 215.83L409.15 218.15L408 219.53L406.74 221.2C406.517 221.199 406.298 221.137 406.108 221.021C405.917 220.905 405.762 220.738 405.66 220.54C405.539 220.376 405.472 220.178 405.467 219.975C405.461 219.771 405.518 219.57 405.63 219.4Z" fill="#FACCA3"/>
<path d="M403.94 218.07C403.63 218.3 403.11 218.92 402.86 219.13C401.94 219.93 400.66 222.2 400.18 222.62C400.018 222.714 399.876 222.841 399.765 222.991C399.653 223.142 399.574 223.315 399.532 223.497C399.49 223.68 399.486 223.87 399.52 224.054C399.554 224.239 399.625 224.414 399.73 224.57C400.38 225.66 401.36 224.67 401.36 224.67C401.646 224.404 401.946 224.153 402.26 223.92C403.06 223.4 405.46 222.29 406.65 221.35C406.755 221.149 406.81 220.926 406.81 220.7C406.81 220.474 406.755 220.251 406.65 220.05C406.526 219.85 406.343 219.695 406.126 219.605C405.909 219.515 405.669 219.496 405.44 219.55C405.26 219.64 405.04 219.78 404.83 219.55C404.716 219.367 404.655 219.156 404.655 218.94C404.655 218.724 404.716 218.513 404.83 218.33C405.83 217.46 405.78 217.38 405.63 217.03C405.59 217.06 404.41 217.7 403.94 218.07Z" fill="#FACCA3"/>
<path d="M405.2 219.81C405.622 219.368 406.084 218.967 406.58 218.61C406.72 218.53 407.02 217.72 407.45 217.32C407.511 216.926 407.548 216.528 407.56 216.13C407.577 216.004 407.629 215.886 407.71 215.788C407.792 215.691 407.899 215.619 408.02 215.58L408.41 217.88L407.56 219.46L406.65 221.35C406.447 221.416 406.228 221.421 406.022 221.365C405.816 221.308 405.631 221.191 405.49 221.03C405.241 220.675 405.138 220.239 405.2 219.81Z" fill="#FACCA3"/>
<g style="mix-blend-mode:multiply" opacity="0.67">
<path d="M382.69 196.65C382.82 196.72 381.97 199.32 385.31 200.31L385.74 197.39L382.69 196.65Z" fill="#FACCA3"/>
</g>
<path d="M378.55 199.93L383.86 203.46L384.89 206.99L376.37 203.04L378.55 199.93Z" fill="white"/>
<path d="M385.93 201.24L386.64 203.1L385.76 205.6L384.45 203.39L385.93 201.24Z" fill="white"/>
<path d="M375.65 205.26C375.65 205.26 372.09 208.07 374.04 213.47C375.17 216.62 379.51 229.37 379.99 229.81C383.38 232.89 384.99 229.81 384.99 227.73C384.99 226.02 384.89 218.45 383.04 213.73C381.57 210 379.63 203.94 375.65 205.26Z" fill="#FACCA3"/>
<path d="M374.85 217.33C374.85 217.33 370.53 205.63 376.25 204.95C381.32 204.36 384 215.06 384 215.06L374.85 217.33Z" fill="#FF595A"/>
<path d="M377.38 201.77L374.85 204.39C374.85 204.39 382.13 211.28 383.28 214.59C384.9 218.21 387.86 226.51 387.86 226.51L390.86 225.51C390.86 225.51 386.3 211.17 383.56 208.87C381.74 206.76 377.38 201.77 377.38 201.77Z" fill="#032327"/>
<path d="M372.89 208.13L372.65 166.18C372.65 166.18 418.98 165.83 423.14 165.89C423.14 165.1 423.14 164.45 423.14 163.89C423.113 162.475 422.705 161.093 421.96 159.89C420.25 157.15 416.34 152.98 408.33 152.98C404.8 152.98 371.63 153.13 326.39 153.35L285 153.54L158.62 154.14L117.23 154.34L94.91 154.45L44.46 154.68C44.2635 154.67 44.0665 154.67 43.87 154.68C41.9065 154.856 40.0809 155.764 38.7562 157.224C37.4315 158.684 36.7046 160.589 36.72 162.56V247.7C36.7061 249.592 37.3751 251.425 38.604 252.863C39.8328 254.302 41.5393 255.248 43.41 255.53L76.54 260.27C76.8977 260.321 77.2586 260.348 77.62 260.35H412.84C412.84 260.35 421.36 260.35 423.07 254.57C423.337 253.111 423.48 251.633 423.5 250.15C423.61 247.98 423.68 245.15 423.74 241.84C423.74 240.1 423.74 238.22 423.8 236.24C404.68 235.06 392.45 211.81 372.89 208.13ZM48.05 209.29V166.81H57.28C57.6648 166.932 58.0663 166.993 58.47 166.99H97.47C97.8735 166.991 98.2749 166.931 98.66 166.81H159.34C159.729 166.931 160.133 166.991 160.54 166.99H252C252.404 166.991 252.805 166.931 253.19 166.81H354.19L354.42 209.29H48.05ZM404.86 194.73C407.063 194.706 409.168 193.812 410.713 192.241C412.259 190.671 413.121 188.553 413.11 186.35V178.54C413.121 176.337 412.259 174.219 410.713 172.649C409.168 171.078 407.063 170.184 404.86 170.16V194.73Z" fill="#FF595A"/>
<path opacity="0.45" d="M256.06 160.86V162.53C256.055 163.4 255.773 164.246 255.255 164.945C254.738 165.645 254.011 166.161 253.18 166.42C252.795 166.541 252.394 166.601 251.99 166.6H160.54C160.133 166.601 159.729 166.541 159.34 166.42C158.509 166.161 157.783 165.645 157.265 164.945C156.747 164.246 156.465 163.4 156.46 162.53V160.86C156.468 159.781 156.901 158.749 157.664 157.987C158.428 157.225 159.461 156.795 160.54 156.79H252C253.076 156.798 254.106 157.23 254.866 157.991C255.626 158.753 256.055 159.784 256.06 160.86Z" fill="white"/>
<path opacity="0.45" d="M101.54 160.86V162.53C101.535 163.4 101.253 164.246 100.735 164.945C100.218 165.645 99.4907 166.161 98.66 166.42C98.2749 166.541 97.8736 166.601 97.47 166.6H58.47C58.0664 166.603 57.6648 166.542 57.28 166.42C56.4474 166.163 55.7184 165.647 55.1988 164.948C54.6791 164.248 54.3958 163.401 54.39 162.53V160.86C54.3979 159.781 54.8306 158.749 55.5943 157.987C56.3581 157.225 57.3913 156.795 58.47 156.79H97.47C98.5478 156.795 99.58 157.226 100.342 157.988C101.104 158.75 101.535 159.782 101.54 160.86Z" fill="white"/>
<path d="M158.58 149.72H117.19V154.72H158.58V149.72Z" fill="#FF595A"/>
<path d="M95.11 154.73H43.11V149.63C43.1021 148.824 43.2532 148.025 43.5545 147.277C43.8559 146.53 44.3017 145.849 44.8665 145.274C45.4312 144.699 46.1037 144.241 46.8456 143.927C47.5875 143.612 48.3841 143.446 49.19 143.44H84.47L95.11 154.73Z" fill="#FF595A"/>
<path d="M88.53 151.77H50V149.26C50 148.464 50.3161 147.701 50.8787 147.139C51.4413 146.576 52.2044 146.26 53 146.26H83.2L88.53 151.77Z" fill="#054752"/>
<path d="M326.35 149.72H284.96V154.72H326.35V149.72Z" fill="#FF595A"/>
<path d="M57.28 166.42H98.66C98.2749 166.541 97.8735 166.601 97.47 166.6H58.47C58.0664 166.603 57.6648 166.542 57.28 166.42Z" fill="white"/>
<path d="M159.34 166.42H253.18C252.795 166.541 252.394 166.601 251.99 166.6H160.54C160.133 166.601 159.729 166.541 159.34 166.42Z" fill="white"/>
<g style="mix-blend-mode:multiply" opacity="0.45">
<path d="M307.35 258.66V243.66C307.349 241.835 307.707 240.028 308.404 238.341C309.102 236.655 310.125 235.123 311.415 233.832C312.705 232.541 314.236 231.517 315.922 230.818C317.608 230.12 319.415 229.76 321.24 229.76H333.9C335.725 229.76 337.532 230.12 339.218 230.818C340.904 231.517 342.435 232.541 343.725 233.832C345.015 235.123 346.038 236.655 346.736 238.341C347.433 240.028 347.791 241.835 347.79 243.66V258.66H307.35Z" fill="#044752"/>
</g>
<path d="M327.57 270.2C337.224 270.2 345.05 262.374 345.05 252.72C345.05 243.066 337.224 235.24 327.57 235.24C317.916 235.24 310.09 243.066 310.09 252.72C310.09 262.374 317.916 270.2 327.57 270.2Z" fill="#054752"/>
<path opacity="0.45" d="M327.57 265.53C334.645 265.53 340.38 259.795 340.38 252.72C340.38 245.645 334.645 239.91 327.57 239.91C320.495 239.91 314.76 245.645 314.76 252.72C314.76 259.795 320.495 265.53 327.57 265.53Z" fill="#044752"/>
<g style="mix-blend-mode:multiply" opacity="0.45">
<path d="M327.57 265.54C334.65 265.54 340.39 259.8 340.39 252.72C340.39 245.64 334.65 239.9 327.57 239.9C320.49 239.9 314.75 245.64 314.75 252.72C314.75 259.8 320.49 265.54 327.57 265.54Z" fill="#044752"/>
</g>
<path opacity="0.86" d="M327.57 263.02C333.259 263.02 337.87 258.409 337.87 252.72C337.87 247.032 333.259 242.42 327.57 242.42C321.881 242.42 317.27 247.032 317.27 252.72C317.27 258.409 321.881 263.02 327.57 263.02Z" fill="white"/>
<path d="M327.57 257.65C330.293 257.65 332.5 255.443 332.5 252.72C332.5 249.997 330.293 247.79 327.57 247.79C324.847 247.79 322.64 249.997 322.64 252.72C322.64 255.443 324.847 257.65 327.57 257.65Z" fill="#044752"/>
<path d="M192.45 245.96H185.63V248.8H192.45V245.96Z" fill="#054752"/>
<path d="M276.79 245.96H269.97V248.8H276.79V245.96Z" fill="#054752"/>
<path d="M405.86 245.96H399.04V248.8H405.86V245.96Z" fill="#054752"/>
<path d="M417.05 240.26C417.05 240.26 417.16 245.65 417.72 246.46C418.79 247.99 421.19 248.55 423.96 248.46V240.3L417.05 240.26Z" fill="#054752"/>
<path d="M413.11 178V185.68C413.102 187.865 412.23 189.957 410.684 191.501C409.139 193.045 407.045 193.915 404.86 193.92V169.72C407.052 169.725 409.152 170.6 410.698 172.153C412.245 173.705 413.113 175.808 413.11 178Z" fill="white"/>
<path d="M413.11 178.54V186.35C413.121 188.553 412.259 190.671 410.713 192.242C409.168 193.812 407.063 194.706 404.86 194.73V170.16C407.063 170.184 409.168 171.078 410.713 172.649C412.259 174.219 413.121 176.337 413.11 178.54Z" fill="#FF595A"/>
<path d="M36.68 222.71C39.4395 217.032 43.8855 212.345 49.41 209.29L98.25 209.49C98.37 211.9 98.43 214.37 98.42 216.86C94.4803 218.556 90.9381 221.057 88.02 224.2C85.1019 227.344 82.8722 231.062 81.4735 235.117C80.0748 239.172 79.5379 243.475 79.8972 247.749C80.2565 252.023 81.504 256.176 83.56 259.94L82.99 260.4H77.11L43.37 255.58C42.5257 255.429 41.7052 255.167 40.93 254.8C40.13 254.31 38.63 253.2 38.63 253.2C38.63 253.2 36.63 250.88 36.63 248.8L36.68 222.71Z" fill="#054752"/>
<path d="M137 260.4C142.47 251.26 144.42 239.32 144.66 227.74C144.759 221.655 144.475 215.57 143.81 209.52H121.61L121.5 216.33C114.049 213.536 105.806 213.736 98.5 216.89C98.5 217.54 98.5 218.19 98.5 218.84C98.09 233.6 95 249 85.32 258.37C84.76 258.91 84.17 259.44 83.56 259.94C83.64 260.1 83.72 260.25 83.81 260.4H137Z" fill="white"/>
<path d="M81.75 234.35C83.2052 230.461 85.4323 226.907 88.2971 223.901C91.1619 220.895 94.6053 218.5 98.42 216.86C98.42 217.51 98.42 218.16 98.42 218.81C98.09 233.6 95 249 85.32 258.37C84.76 258.91 84.17 259.44 83.56 259.94C81.4312 256.057 80.1673 251.76 79.8549 247.343C79.5425 242.926 80.189 238.494 81.75 234.35Z" fill="#36BCEE"/>
<path d="M38.76 208.32H38.75C37.1428 208.32 35.84 209.623 35.84 211.23V236.56C35.84 238.167 37.1428 239.47 38.75 239.47H38.76C40.3671 239.47 41.67 238.167 41.67 236.56V211.23C41.67 209.623 40.3671 208.32 38.76 208.32Z" fill="#054752"/>
<g style="mix-blend-mode:multiply" opacity="0.45">
<path d="M89.12 258.66V243.66C89.1306 239.985 90.5973 236.464 93.1989 233.868C95.8004 231.272 99.3248 229.813 103 229.81H115.66C117.485 229.81 119.292 230.17 120.978 230.868C122.664 231.567 124.195 232.591 125.485 233.882C126.775 235.173 127.798 236.705 128.496 238.392C129.193 240.078 129.551 241.885 129.55 243.71V258.71L89.12 258.66Z" fill="#044752"/>
</g>
<path d="M109.34 270.2C118.994 270.2 126.82 262.374 126.82 252.72C126.82 243.066 118.994 235.24 109.34 235.24C99.686 235.24 91.86 243.066 91.86 252.72C91.86 262.374 99.686 270.2 109.34 270.2Z" fill="#054752"/>
<path opacity="0.45" d="M109.34 265.53C116.415 265.53 122.15 259.795 122.15 252.72C122.15 245.645 116.415 239.91 109.34 239.91C102.265 239.91 96.53 245.645 96.53 252.72C96.53 259.795 102.265 265.53 109.34 265.53Z" fill="#044752"/>
<g style="mix-blend-mode:multiply" opacity="0.45">
<path d="M109.34 265.54C116.42 265.54 122.16 259.8 122.16 252.72C122.16 245.64 116.42 239.9 109.34 239.9C102.26 239.9 96.52 245.64 96.52 252.72C96.52 259.8 102.26 265.54 109.34 265.54Z" fill="#044752"/>
</g>
<path opacity="0.86" d="M109.34 263.02C115.029 263.02 119.64 258.409 119.64 252.72C119.64 247.032 115.029 242.42 109.34 242.42C103.651 242.42 99.04 247.032 99.04 252.72C99.04 258.409 103.651 263.02 109.34 263.02Z" fill="white"/>
<path d="M109.34 257.65C112.063 257.65 114.27 255.443 114.27 252.72C114.27 249.997 112.063 247.79 109.34 247.79C106.617 247.79 104.41 249.997 104.41 252.72C104.41 255.443 106.617 257.65 109.34 257.65Z" fill="#044752"/>
<path d="M214.974 217.38L215.116 217.197L224.51 217.068C225.187 217.058 225.533 217.344 225.547 217.925L225.572 218.907C225.589 219.522 225.239 219.837 224.521 219.852L222.001 219.898C221.868 219.9 221.802 219.959 221.802 220.075L221.791 234.506C221.791 235.287 221.335 235.679 220.423 235.683H219.984C219.051 235.687 218.584 235.288 218.584 234.484L218.598 220.078C218.598 219.937 218.516 219.867 218.352 219.867C217.276 219.87 216.171 219.95 215.134 219.68C215.017 219.65 214.944 219.585 214.913 219.485C214.709 218.783 214.729 218.082 214.974 217.38Z" fill="white"/>
<path d="M300.916 235.38C300.621 235.393 300.329 235.431 300.039 235.497C297.926 235.971 295.082 235.145 294.248 233.304C293.815 232.351 293.592 231.433 293.578 230.548C293.528 227.355 293.546 224.348 293.631 221.528C293.688 219.693 294.651 217.879 296.832 217.252C297.594 217.034 298.515 216.957 299.594 217.023C303.018 217.231 304.162 219.696 304.152 222.299C304.14 225.186 304.145 227.988 304.166 230.704C304.171 231.381 303.928 232.225 303.439 233.236C303.409 233.299 303.402 233.368 303.418 233.434C303.434 233.5 303.472 233.561 303.528 233.609C303.98 233.991 304.394 234.412 304.772 234.873C305.228 235.429 304.993 236.194 304.13 236.313C303.371 236.417 302.181 236.494 301.639 235.962C301.482 235.807 301.327 235.645 301.172 235.478C301.106 235.407 301.02 235.374 300.916 235.38ZM298.382 231.471C298.432 231.342 298.527 231.229 298.653 231.146C298.779 231.063 298.932 231.015 299.091 231.007L300.677 230.924C300.724 230.922 300.769 230.904 300.801 230.874C300.834 230.845 300.852 230.806 300.852 230.765C300.871 227.784 300.864 224.767 300.83 221.714C300.826 221.337 300.734 220.979 300.556 220.641C300.089 219.748 298.653 219.635 297.815 220.087C296.864 220.601 296.839 222.023 296.839 222.941C296.836 225.374 296.842 227.679 296.857 229.857C296.861 230.464 296.953 231.077 297.131 231.695C297.266 232.172 297.613 232.504 298.172 232.692C298.196 232.7 298.222 232.703 298.247 232.698C298.273 232.694 298.297 232.684 298.316 232.669C298.335 232.654 298.349 232.634 298.356 232.612C298.364 232.59 298.364 232.567 298.357 232.545C298.238 232.176 298.246 231.818 298.382 231.471Z" fill="white"/>
<path d="M165.931 226.676C166.27 226.89 166.566 227.122 166.751 227.459C168.045 229.795 168.045 234.013 164.841 235.344C163.539 235.886 162.196 235.906 160.814 235.405C159.074 234.772 158.444 233.334 158.141 231.82C158.009 231.178 157.745 229.682 158.64 229.364C159.27 229.141 160.956 229.003 161.213 229.817C161.462 230.612 161.238 231.686 161.74 232.383C162.407 233.313 163.618 233.059 163.996 232.129C164.242 231.523 164.253 230.731 164.231 230.107C164.178 228.514 162.984 227.936 161.32 227.761C161.128 227.742 160.948 227.671 160.806 227.56C160.663 227.448 160.565 227.302 160.525 227.14C160.406 226.663 160.413 226.206 160.546 225.767C160.603 225.586 160.726 225.424 160.897 225.307C161.069 225.19 161.279 225.123 161.498 225.116C164.249 225.03 164.648 222.822 164.057 220.996C163.857 220.372 163.013 219.598 162.214 220.13C161.302 220.736 161.313 222.026 161.302 222.941C161.302 223.043 161.269 223.135 161.202 223.216C160.518 224.063 158.037 224.109 158.037 222.702C158.03 220.259 158.846 217.714 161.847 217.175C164.214 216.753 166.395 218.02 167.104 219.873C167.802 221.708 167.745 223.807 166.705 225.562C166.512 225.88 166.149 226.11 165.889 226.379C165.779 226.491 165.794 226.59 165.931 226.676Z" fill="white"/>
<path d="M257.127 226.911C257.937 227.706 258.329 228.856 258.303 230.361C258.279 231.87 258.264 233.335 258.256 234.757C258.254 235.411 257.872 235.737 257.109 235.735H256.25C255.459 235.733 255.059 235.393 255.049 234.714C255.023 233.193 255.007 231.753 255.003 230.395C255 229.742 254.933 229.287 254.8 229.028C254.265 227.991 252.711 227.994 251.567 228.037C251.481 228.04 251.399 228.072 251.339 228.126C251.28 228.18 251.246 228.252 251.246 228.327L251.225 234.695C251.223 235.378 250.822 235.723 250.024 235.729L249.283 235.732C248.416 235.738 247.982 235.368 247.982 234.622L248.003 218.011C248.004 217.888 248.033 217.767 248.088 217.654C248.144 217.541 248.225 217.438 248.327 217.353C248.429 217.267 248.551 217.2 248.683 217.155C248.816 217.109 248.958 217.087 249.101 217.09C252.693 217.154 257.433 216.261 258.306 220.445C258.713 222.372 258.777 225.079 257.134 226.572C257.084 226.617 257.056 226.678 257.054 226.74C257.053 226.803 257.079 226.864 257.127 226.911ZM251.221 220.332L251.2 224.932C251.2 225.017 251.239 225.097 251.309 225.157C251.378 225.217 251.472 225.25 251.571 225.25L253.032 225.256C253.629 225.258 254.203 225.047 254.627 224.669C255.05 224.292 255.289 223.779 255.291 223.244L255.299 222.045C255.299 221.78 255.242 221.517 255.13 221.272C255.018 221.027 254.852 220.804 254.644 220.616C254.435 220.427 254.188 220.278 253.915 220.176C253.642 220.074 253.349 220.021 253.053 220.02L251.592 220.014C251.543 220.014 251.495 220.022 251.45 220.038C251.405 220.054 251.364 220.078 251.33 220.107C251.296 220.137 251.268 220.172 251.25 220.21C251.231 220.249 251.221 220.29 251.221 220.332Z" fill="white"/>
<path d="M267.351 220.139L267.341 224.813C267.341 224.874 267.369 224.932 267.419 224.975C267.469 225.018 267.537 225.042 267.608 225.042L271.19 225.048C272.076 225.05 272.527 225.433 272.544 226.195C272.546 226.361 272.549 226.526 272.551 226.691C272.565 227.435 272.14 227.807 271.275 227.807L267.526 227.81C267.412 227.81 267.355 227.859 267.355 227.957L267.341 232.793C267.341 232.841 267.363 232.887 267.402 232.922C267.441 232.956 267.495 232.976 267.551 232.976L272.17 233.004C273.001 233.01 273.414 233.369 273.406 234.081L273.399 234.714C273.392 235.389 272.997 235.726 272.213 235.726L265.153 235.738C264.895 235.739 264.647 235.653 264.462 235.498C264.278 235.343 264.171 235.131 264.165 234.909C264.044 229.447 264.151 224.018 264.155 218.332C264.155 218.05 264.231 217.761 264.383 217.463C264.438 217.356 264.528 217.264 264.642 217.2C264.757 217.135 264.891 217.1 265.028 217.099L272.191 217.087C272.935 217.085 273.324 217.403 273.36 218.041L273.41 218.87C273.45 219.58 273.056 219.937 272.227 219.944L267.544 219.977C267.416 219.977 267.351 220.031 267.351 220.139Z" fill="white"/>
<path d="M282.156 228.024L282.159 232.692C282.162 232.879 282.272 232.973 282.491 232.973L287.006 233.004C287.807 233.01 288.204 233.357 288.196 234.044L288.189 234.747C288.185 235.369 287.82 235.687 287.095 235.702C285.209 235.738 283.068 235.752 280.673 235.741C280.091 235.737 279.609 235.654 279.226 235.491C278.984 235.387 278.861 235.217 278.859 234.983C278.847 229.28 278.842 223.911 278.845 218.876C278.847 218.456 278.897 218.048 278.995 217.653C279.021 217.549 279.084 217.465 279.183 217.402C279.495 217.204 279.869 217.103 280.306 217.099C282.587 217.083 284.843 217.084 287.074 217.102C287.775 217.106 288.138 217.409 288.164 218.011L288.204 218.953C288.232 219.605 287.865 219.934 287.102 219.94L282.377 219.983C282.316 219.984 282.258 220.005 282.215 220.042C282.172 220.078 282.149 220.128 282.149 220.179L282.145 224.746C282.145 224.822 282.181 224.896 282.244 224.95C282.307 225.004 282.393 225.035 282.484 225.036L286.065 225.055C286.951 225.059 287.387 225.441 287.373 226.202L287.362 226.712C287.351 227.438 286.922 227.801 286.076 227.801L282.412 227.804C282.241 227.804 282.156 227.878 282.156 228.024Z" fill="white"/>
<path d="M180.13 230.792L177.532 230.786C177.452 230.785 177.375 230.808 177.312 230.85C177.25 230.893 177.207 230.952 177.19 231.019L176.213 234.732C176.021 235.456 175.493 235.796 174.631 235.754C174.412 235.743 174.196 235.726 173.982 235.702C173.084 235.602 172.735 235.172 172.934 234.414C174.353 228.996 175.814 223.595 177.318 218.212C177.406 217.902 177.557 217.623 177.77 217.374C177.844 217.291 177.94 217.238 178.059 217.215C178.665 217.101 179.179 217.092 179.602 217.188C180.004 217.279 180.251 217.499 180.344 217.845L184.781 234.359C184.999 235.17 184.626 235.625 183.662 235.723L183.234 235.766C182.257 235.864 181.667 235.501 181.463 234.677L180.572 231.095C180.519 230.893 180.372 230.792 180.13 230.792ZM178.023 227.746C178.02 227.762 178.02 227.778 178.025 227.793C178.029 227.808 178.037 227.823 178.049 227.835C178.06 227.847 178.075 227.857 178.092 227.864C178.108 227.871 178.126 227.874 178.145 227.874L179.567 227.887C179.585 227.887 179.602 227.884 179.619 227.877C179.635 227.871 179.65 227.862 179.662 227.85C179.674 227.839 179.682 227.825 179.688 227.81C179.693 227.795 179.694 227.78 179.691 227.764L179.032 224.186C179.028 224.161 179.013 224.138 178.991 224.121C178.968 224.105 178.94 224.096 178.911 224.095C178.881 224.095 178.853 224.103 178.83 224.119C178.807 224.135 178.792 224.158 178.786 224.183L178.023 227.746Z" fill="white"/>
<path d="M193.765 232.906C195.416 233.03 196.893 233.048 198.195 232.958C199.017 232.901 199.441 233.226 199.467 233.934C199.467 233.946 199.475 234.209 199.492 234.723C199.516 235.392 199.139 235.727 198.362 235.729C196.412 235.733 194.156 235.737 191.595 235.741C190.201 235.741 190.322 234.744 190.322 233.726C190.306 228.687 190.321 223.469 190.369 218.072C190.373 217.47 190.727 217.168 191.431 217.166L192.5 217.163C193.215 217.161 193.574 217.468 193.576 218.084L193.598 232.75C193.598 232.846 193.653 232.898 193.765 232.906Z" fill="white"/>
<path d="M235.59 231.04L234.632 234.692C234.437 235.441 233.894 235.791 233.003 235.744C232.82 235.736 232.642 235.725 232.468 235.711C231.516 235.629 231.144 235.188 231.353 234.386C233.244 227.16 234.711 221.72 235.754 218.066C235.818 217.843 235.975 217.599 236.225 217.331C236.303 217.248 236.404 217.198 236.528 217.182C237.058 217.116 237.583 217.123 238.103 217.203C238.231 217.221 238.329 217.277 238.395 217.371C238.609 217.665 238.741 217.901 238.791 218.081C239.964 222.257 241.427 227.714 243.178 234.454C243.38 235.233 243.017 235.649 242.091 235.702L241.528 235.735C240.608 235.79 240.054 235.431 239.863 234.659L238.962 231C238.948 230.943 238.911 230.891 238.857 230.853C238.803 230.816 238.736 230.796 238.666 230.796L235.95 230.792C235.753 230.792 235.633 230.875 235.59 231.04ZM236.442 227.758C236.439 227.773 236.44 227.788 236.444 227.803C236.449 227.818 236.457 227.831 236.468 227.843C236.479 227.854 236.493 227.864 236.509 227.87C236.525 227.877 236.542 227.88 236.56 227.881L237.957 227.896C237.974 227.896 237.992 227.893 238.008 227.887C238.024 227.881 238.038 227.872 238.049 227.86C238.061 227.849 238.069 227.836 238.074 227.821C238.079 227.807 238.081 227.792 238.078 227.777L237.433 224.137C237.428 224.113 237.413 224.091 237.392 224.075C237.37 224.059 237.342 224.051 237.314 224.051C237.285 224.051 237.257 224.059 237.235 224.075C237.214 224.091 237.199 224.113 237.194 224.137L236.442 227.758Z" fill="white"/>
</svg>
