<svg width="130" height="21" viewBox="0 0 130 21" fill="none" xmlns="http://www.w3.org/2000/svg">
<path d="M50.0262 0.986958L50.1514 0.793732L58.4002 0.658481C58.9947 0.647746 59.2983 0.948313 59.3108 1.56019L59.3327 2.59394C59.3473 3.24232 59.0396 3.57402 58.4095 3.58905L56.1972 3.63735C56.0803 3.6395 56.0219 3.70175 56.0219 3.82413L56.0125 19.018C56.0125 19.8403 55.612 20.2535 54.8109 20.2578H54.426C53.6061 20.2621 53.1962 19.8413 53.1962 18.9954L53.2087 3.82735C53.2087 3.67921 53.1367 3.60514 52.9928 3.60514C52.0477 3.60836 51.0776 3.6921 50.167 3.4087C50.0648 3.3765 50.0001 3.30779 49.973 3.20259C49.7936 2.46405 49.8113 1.7255 50.0262 0.986958Z" fill="#03609F"/>
<path d="M125.489 19.939C125.23 19.9519 124.974 19.9927 124.719 20.0614C122.863 20.5605 120.366 19.691 119.634 17.7523C119.254 16.7497 119.058 15.7825 119.046 14.8508C119.002 11.4887 119.017 8.323 119.093 5.35379C119.143 3.42155 119.988 1.51186 121.903 0.85168C122.572 0.621958 123.381 0.541448 124.328 0.61015C127.335 0.829137 128.34 3.42478 128.33 6.16534C128.32 9.2054 128.324 12.1553 128.343 15.015C128.347 15.7278 128.134 16.6166 127.704 17.6815C127.678 17.7473 127.672 17.8197 127.686 17.8896C127.7 17.9594 127.733 18.0237 127.783 18.0744C128.179 18.4758 128.543 18.9192 128.875 19.4044C129.275 19.9905 129.069 20.7956 128.311 20.9212C127.645 21.0307 126.6 21.1112 126.124 20.5509C125.986 20.3877 125.85 20.2181 125.714 20.042C125.656 19.9669 125.581 19.9325 125.489 19.939ZM123.264 15.8233C123.308 15.6873 123.391 15.568 123.502 15.4807C123.613 15.3935 123.747 15.3423 123.887 15.3338L125.279 15.2469C125.321 15.2444 125.36 15.2257 125.388 15.1945C125.417 15.1634 125.433 15.1222 125.432 15.0794C125.449 11.9406 125.443 8.7642 125.414 5.55024C125.41 5.15306 125.329 4.77627 125.173 4.41988C124.763 3.47952 123.502 3.36037 122.766 3.83699C121.931 4.37801 121.909 5.8755 121.909 6.84162C121.907 9.40291 121.912 11.83 121.925 14.1229C121.929 14.7627 122.009 15.4079 122.166 16.0584C122.284 16.5608 122.589 16.9107 123.079 17.1082C123.1 17.1171 123.123 17.1195 123.146 17.1152C123.168 17.111 123.189 17.1002 123.206 17.0841C123.223 17.068 123.235 17.0473 123.242 17.0243C123.248 17.0012 123.248 16.9768 123.242 16.9537C123.138 16.5651 123.145 16.1883 123.264 15.8233Z" fill="#03609F"/>
<path d="M6.9642 10.7737C7.26148 10.9992 7.52121 11.2439 7.68393 11.5981C8.81986 14.0585 8.81986 18.4995 6.00664 19.9003C4.86341 20.4714 3.68471 20.4929 2.47055 19.9647C0.943461 19.2981 0.389578 17.7845 0.12359 16.1904C0.00780634 15.5142 -0.22376 13.9394 0.561689 13.6045C1.11557 13.3694 2.59572 13.2244 2.82103 14.0811C3.04008 14.9184 2.84293 16.0487 3.28416 16.783C3.86934 17.762 4.93329 17.4947 5.265 16.5157C5.48092 15.8781 5.49031 15.044 5.47153 14.387C5.42459 12.7092 4.37628 12.1005 2.91491 11.917C2.74663 11.8961 2.58892 11.8219 2.46382 11.7047C2.33871 11.5875 2.25245 11.4332 2.21708 11.2632C2.11277 10.7608 2.11903 10.2789 2.23585 9.81727C2.28579 9.62616 2.39382 9.45649 2.54414 9.33308C2.69447 9.20966 2.87921 9.13896 3.07137 9.13132C5.48717 9.04115 5.83765 6.71602 5.31819 4.79344C5.14295 4.13648 4.40132 3.32173 3.70036 3.88208C2.89926 4.51971 2.90865 5.87871 2.89926 6.84161C2.89926 6.94896 2.87006 7.04558 2.81164 7.13146C2.21082 8.02351 0.0328403 8.07181 0.0328403 6.59042C0.0265817 4.01732 0.743187 1.33796 3.37804 0.771168C5.45588 0.326753 7.371 1.65999 7.99373 3.61155C8.60707 5.54379 8.557 7.75299 7.64325 9.6015C7.47427 9.93642 7.15508 10.178 6.92664 10.4613C6.83068 10.5794 6.8432 10.6836 6.9642 10.7737Z" fill="#03609F"/>
<path d="M87.0393 11.0217C87.7507 11.8591 88.095 13.0699 88.072 14.6544C88.0511 16.2431 88.0376 17.7857 88.0313 19.2821C88.0292 19.9712 87.6934 20.3147 87.0237 20.3126H86.2695C85.5748 20.3105 85.2233 19.9519 85.215 19.237C85.192 17.6354 85.1785 16.1196 85.1743 14.6898C85.1722 14.0028 85.1128 13.5229 84.9959 13.2503C84.5265 12.1586 83.1622 12.1618 82.1577 12.2069C82.0818 12.2102 82.0102 12.2439 81.9577 12.3009C81.9052 12.3579 81.8759 12.4338 81.876 12.5128L81.8573 19.2177C81.8552 19.9369 81.5037 20.2997 80.8027 20.3062L80.1518 20.3094C79.3903 20.3158 79.0096 19.9261 79.0096 19.1404L79.0284 1.65038C79.0288 1.52129 79.0541 1.39358 79.103 1.27468C79.1518 1.15578 79.2232 1.04808 79.3129 0.957853C79.4026 0.867628 79.5089 0.796682 79.6255 0.749158C79.7421 0.701634 79.8668 0.678486 79.9922 0.681051C83.1465 0.748679 87.3085 -0.191677 88.0751 4.21383C88.4319 6.24268 88.4882 9.09273 87.0456 10.6643C87.0019 10.7126 86.977 10.7758 86.9758 10.8418C86.9747 10.9078 86.9973 10.9719 87.0393 11.0217ZM81.8541 4.09467L81.8354 8.93815C81.8354 9.02698 81.8696 9.11216 81.9307 9.17497C81.9917 9.23778 82.0745 9.27307 82.1608 9.27307L83.4438 9.27951C83.9683 9.28113 84.4719 9.05879 84.844 8.66141C85.216 8.26402 85.426 7.72414 85.4278 7.16049L85.434 5.89809C85.4349 5.61894 85.3846 5.34236 85.286 5.08414C85.1874 4.82592 85.0424 4.59112 84.8593 4.39315C84.6762 4.19518 84.4587 4.03792 84.219 3.93034C83.9794 3.82277 83.7223 3.76699 83.4626 3.76619L82.1796 3.75975C82.1368 3.75975 82.0945 3.76841 82.055 3.78525C82.0155 3.80208 81.9797 3.82674 81.9494 3.85784C81.9192 3.88894 81.8953 3.92587 81.8789 3.9665C81.8625 4.00714 81.8541 4.05068 81.8541 4.09467Z" fill="#03609F"/>
<path d="M96.0172 3.89171L96.0078 8.81248C96.0078 8.87653 96.0326 8.93796 96.0766 8.98326C96.1206 9.02855 96.1803 9.05401 96.2425 9.05401L99.3875 9.06044C100.166 9.06259 100.562 9.46514 100.577 10.2681C100.579 10.442 100.581 10.6159 100.583 10.7898C100.595 11.5734 100.222 11.9652 99.4626 11.9652L96.1706 11.9685C96.0704 11.9685 96.0204 12.02 96.0204 12.123L96.0078 17.2145C96.0078 17.2652 96.0272 17.3138 96.0617 17.35C96.0963 17.3861 96.1432 17.4069 96.1925 17.4077L100.248 17.4367C100.978 17.4431 101.34 17.821 101.334 18.5703L101.328 19.2369C101.321 19.9475 100.974 20.3029 100.286 20.3029L94.0865 20.3157C93.8601 20.3166 93.6424 20.2257 93.4803 20.0624C93.3182 19.8992 93.2246 19.6768 93.2197 19.443C93.1133 13.6914 93.2071 7.97517 93.2103 1.98845C93.2103 1.69217 93.277 1.38731 93.4105 1.07386C93.4588 0.960811 93.5379 0.864508 93.6384 0.796524C93.7389 0.728541 93.8564 0.691768 93.9769 0.690629L100.267 0.677745C100.92 0.675598 101.262 1.01052 101.293 1.68251L101.337 2.55523C101.372 3.30237 101.026 3.67916 100.298 3.6856L96.1862 3.72103C96.0736 3.72103 96.0172 3.77792 96.0172 3.89171Z" fill="#03609F"/>
<path d="M109.016 12.194L109.019 17.1083C109.021 17.3058 109.118 17.4046 109.31 17.4046L113.275 17.4368C113.978 17.4432 114.327 17.8082 114.32 18.5317L114.314 19.2724C114.31 19.9272 113.99 20.2621 113.353 20.2772C111.697 20.3158 109.817 20.3298 107.714 20.319C107.203 20.3147 106.78 20.2267 106.444 20.055C106.231 19.9455 106.124 19.7673 106.122 19.5204C106.111 13.5154 106.107 7.86254 106.109 2.56177C106.111 2.1195 106.155 1.69011 106.241 1.27361C106.264 1.16411 106.319 1.07609 106.406 1.00953C106.68 0.80128 107.008 0.69501 107.392 0.690716C109.395 0.67354 111.376 0.674607 113.335 0.693929C113.95 0.698223 114.269 1.01704 114.292 1.65039L114.327 2.64228C114.352 3.3293 114.029 3.67602 113.36 3.68246L109.21 3.72755C109.157 3.7284 109.106 3.75048 109.068 3.78904C109.031 3.8276 109.01 3.87954 109.01 3.93365L109.007 8.74171C109.007 8.8223 109.038 8.89963 109.094 8.95691C109.149 9.0142 109.225 9.0468 109.304 9.04765L112.449 9.06697C113.227 9.07126 113.61 9.47381 113.598 10.2746L113.588 10.8124C113.578 11.5767 113.201 11.9589 112.458 11.9589L109.242 11.9621C109.091 11.9621 109.016 12.0394 109.016 12.194Z" fill="#03609F"/>
<path d="M19.4312 15.1084L17.15 15.1019C17.0802 15.101 17.0122 15.1248 16.9575 15.1694C16.9028 15.2139 16.8647 15.2766 16.8496 15.3467L15.9922 19.2562C15.8232 20.0184 15.36 20.3769 14.6028 20.3319C14.4108 20.3211 14.221 20.3029 14.0332 20.2771C13.2447 20.1719 12.938 19.72 13.1132 18.9213C14.3587 13.2169 15.6417 7.53077 16.9622 1.86286C17.0394 1.53653 17.1719 1.2424 17.3597 0.980478C17.4243 0.892454 17.5088 0.836637 17.6131 0.813021C18.1451 0.692793 18.5968 0.683123 18.9681 0.784029C19.3207 0.880641 19.5376 1.11144 19.619 1.47642L23.5149 18.8634C23.7069 19.7178 23.3793 20.1966 22.5324 20.2996L22.1568 20.3447C21.2994 20.4478 20.781 20.0656 20.6016 19.1983L19.8193 15.4272C19.7734 15.2146 19.644 15.1084 19.4312 15.1084ZM17.5818 11.9009C17.5786 11.9172 17.5789 11.934 17.5827 11.9501C17.5866 11.9663 17.5938 11.9814 17.604 11.9943C17.6142 12.0072 17.627 12.0177 17.6416 12.0249C17.6561 12.0321 17.6721 12.036 17.6882 12.0361L18.9368 12.049C18.9526 12.0492 18.9683 12.0458 18.9827 12.0392C18.9971 12.0325 19.01 12.0227 19.0204 12.0105C19.0308 11.9983 19.0385 11.9839 19.043 11.9683C19.0474 11.9527 19.0486 11.9363 19.0463 11.9202L18.4674 8.1523C18.4634 8.126 18.4506 8.102 18.431 8.08454C18.4115 8.06708 18.3866 8.05729 18.3608 8.0569C18.3349 8.05652 18.3098 8.06557 18.2898 8.08244C18.2698 8.09931 18.2562 8.12292 18.2515 8.14909L17.5818 11.9009Z" fill="#03609F"/>
<path d="M31.4039 17.3337C32.8538 17.4647 34.1503 17.4829 35.2936 17.3884C36.0154 17.3283 36.3878 17.6708 36.4107 18.4158C36.4107 18.4286 36.418 18.7056 36.4326 19.2466C36.4535 19.9508 36.1228 20.304 35.4406 20.3061C33.7279 20.3104 31.747 20.3147 29.4981 20.319C28.2746 20.319 28.381 19.2692 28.381 18.1968C28.3664 12.8917 28.3799 7.3977 28.4217 1.71477C28.4258 1.08143 28.7367 0.763682 29.3542 0.761535L30.293 0.758311C30.9209 0.756164 31.2359 1.07928 31.238 1.72765L31.2568 17.1695C31.2568 17.2704 31.3058 17.3251 31.4039 17.3337Z" fill="#03609F"/>
<path d="M68.1291 15.3693L67.2874 19.2144C67.1163 20.0024 66.6396 20.3716 65.8573 20.3223C65.6966 20.3137 65.5402 20.3018 65.3879 20.2868C64.5513 20.2009 64.2248 19.7361 64.4084 18.8924C66.069 11.2837 67.3572 5.55565 68.2731 1.70835C68.3294 1.47433 68.4671 1.21669 68.6861 0.935443C68.755 0.847419 68.8436 0.794822 68.9521 0.777646C69.4173 0.708945 69.8784 0.716461 70.3353 0.800192C70.4479 0.819514 70.5335 0.878551 70.5919 0.97731C70.7796 1.28647 70.8954 1.53551 70.9392 1.72444C71.9698 6.12136 73.2538 11.8676 74.7914 18.9632C74.9687 19.7834 74.6505 20.2213 73.8369 20.2772L73.3425 20.3126C72.5351 20.3706 72.048 19.9927 71.8811 19.179L71.0894 15.3274C71.0772 15.2665 71.0447 15.2118 70.9974 15.1725C70.9501 15.1332 70.8908 15.1117 70.8297 15.1116L68.4452 15.1084C68.272 15.1084 68.1667 15.1954 68.1291 15.3693ZM68.877 11.9138C68.8743 11.9294 68.8749 11.9455 68.8788 11.9609C68.8827 11.9762 68.8898 11.9905 68.8997 12.0028C68.9095 12.0151 68.9218 12.025 68.9357 12.0318C68.9496 12.0387 68.9648 12.0424 68.9803 12.0426L70.207 12.0587C70.2224 12.0589 70.2376 12.0556 70.2517 12.0491C70.2657 12.0427 70.2782 12.0331 70.2883 12.0212C70.2984 12.0092 70.3059 11.9952 70.3102 11.98C70.3146 11.9648 70.3156 11.9488 70.3134 11.9331L69.747 8.10083C69.7427 8.07542 69.7298 8.05238 69.7106 8.03577C69.6915 8.01916 69.6672 8.01005 69.6421 8.01005C69.6171 8.01005 69.5928 8.01916 69.5736 8.03577C69.5544 8.05238 69.5416 8.07542 69.5373 8.10083L68.877 11.9138Z" fill="#03609F"/>
</svg>
